<svg width="150" height="104" viewBox="0 0 150 104" fill="none" xmlns="http://www.w3.org/2000/svg">
<path d="M54.7115 67.7948C55.6952 56.2643 65.7872 49.5782 67.3411 48.6172H84.3433C85.8972 49.5805 95.9908 56.2648 96.974 67.7948C97.8964 78.6171 90.7859 90.4275 75.8439 102.903C60.9002 90.4275 53.7913 78.6193 54.7132 67.7948" fill="#FAE670"/>
<path d="M54.7116 67.7948C55.6953 56.2643 65.7873 49.5782 67.3412 48.6172H84.3434C85.8973 49.5805 95.9909 56.2648 96.9741 67.7948C97.8965 78.6171 90.786 90.4275 75.844 102.903C60.8992 90.427 53.7903 78.6177 54.7116 67.7948Z" stroke="#090089" stroke-width="2" stroke-linejoin="round"/>
<path d="M1.07933 52.2843C2.06302 40.7538 12.1556 34.0678 13.71 33.1067H30.7122C32.2661 34.07 42.3597 40.7543 43.3429 52.2843C44.2653 63.1072 37.1553 74.917 22.2128 87.3926C7.2691 74.917 0.160222 63.1088 1.08209 52.2843" fill="#FA4078"/>
<path d="M1.07931 52.2843C2.06301 40.7538 12.1555 34.0678 13.71 33.1067H30.7121C32.2661 34.07 42.3597 40.7543 43.3428 52.2843C44.2653 63.1072 37.1553 74.917 22.2127 87.3926C7.26687 74.9165 0.157998 63.1072 1.07931 52.2843Z" stroke="#090089" stroke-width="2" stroke-linejoin="round"/>
<path d="M30.4152 26.5957H14.1798V33.0173H30.4152V26.5957Z" fill="#FA5987"/>
<path d="M30.4152 26.5957H14.1798V33.0173H30.4152V26.5957Z" stroke="#090089" stroke-width="2" stroke-linejoin="round"/>
<path d="M22.2971 15.4238V26.5961" stroke="#090089" stroke-width="2" stroke-miterlimit="10"/>
<path d="M84.0475 42.1062H67.8121V48.5278H84.0475V42.1062Z" fill="#FAE670"/>
<path d="M84.0475 42.1062H67.8121V48.5278H84.0475V42.1062Z" stroke="#090089" stroke-width="2" stroke-linejoin="round"/>
<path d="M75.929 30.9346V42.1068" stroke="#090089" stroke-width="2" stroke-miterlimit="10"/>
<path d="M106.396 52.6276C107.38 41.097 117.473 34.411 119.027 33.45H136.026C137.58 34.4132 147.674 41.0976 148.657 52.6276C149.58 63.4504 142.469 75.2603 127.527 87.7359C112.583 75.2603 105.474 63.4521 106.396 52.6276Z" fill="#06CA99"/>
<path d="M106.396 52.6276C107.38 41.097 117.473 34.411 119.027 33.45H136.026C137.58 34.4132 147.673 41.0976 148.657 52.6276C149.58 63.4504 142.469 75.2603 127.526 87.7359C112.586 75.2597 105.475 63.4504 106.396 52.6276Z" stroke="#090089" stroke-width="2" stroke-miterlimit="10"/>
<path d="M135.732 26.939H119.497V33.3606H135.732V26.939Z" fill="#06CA99"/>
<path d="M135.732 26.939H119.497V33.3606H135.732V26.939Z" stroke="#090089" stroke-width="2" stroke-miterlimit="10"/>
<path d="M127.614 15.7673V26.9396" stroke="#090089" stroke-width="2" stroke-miterlimit="10"/>
<path d="M4.17385 0C43.7397 39.5658 108.119 39.5658 147.685 0L149 1.3149C108.709 41.6061 43.149 41.6061 2.8595 1.3149L4.17385 0Z" fill="#090089"/>
</svg>
