<svg width="154" height="156" viewBox="0 0 154 156" fill="none" xmlns="http://www.w3.org/2000/svg">
<path d="M153 77C153 92.0314 148.543 106.725 140.192 119.223C131.841 131.721 119.971 141.463 106.084 147.215C92.1968 152.967 76.9157 154.472 62.1732 151.54C47.4306 148.607 33.8887 141.369 23.2599 130.74C12.6311 120.111 5.39283 106.569 2.46035 91.8268C-0.472123 77.0843 1.03293 61.8032 6.78519 47.916C12.5374 34.0289 22.2786 22.1593 34.7767 13.8083C47.2748 5.45732 61.9686 1 77 1C86.9805 0.999915 96.8633 2.96566 106.084 6.78498C115.305 10.6043 123.683 16.2024 130.74 23.2597C137.798 30.317 143.396 38.6952 147.215 47.9159C151.034 57.1367 153 67.0195 153 77Z" fill="white"/>
<path d="M77 152.999C118.973 152.999 152.999 118.973 152.999 76.9993C152.999 35.0261 118.973 1 77 1C35.0267 1 1.00067 35.0261 1.00067 76.9993C1.00067 118.973 35.0267 152.999 77 152.999Z" stroke="#090089" stroke-width="2" stroke-linejoin="round"/>
<path d="M147.562 155.72H6.441C5.0615 155.72 3.73856 155.172 2.76316 154.197C1.78777 153.221 1.23981 151.898 1.23981 150.519V145.679C1.23972 144.996 1.37419 144.319 1.63554 143.688C1.89689 143.057 2.27999 142.484 2.76297 142.001C3.24596 141.518 3.81936 141.134 4.45044 140.873C5.08152 140.612 5.75792 140.477 6.441 140.477H147.562C148.245 140.477 148.922 140.611 149.553 140.873C150.184 141.134 150.758 141.517 151.241 142C151.724 142.483 152.107 143.057 152.368 143.688C152.63 144.319 152.764 144.996 152.764 145.679V150.519C152.764 151.898 152.216 153.221 151.241 154.197C150.265 155.172 148.942 155.72 147.562 155.72Z" fill="#FAE670"/>
<path d="M6.44165 140.477H147.56C148.94 140.477 150.263 141.025 151.238 142C152.214 142.976 152.762 144.299 152.762 145.678V150.519C152.762 151.899 152.214 153.222 151.238 154.197C150.263 155.172 148.94 155.72 147.56 155.72H6.44165C5.06203 155.72 3.73893 155.172 2.76339 154.197C1.78786 153.221 1.23981 151.898 1.23981 150.519V145.679C1.23981 144.299 1.78786 142.976 2.76339 142.001C3.73893 141.025 5.06203 140.477 6.44165 140.477V140.477Z" stroke="#090089" stroke-width="2" stroke-miterlimit="10"/>
<path d="M133.882 140.477H20.1181C18.7385 140.477 17.4154 139.929 16.4398 138.953C15.4643 137.978 14.9163 136.655 14.9163 135.275V134.091C14.9162 133.408 15.0507 132.732 15.3121 132.1C15.5734 131.469 15.9566 130.896 16.4397 130.413C16.9227 129.93 17.4962 129.547 18.1273 129.285C18.7585 129.024 19.435 128.889 20.1181 128.889H133.882C134.566 128.889 135.242 129.024 135.873 129.285C136.504 129.547 137.078 129.93 137.561 130.413C138.044 130.896 138.427 131.469 138.689 132.1C138.95 132.732 139.084 133.408 139.084 134.091V135.277C139.084 136.657 138.536 137.98 137.561 138.955C136.585 139.931 135.262 140.479 133.882 140.479" fill="#FAE670"/>
<path d="M133.882 128.888H20.1181C17.2452 128.888 14.9163 131.217 14.9163 134.09V135.275C14.9163 138.148 17.2452 140.477 20.1181 140.477H133.882C136.755 140.477 139.084 138.148 139.084 135.275V134.09C139.084 131.217 136.755 128.888 133.882 128.888Z" stroke="#090089" stroke-width="2" stroke-miterlimit="10"/>
<path d="M83.4567 111.642H72.1907V128.93H83.4567V111.642Z" fill="#FAE670"/>
<path d="M83.4567 111.642H72.1907V128.93H83.4567V111.642Z" stroke="#090089" stroke-width="2" stroke-miterlimit="10"/>
<path d="M96.5035 92.6538L92.4766 87.3979H108.827L92.9142 66.6272L86.3402 58.0507H101.279L89.1406 42.2048L77 26.3589L64.86 42.2048L52.72 58.0507H67.6585L61.0877 66.6272L45.1741 87.3979H61.5247L57.4971 92.6538L37.9955 118.107H116.007L96.5035 92.6538Z" fill="#06CA99"/>
<path d="M96.5035 92.6538L92.4766 87.3979H108.827L92.9142 66.6272L86.3402 58.0507H101.279L89.1406 42.2048L77 26.3589L64.86 42.2048L52.72 58.0507H67.6585L61.0877 66.6272L45.1741 87.3979H61.5247L57.4971 92.6538L37.9955 118.107H116.007L96.5035 92.6538Z" stroke="#090089" stroke-width="2" stroke-miterlimit="10"/>
<path d="M69.282 18.641L75.7071 20.8194L81.1442 16.7622L81.0578 23.5457L86.5961 27.463L80.1175 29.4765L78.104 35.9551L74.1867 30.4162L67.4039 30.5025L71.4611 25.0654L69.282 18.641Z" fill="#FAE670"/>
<path d="M69.282 18.641L75.7071 20.8194L81.1442 16.7622L81.0578 23.5457L86.5961 27.463L80.1175 29.4765L78.104 35.9551L74.1867 30.4162L67.4039 30.5025L71.4611 25.0654L69.282 18.641Z" stroke="#090089" stroke-width="2" stroke-linejoin="round"/>
<path d="M85.775 48.1137C85.775 48.9001 85.5418 49.6688 85.1049 50.3226C84.6681 50.9765 84.0471 51.4861 83.3206 51.787C82.5941 52.0879 81.7946 52.1667 81.0234 52.0133C80.2521 51.8599 79.5437 51.4812 78.9876 50.9251C78.4315 50.3691 78.0529 49.6606 77.8995 48.8894C77.746 48.1181 77.8248 47.3187 78.1257 46.5921C78.4266 45.8656 78.9363 45.2447 79.5901 44.8078C80.2439 44.3709 81.0127 44.1377 81.799 44.1377C82.8535 44.1377 83.8648 44.5566 84.6105 45.3022C85.3561 46.0479 85.775 47.0592 85.775 48.1137Z" fill="#005BFF"/>
<path d="M81.799 52.0916C83.9949 52.0916 85.775 50.3115 85.775 48.1156C85.775 45.9198 83.9949 44.1396 81.799 44.1396C79.6032 44.1396 77.8231 45.9198 77.8231 48.1156C77.8231 50.3115 79.6032 52.0916 81.799 52.0916Z" stroke="#090089" stroke-miterlimit="10"/>
<path d="M71.3812 80.1864C71.3812 80.9728 71.148 81.7415 70.7111 82.3954C70.2742 83.0492 69.6532 83.5588 68.9267 83.8598C68.2002 84.1607 67.4008 84.2394 66.6295 84.086C65.8582 83.9326 65.1498 83.5539 64.5937 82.9979C64.0377 82.4418 63.659 81.7334 63.5056 80.9621C63.3522 80.1908 63.4309 79.3914 63.7319 78.6649C64.0328 77.9384 64.5424 77.3174 65.1962 76.8805C65.8501 76.4436 66.6188 76.2104 67.4052 76.2104C68.4596 76.2106 69.4708 76.6296 70.2164 77.3752C70.962 78.1208 71.381 79.132 71.3812 80.1864Z" fill="#005BFF"/>
<path d="M71.3812 80.1864C71.3812 80.9728 71.148 81.7415 70.7111 82.3954C70.2742 83.0492 69.6532 83.5588 68.9267 83.8598C68.2002 84.1607 67.4008 84.2394 66.6295 84.086C65.8582 83.9326 65.1498 83.5539 64.5937 82.9979C64.0377 82.4418 63.659 81.7334 63.5056 80.9621C63.3522 80.1908 63.4309 79.3914 63.7319 78.6649C64.0328 77.9384 64.5424 77.3174 65.1962 76.8805C65.8501 76.4436 66.6188 76.2104 67.4052 76.2104C68.4596 76.2106 69.4708 76.6296 70.2164 77.3752C70.962 78.1208 71.381 79.132 71.3812 80.1864V80.1864Z" stroke="#090089" stroke-miterlimit="10"/>
<path d="M83.4567 66.6557C83.4569 67.4422 83.2237 68.2112 82.7868 68.8652C82.3499 69.5193 81.7289 70.0291 81.0022 70.3301C80.2755 70.6312 79.4759 70.71 78.7045 70.5566C77.933 70.4031 77.2244 70.0244 76.6682 69.4682C76.112 68.912 75.7333 68.2034 75.5799 67.432C75.4264 66.6605 75.5052 65.8609 75.8063 65.1342C76.1074 64.4076 76.6172 63.7865 77.2712 63.3496C77.9253 62.9127 78.6942 62.6796 79.4808 62.6797C80.5352 62.6797 81.5466 63.0986 82.2922 63.8442C83.0378 64.5899 83.4567 65.6012 83.4567 66.6557Z" fill="#FA5987"/>
<path d="M83.4567 66.6557C83.4569 67.4422 83.2237 68.2112 82.7868 68.8652C82.3499 69.5193 81.7289 70.0291 81.0022 70.3301C80.2755 70.6312 79.4759 70.71 78.7045 70.5566C77.933 70.4031 77.2244 70.0244 76.6682 69.4682C76.112 68.912 75.7333 68.2034 75.5799 67.432C75.4264 66.6605 75.5052 65.8609 75.8063 65.1342C76.1074 64.4076 76.6172 63.7865 77.2712 63.3496C77.9253 62.9127 78.6942 62.6796 79.4808 62.6797C80.5352 62.6797 81.5466 63.0986 82.2922 63.8442C83.0378 64.5899 83.4567 65.6012 83.4567 66.6557V66.6557Z" stroke="#090089" stroke-linejoin="round"/>
<path d="M67.2093 108.938C66.5747 109.403 65.8167 109.669 65.0311 109.702C64.2454 109.736 63.4674 109.536 62.7955 109.127C62.1236 108.719 61.5878 108.12 61.2561 107.407C60.9243 106.694 60.8114 105.899 60.9316 105.122C61.0519 104.345 61.3999 103.621 61.9316 103.041C62.4633 102.462 63.1548 102.053 63.9188 101.867C64.6828 101.681 65.4848 101.725 66.2236 101.995C66.9623 102.264 67.6045 102.747 68.069 103.381C68.3775 103.803 68.5999 104.281 68.7236 104.788C68.8474 105.295 68.8699 105.822 68.7901 106.338C68.7103 106.854 68.5296 107.349 68.2583 107.795C67.9871 108.241 67.6306 108.63 67.2093 108.938Z" fill="#FA5987"/>
<path d="M67.2093 108.938C66.5747 109.403 65.8167 109.669 65.0311 109.702C64.2454 109.736 63.4674 109.536 62.7955 109.127C62.1236 108.719 61.5878 108.12 61.2561 107.407C60.9243 106.694 60.8114 105.899 60.9316 105.122C61.0519 104.345 61.3999 103.621 61.9316 103.041C62.4633 102.462 63.1548 102.053 63.9188 101.867C64.6828 101.681 65.4848 101.725 66.2236 101.995C66.9623 102.264 67.6045 102.747 68.069 103.381C68.3775 103.803 68.5999 104.281 68.7236 104.788C68.8474 105.295 68.8699 105.822 68.7901 106.338C68.7103 106.854 68.5296 107.349 68.2583 107.795C67.9871 108.241 67.6306 108.63 67.2093 108.938V108.938Z" stroke="#090089" stroke-linejoin="round"/>
<path d="M88.9454 101.399C88.3108 101.864 87.5528 102.13 86.7672 102.163C85.9815 102.197 85.2035 101.997 84.5316 101.588C83.8596 101.18 83.3239 100.581 82.9922 99.8683C82.6604 99.1553 82.5475 98.36 82.6677 97.5829C82.788 96.8058 83.1359 96.0818 83.6676 95.5024C84.1994 94.9231 84.8909 94.5144 85.6549 94.3281C86.4189 94.1417 87.2209 94.1861 87.9597 94.4557C88.6984 94.7252 89.3406 95.2077 89.8051 95.8422C90.1137 96.2635 90.3362 96.7414 90.4599 97.2487C90.5837 97.756 90.6063 98.2828 90.5264 98.7988C90.4466 99.3148 90.2659 99.8101 89.9946 100.256C89.7233 100.702 89.3668 101.091 88.9454 101.399Z" fill="#005BFF"/>
<path d="M88.9454 101.399C88.3108 101.864 87.5528 102.13 86.7672 102.163C85.9815 102.197 85.2035 101.997 84.5316 101.588C83.8596 101.18 83.3239 100.581 82.9922 99.8683C82.6604 99.1553 82.5475 98.36 82.6677 97.5829C82.788 96.8058 83.1359 96.0818 83.6676 95.5024C84.1994 94.9231 84.8909 94.5144 85.6549 94.3281C86.4189 94.1417 87.2209 94.1861 87.9597 94.4557C88.6984 94.7252 89.3406 95.2077 89.8051 95.8422C90.1137 96.2635 90.3362 96.7414 90.4599 97.2487C90.5837 97.756 90.6063 98.2828 90.5264 98.7988C90.4466 99.3148 90.2659 99.8101 89.9946 100.256C89.7233 100.702 89.3668 101.091 88.9454 101.399V101.399Z" stroke="#090089" stroke-miterlimit="10"/>
</svg>
