<svg width="7" height="29" viewBox="0 0 7 29" fill="none" xmlns="http://www.w3.org/2000/svg">
<path d="M3.44285 21.4862C4.1041 21.486 4.7506 21.682 5.30048 22.0492C5.85037 22.4165 6.279 22.9385 6.53216 23.5494C6.78532 24.1603 6.85161 24.8325 6.72271 25.4811C6.59381 26.1296 6.27552 26.7254 5.808 27.193C5.34049 27.6606 4.74474 27.9791 4.09621 28.1082C3.44768 28.2373 2.77547 28.1711 2.16454 27.9181C1.55362 27.6651 1.03142 27.2366 0.664035 26.6868C0.296649 26.137 0.100586 25.4906 0.100586 24.8293C0.100477 24.3904 0.186832 23.9556 0.35475 23.55C0.522669 23.1444 0.76884 22.7759 1.07921 22.4654C1.38959 22.155 1.75807 21.9087 2.16363 21.7407C2.5692 21.5727 3.00386 21.4862 3.44285 21.4862Z" fill="#090089"/>
<path d="M3.44285 11.0541C4.1041 11.0539 4.7506 11.2498 5.30048 11.6171C5.85037 11.9843 6.279 12.5064 6.53216 13.1173C6.78532 13.7281 6.85161 14.4004 6.72271 15.0489C6.59381 15.6975 6.27552 16.2933 5.808 16.7609C5.34049 17.2285 4.74474 17.547 4.09621 17.6761C3.44768 17.8051 2.77547 17.739 2.16454 17.486C1.55362 17.233 1.03142 16.8045 0.664035 16.2547C0.296649 15.7049 0.100586 15.0585 0.100586 14.3972C0.100586 13.5107 0.452634 12.6605 1.07942 12.0336C1.7062 11.4066 2.55634 11.0543 3.44285 11.0541Z" fill="#090089"/>
<path d="M3.44285 0.828308C4.1041 0.828144 4.7506 1.02408 5.30048 1.39133C5.85037 1.75858 6.279 2.28065 6.53216 2.89151C6.78532 3.50238 6.85161 4.1746 6.72271 4.82316C6.59381 5.47172 6.27552 6.06749 5.808 6.53512C5.34049 7.00275 4.74474 7.32124 4.09621 7.4503C3.44768 7.57936 2.77547 7.51321 2.16454 7.2602C1.55362 7.00719 1.03142 6.57869 0.664035 6.02889C0.296649 5.4791 0.100586 4.8327 0.100586 4.17145C0.100586 3.28494 0.452634 2.43472 1.07942 1.80779C1.7062 1.18085 2.55634 0.828528 3.44285 0.828308Z" fill="#090089"/>
</svg>
