<svg width="243" height="593" viewBox="0 0 243 593" fill="none" xmlns="http://www.w3.org/2000/svg">
<path d="M158 473.54H111.397V590.74H158V473.54Z" fill="#FA5987"/>
<path d="M158 473.54H111.397V590.74H158V473.54Z" stroke="#090089" stroke-width="3" stroke-linejoin="round"/>
<path d="M87.8769 590.78H41.1703C41.1151 589.906 41.0208 589.108 41.0208 588.303C41.0113 563.433 40.9941 538.562 40.9693 513.69C40.9387 512.837 41.0956 511.988 41.4289 511.203C41.7622 510.417 42.2638 509.715 42.8983 509.144C53.9744 498.158 65.0004 487.121 75.9761 476.034C76.7992 475.159 77.8006 474.47 78.9127 474.015C80.0248 473.56 81.2216 473.348 82.4223 473.395C84.4228 473.341 85.8974 473.432 87.8769 473.432V590.78Z" fill="#FA5987"/>
<path d="M87.8769 590.78H41.1703C41.1151 589.906 41.0208 589.108 41.0208 588.303C41.0113 563.433 40.9941 538.562 40.9693 513.69C40.9387 512.837 41.0956 511.988 41.4289 511.203C41.7622 510.417 42.2638 509.715 42.8983 509.144C53.9744 498.158 65.0004 487.121 75.9761 476.034C76.7992 475.159 77.8006 474.47 78.9127 474.015C80.0248 473.56 81.2216 473.348 82.4223 473.395C84.4228 473.341 85.8974 473.432 87.8769 473.432V590.78Z" stroke="#090089" stroke-width="3" stroke-linejoin="round"/>
<path d="M111.028 473.648H87.8767V590.826H111.028V473.648Z" fill="#FAE670"/>
<path d="M111.028 473.648H87.8767V590.826H111.028V473.648Z" stroke="#090089" stroke-width="3" stroke-linejoin="round"/>
<path d="M93.3408 425.001L116.723 448.435L84.2217 480.941L60.8098 457.473C71.5741 446.728 82.4727 435.849 93.3408 425" fill="#FA5987"/>
<path d="M93.3408 425.001L116.723 448.435L84.2217 480.941L60.8098 457.473C71.5741 446.728 82.4727 435.85 93.3408 425.001Z" stroke="#090089" stroke-width="3" stroke-linejoin="round"/>
<path d="M35.0023 483.34C42.7183 491.095 50.6582 499.075 58.3522 506.809L25.8689 539.3L2.46179 515.889L35.0023 483.34Z" fill="#FA5987"/>
<path d="M35.0023 483.34C42.7183 491.095 50.6582 499.075 58.3522 506.809L25.8689 539.3L2.46179 515.889L35.0023 483.34Z" stroke="#090089" stroke-width="3" stroke-linejoin="round"/>
<path d="M34.8756 483.215C43.5899 474.504 52.4633 465.637 61.1995 456.906C68.9508 464.748 76.8373 472.719 84.5247 480.5L58.2646 506.75L34.8756 483.215Z" fill="#FAE670"/>
<path d="M34.8756 483.215C43.5899 474.504 52.4633 465.637 61.1995 456.906C68.9508 464.748 76.8373 472.719 84.5247 480.5L58.2646 506.75L34.8756 483.215Z" stroke="#090089" stroke-width="3" stroke-linejoin="round"/>
<path d="M47.2022 470.749L34.8985 483.042C31.1948 486.742 27.5635 490.514 23.7694 494.121C21.7589 495.965 19.2356 497.154 16.5338 497.532C13.8321 497.91 11.0794 497.458 8.6403 496.236C4.33935 494.091 1.29773 489.265 2.14077 484.493C2.68124 481.444 3.93064 478.564 5.78824 476.087C14.7893 464.509 34.0364 461.691 46.1962 469.895C46.4887 470.092 46.7382 470.353 47.2022 470.752" fill="#FAE670"/>
<path d="M47.2022 470.749L34.8985 483.042C31.1948 486.742 27.5635 490.514 23.7694 494.121C21.7589 495.965 19.2356 497.154 16.5338 497.532C13.8321 497.91 11.0794 497.458 8.6403 496.236C4.33935 494.091 1.29773 489.265 2.14077 484.493C2.68124 481.444 3.93064 478.564 5.78824 476.087C14.7893 464.509 34.0364 461.691 46.1962 469.895C46.4858 470.09 46.7382 470.351 47.2022 470.749Z" stroke="#090089" stroke-width="3" stroke-linejoin="round"/>
<path d="M47.2936 470.69C44.8773 467.132 43.2585 463.094 42.5481 458.852C41.8376 454.61 42.0523 450.265 43.1774 446.113C44.9988 438.688 48.6291 432.31 55.1982 428.024C60.0126 424.883 65.3661 425.054 69.5766 428.24C71.6811 429.814 73.2536 431.995 74.083 434.489C74.9124 436.982 74.9591 439.67 74.2167 442.191C73.7949 443.691 73.0405 445.076 72.0095 446.244C63.8715 454.42 55.6249 462.484 47.2936 470.694" fill="#FAE670"/>
<path d="M47.2936 470.69C44.8773 467.132 43.2585 463.094 42.5481 458.852C41.8376 454.61 42.0523 450.265 43.1774 446.113C44.9988 438.688 48.6291 432.31 55.1982 428.024C60.0126 424.883 65.3662 425.054 69.5766 428.24C71.6811 429.814 73.2536 431.995 74.083 434.489C74.9124 436.982 74.9591 439.67 74.2167 442.191C73.7949 443.691 73.0405 445.076 72.0095 446.244C63.8715 454.416 55.6221 462.48 47.2936 470.69Z" stroke="#090089" stroke-width="3" stroke-linejoin="round"/>
<path d="M133 388.779C133.86 386.077 135.349 383.627 137.358 381.611C139.367 379.594 141.843 378.062 144.604 377.129C149.967 375.27 155.685 374.253 161.281 372.99C164.272 372.311 167.393 372.08 170.357 371.34C176.774 369.741 178.07 366.539 174.498 360.802C172.736 357.971 170.419 355.447 168.408 352.748C165.084 348.285 161.251 344.056 158.611 339.262C151.935 327.143 156.574 314.54 169.41 309.868C174.485 308.021 180.084 307.378 185.435 306.156C189.087 305.496 192.681 304.616 196.198 303.522C200.895 301.816 201.878 298.822 199.045 294.629C196.453 290.787 193.164 287.371 190.356 283.648C187.631 280.033 184.686 276.468 182.605 272.532C175.859 259.771 180.773 246.651 194.28 242.153C200.373 240.128 206.992 239.366 213.428 238.271C218.483 237.414 223.017 236.351 225.506 231.258C227.171 227.859 232.056 227.311 235.761 229.28C236.722 229.729 237.589 230.353 238.315 231.115C239.04 231.878 239.608 232.764 239.986 233.723C240.364 234.681 240.545 235.693 240.518 236.7C240.491 237.707 240.256 238.688 239.828 239.588C237.935 244.347 234.745 248.207 229.87 250.175C225.503 251.85 220.993 253.191 216.378 254.188C212.531 255.086 208.505 255.371 204.594 256.067C195.7 257.652 194.197 261.236 199.369 268.855C201.396 271.839 203.907 274.531 206.088 277.431C208.811 281.053 211.847 284.548 214.006 288.455C221.035 301.193 215.891 314.512 202.235 319.004C198.042 320.383 193.496 320.873 189.117 321.788C185.116 322.623 180.989 323.152 177.155 324.412C171.669 326.213 170.744 329.412 174.145 334.277C176.439 337.555 179.331 340.45 181.732 343.666C184.824 347.811 188.255 351.86 190.55 356.381C196.787 368.673 191.656 381.418 178.772 385.889C174.377 387.417 169.544 387.877 164.931 388.897C160.574 389.86 156.082 390.539 151.951 392.038C147.821 393.538 146.963 396.446 149.464 400.173C152.19 404.232 155.714 407.811 158.577 411.796C161.82 416.145 164.762 420.688 167.381 425.394C169.744 429.841 169.656 434.683 168.321 439.354C167.02 443.904 163.217 446.115 158.699 445.018C153.895 443.852 151.062 440.044 152.112 435.321C152.876 431.888 151.763 429.128 149.728 426.505C147.106 423.123 144.119 419.991 141.601 416.542C138.622 412.632 135.937 408.53 133.568 404.268C130.944 399.29 130.925 394.033 133 388.779Z" fill="#FAE670"/>
<path d="M133 388.779C133.86 386.077 135.349 383.627 137.358 381.611C139.367 379.594 141.843 378.062 144.604 377.129C149.967 375.27 155.685 374.253 161.281 372.99C164.272 372.311 167.393 372.08 170.357 371.34C176.774 369.741 178.07 366.539 174.498 360.802C172.736 357.971 170.419 355.447 168.408 352.748C165.084 348.285 161.251 344.056 158.611 339.262C151.935 327.143 156.574 314.54 169.41 309.868C174.485 308.021 180.084 307.378 185.435 306.156C189.087 305.496 192.681 304.616 196.198 303.522C200.895 301.816 201.878 298.822 199.045 294.629C196.453 290.787 193.164 287.371 190.356 283.648C187.631 280.033 184.686 276.468 182.605 272.532C175.859 259.771 180.773 246.651 194.28 242.153C200.373 240.128 206.992 239.366 213.428 238.271C218.483 237.414 223.017 236.351 225.506 231.258C227.171 227.859 232.056 227.311 235.761 229.28C236.722 229.729 237.589 230.353 238.315 231.115C239.04 231.878 239.608 232.764 239.986 233.723C240.364 234.681 240.545 235.693 240.518 236.7C240.491 237.707 240.256 238.688 239.828 239.588C237.935 244.347 234.745 248.207 229.87 250.175C225.503 251.85 220.993 253.191 216.378 254.188C212.531 255.086 208.505 255.371 204.594 256.067C195.7 257.652 194.197 261.236 199.369 268.855C201.396 271.839 203.907 274.531 206.088 277.431C208.811 281.053 211.847 284.548 214.006 288.455C221.035 301.193 215.891 314.512 202.235 319.004C198.042 320.383 193.496 320.873 189.117 321.788C185.116 322.623 180.989 323.152 177.155 324.412C171.669 326.213 170.744 329.412 174.145 334.277C176.439 337.555 179.331 340.45 181.732 343.666C184.824 347.811 188.255 351.86 190.55 356.381C196.787 368.673 191.656 381.418 178.772 385.889C174.377 387.417 169.544 387.877 164.931 388.897C160.574 389.86 156.082 390.539 151.951 392.038C147.821 393.538 146.963 396.446 149.464 400.173C152.19 404.232 155.714 407.811 158.577 411.796C161.82 416.145 164.762 420.688 167.381 425.394C169.744 429.841 169.656 434.683 168.321 439.354C167.02 443.904 163.217 446.115 158.699 445.018C153.895 443.852 151.062 440.044 152.112 435.321C152.876 431.888 151.763 429.128 149.728 426.505C147.106 423.123 144.119 419.991 141.601 416.542C138.622 412.632 135.937 408.53 133.568 404.268C130.944 399.29 130.925 394.033 133 388.779Z" stroke="#090089" stroke-width="3" stroke-miterlimit="10"/>
<path d="M67.2211 328.9C66.9476 326.157 67.4055 323.38 68.5498 320.843C69.6942 318.306 71.4857 316.096 73.7485 314.429C77.9786 311.08 82.7539 308.388 87.3607 305.518C89.7189 304.049 92.305 302.935 94.6441 301.439C95.6632 300.593 96.5679 299.622 97.3356 298.55C96.3937 297.623 95.3322 296.821 94.1775 296.164C88.2657 293.739 82.221 291.613 76.3613 289.08C73.846 287.948 71.5167 286.461 69.4463 284.665C61.8809 278.237 61.0806 267.992 68.1956 260.901C72.2318 256.877 77.3736 253.876 82.1927 250.672C85.0217 248.791 88.3304 247.612 91.1561 245.727C92.5194 244.722 93.4969 243.293 93.925 241.677C95.1593 236.692 98.4464 234.128 103.487 234.706C107.859 235.208 110.439 238.637 110.153 243.5C109.765 250.074 106.114 254.753 100.702 258.08C96.8445 260.452 92.5851 262.179 88.5326 264.25C86.5074 265.286 84.4798 266.346 82.5677 267.569C78.7249 270.027 78.7559 271.647 82.8271 273.409C86.7328 275.101 90.8718 276.284 94.7503 278.027C98.8468 279.864 103.093 281.649 106.68 284.244C115.703 290.773 116.424 302.383 108.222 310.149C104.795 313.391 100.463 315.743 96.4194 318.311C92.901 320.545 89.1324 322.396 85.6207 324.64C83.121 326.234 83.2323 328.175 85.9333 329.399C89.2346 330.895 92.7216 331.994 96.0479 333.453C100.449 335.252 104.746 337.284 108.919 339.54C111.182 340.787 113.118 342.528 114.581 344.632C116.044 346.736 116.995 349.147 117.361 351.682C118.104 356.353 115.771 359.903 111.245 361.054C106.901 362.166 103.227 359.877 101.468 355.625C100.688 353.775 99.2941 352.246 97.5095 351.284C93.7931 349.528 89.6479 348.638 85.8929 346.946C81.5374 345.068 77.3519 342.837 73.3789 340.278C71.4908 339.02 69.9455 337.33 68.8736 335.349C67.8017 333.369 67.2349 331.156 67.2211 328.9Z" fill="#FA5987"/>
<path d="M67.2211 328.9C66.9476 326.157 67.4055 323.38 68.5498 320.843C69.6942 318.306 71.4857 316.096 73.7485 314.429C77.9786 311.08 82.7539 308.388 87.3607 305.518C89.7189 304.049 92.305 302.935 94.6441 301.439C95.6632 300.593 96.5679 299.622 97.3356 298.55C96.3937 297.623 95.3322 296.821 94.1775 296.164C88.2657 293.739 82.221 291.613 76.3613 289.08C73.846 287.948 71.5167 286.461 69.4463 284.665C61.8809 278.237 61.0806 267.992 68.1956 260.901C72.2318 256.877 77.3736 253.876 82.1927 250.672C85.0217 248.791 88.3304 247.612 91.1561 245.727C92.5194 244.722 93.4969 243.293 93.925 241.677C95.1593 236.692 98.4464 234.128 103.487 234.706C107.859 235.208 110.439 238.637 110.153 243.5C109.765 250.074 106.114 254.753 100.702 258.08C96.8445 260.452 92.5851 262.179 88.5326 264.25C86.5074 265.286 84.4798 266.346 82.5677 267.569C78.7249 270.027 78.7559 271.647 82.8271 273.409C86.7328 275.101 90.8718 276.284 94.7503 278.027C98.8468 279.864 103.093 281.649 106.68 284.244C115.703 290.773 116.424 302.383 108.222 310.149C104.795 313.391 100.463 315.743 96.4194 318.311C92.901 320.545 89.1324 322.396 85.6207 324.64C83.121 326.234 83.2323 328.175 85.9333 329.399C89.2346 330.895 92.7216 331.994 96.0479 333.453C100.449 335.252 104.746 337.284 108.919 339.54C111.182 340.787 113.118 342.528 114.581 344.632C116.044 346.736 116.995 349.147 117.361 351.682C118.104 356.353 115.771 359.903 111.245 361.054C106.901 362.166 103.227 359.877 101.468 355.625C100.688 353.775 99.2941 352.246 97.5095 351.284C93.7931 349.528 89.6479 348.638 85.8929 346.946C81.5374 345.068 77.3519 342.837 73.3789 340.278C71.4908 339.02 69.9455 337.33 68.8736 335.349C67.8017 333.369 67.2349 331.156 67.2211 328.9Z" stroke="#090089" stroke-width="3" stroke-linejoin="round"/>
<path d="M119.274 197.528C114.097 196.498 111.39 192.084 112.797 186.989C114.346 181.38 117.971 177.062 123.33 175.14C131.362 172.267 139.782 170.314 148.106 168.198C153.013 166.952 158.152 166.443 163.006 165.06C167.709 163.721 168.365 160.981 164.573 157.76C160.095 153.958 155.052 150.778 150.207 147.394C144.309 143.275 137.819 139.79 132.544 135.03C119.851 123.579 122.199 108.713 137.851 102.579C145.754 99.4828 154.48 98.2263 162.857 96.2153C166.798 95.2672 170.894 94.7622 174.758 93.5971C180.757 91.7893 181.42 88.364 176.303 84.6708C171.099 80.9132 165.283 77.9728 160.033 74.2711C154.06 70.0653 147.726 66.0178 142.777 60.808C132.983 50.4922 135.354 37.3751 148.029 31.3974C154.196 28.4915 161.192 27.0605 167.941 25.4074C173.967 23.9322 180.196 23.1369 186.298 21.8936C187.754 21.698 189.11 21.1045 190.209 20.1817C191.307 19.259 192.102 18.0449 192.503 16.6802C193.931 12.3703 198.238 10.7602 202.742 12.26C206.944 13.6585 209.128 17.486 208.11 21.8684C206.899 27.0952 203.929 31.4013 198.993 33.4752C192.486 36.1353 185.776 38.3348 178.914 40.0569C173.164 41.5556 167.148 42.1743 161.276 43.2968C159.524 43.624 157.831 44.1712 156.239 44.9248C152.95 46.5103 152.413 48.9812 155.176 51.4467C158.043 53.8145 161.073 55.9886 164.242 57.9527C171.824 63.0526 179.645 67.8295 186.976 73.2435C192.061 77.0003 195.546 82.1757 196.076 88.5393C196.751 96.639 192.909 102.722 185.747 105.928C179.268 108.821 172.173 110.593 165.199 112.358C159.557 113.786 153.625 114.24 147.955 115.593C145.669 116.138 143.736 117.926 141.641 119.147C143.04 121.298 143.984 124.018 145.924 125.489C150.929 129.287 156.42 132.465 161.63 136.015C166.517 139.346 171.725 142.387 176.024 146.34C188.444 157.77 186.224 172.866 170.822 179.06C163.083 182.172 154.442 183.327 146.18 185.262C143.095 185.986 139.914 186.365 136.8 186.996C132.697 187.828 129.156 189.055 127.832 193.727C126.901 197.013 123.074 198.282 119.277 197.526" fill="#06CA99"/>
<path d="M119.274 197.528C114.097 196.498 111.39 192.084 112.797 186.989C114.346 181.38 117.971 177.062 123.33 175.14C131.362 172.267 139.782 170.314 148.106 168.198C153.013 166.952 158.152 166.443 163.006 165.06C167.709 163.721 168.365 160.981 164.573 157.76C160.095 153.958 155.052 150.778 150.207 147.394C144.309 143.275 137.819 139.79 132.544 135.03C119.851 123.579 122.199 108.713 137.851 102.579C145.754 99.4828 154.48 98.2263 162.857 96.2153C166.798 95.2672 170.894 94.7622 174.758 93.5971C180.757 91.7893 181.42 88.364 176.303 84.6708C171.099 80.9132 165.283 77.9728 160.033 74.2711C154.06 70.0653 147.726 66.0178 142.777 60.808C132.983 50.4922 135.354 37.3751 148.029 31.3974C154.196 28.4915 161.192 27.0605 167.941 25.4074C173.967 23.9322 180.196 23.1369 186.298 21.8936C187.754 21.698 189.11 21.1045 190.209 20.1817C191.307 19.259 192.102 18.0449 192.503 16.6802C193.931 12.3703 198.238 10.7603 202.742 12.26C206.944 13.6585 209.128 17.486 208.11 21.8684C206.899 27.0952 203.929 31.4013 198.993 33.4752C192.486 36.1353 185.776 38.3348 178.914 40.0569C173.164 41.5556 167.148 42.1743 161.276 43.2968C159.524 43.624 157.831 44.1712 156.239 44.9248C152.95 46.5103 152.413 48.9812 155.176 51.4467C158.043 53.8145 161.073 55.9886 164.242 57.9527C171.824 63.0526 179.645 67.8295 186.976 73.2435C192.061 77.0003 195.546 82.1757 196.076 88.5393C196.751 96.639 192.91 102.722 185.747 105.928C179.268 108.821 172.173 110.593 165.199 112.358C159.557 113.786 153.625 114.24 147.955 115.593C145.669 116.138 143.736 117.926 141.641 119.147C143.04 121.298 143.984 124.018 145.924 125.489C150.929 129.287 156.42 132.465 161.63 136.015C166.517 139.346 171.725 142.387 176.024 146.34C188.444 157.77 186.224 172.866 170.822 179.06C163.083 182.172 154.442 183.327 146.18 185.262C143.095 185.986 139.914 186.365 136.8 186.996C132.697 187.828 129.156 189.055 127.832 193.727C126.898 197.015 123.071 198.284 119.274 197.528Z" stroke="#090089" stroke-width="3" stroke-miterlimit="10"/>
</svg>
