<svg width="59" height="91" viewBox="0 0 59 91" fill="none" xmlns="http://www.w3.org/2000/svg">
<path d="M22.2304 67.4524C21.5098 66.0217 21.2176 64.3805 21.3824 62.69C21.5472 60.9995 22.1633 59.3177 23.1703 57.8097C25.0054 54.8627 27.2986 52.1327 29.4553 49.3494C30.5594 47.9249 31.8711 46.6345 32.9582 45.2C33.3923 44.4686 33.733 43.6987 33.9717 42.9098C33.2229 42.6497 32.4284 42.4897 31.608 42.4336C27.5981 42.6594 23.5702 43.0846 19.5693 43.2375C17.843 43.2791 16.1549 43.0769 14.558 42.6373C8.75071 41.1059 6.19107 35.7045 8.98129 29.9494C10.5638 26.6839 13.0121 23.688 15.2273 20.6663C16.5275 18.8921 18.2559 17.3761 19.5534 15.6007C20.16 14.6918 20.4507 13.6517 20.3769 12.6543C20.0972 9.59896 21.5312 7.33054 24.6473 6.32149C27.3495 5.44693 29.5819 6.64722 30.4011 9.38589C31.5067 13.0888 30.2865 16.6118 27.744 19.8571C25.9317 22.1705 23.7492 24.2365 21.7598 26.4364C20.7658 27.5363 19.7752 28.6502 18.8865 29.8229C17.1007 32.18 17.4484 33.0587 20.2286 32.9537C22.8959 32.8533 25.5986 32.4132 28.2601 32.3479C31.0706 32.2774 33.9592 32.1388 36.6208 32.617C43.3159 33.8209 46.1059 39.9907 42.8062 46.4009C41.4272 49.0778 39.3283 51.505 37.4455 53.9748C35.807 56.1239 33.9416 58.1287 32.309 60.2812C31.1462 61.8113 31.6073 62.8457 33.4627 62.8055C35.7308 62.7571 38.0286 62.4423 40.3038 62.3666C43.288 62.1949 46.257 62.1783 49.1981 62.3168C50.7976 62.4047 52.3037 62.8494 53.6018 63.6171C54.8999 64.3849 55.9559 65.4555 56.6894 66.7476C58.0811 69.111 57.4151 71.6691 54.9573 73.4894C52.599 75.2408 49.9479 74.9529 48.0372 73.0865C47.1973 72.2782 46.0568 71.8073 44.7997 71.7498C42.2319 71.765 39.5851 72.3674 37.0073 72.4279C34.0344 72.5441 31.0911 72.423 28.2073 72.0657C26.8285 71.8733 25.5654 71.3536 24.525 70.5506C23.4846 69.7475 22.6975 68.6848 22.2304 67.4524Z" fill="#FA5987"/>
<path d="M22.2304 67.4524C21.5098 66.0217 21.2176 64.3805 21.3824 62.69C21.5472 60.9995 22.1633 59.3177 23.1703 57.8097C25.0054 54.8627 27.2986 52.1327 29.4553 49.3494C30.5594 47.9249 31.8711 46.6345 32.9582 45.2C33.3923 44.4686 33.733 43.6987 33.9717 42.9098C33.2229 42.6497 32.4284 42.4897 31.608 42.4336C27.5981 42.6594 23.5702 43.0846 19.5693 43.2375C17.843 43.2791 16.1549 43.0769 14.558 42.6373C8.75071 41.1059 6.19107 35.7045 8.98129 29.9494C10.5638 26.6839 13.0121 23.688 15.2273 20.6663C16.5275 18.8921 18.2559 17.3761 19.5534 15.6007C20.16 14.6918 20.4507 13.6517 20.3769 12.6543C20.0972 9.59896 21.5312 7.33054 24.6473 6.32149C27.3495 5.44693 29.5819 6.64722 30.4011 9.38589C31.5067 13.0888 30.2865 16.6118 27.744 19.8571C25.9317 22.1705 23.7492 24.2365 21.7598 26.4364C20.7658 27.5363 19.7752 28.6502 18.8865 29.8229C17.1007 32.18 17.4484 33.0587 20.2286 32.9537C22.8959 32.8533 25.5986 32.4132 28.2601 32.3479C31.0706 32.2774 33.9592 32.1388 36.6208 32.617C43.3159 33.8209 46.1059 39.9907 42.8062 46.4009C41.4272 49.0778 39.3283 51.505 37.4455 53.9748C35.807 56.1239 33.9416 58.1287 32.309 60.2812C31.1462 61.8113 31.6073 62.8457 33.4627 62.8055C35.7308 62.7571 38.0286 62.4423 40.3038 62.3666C43.288 62.1949 46.257 62.1783 49.1981 62.3168C50.7976 62.4047 52.3037 62.8494 53.6018 63.6171C54.8999 64.3849 55.9559 65.4555 56.6894 66.7476C58.0811 69.111 57.4151 71.6691 54.9573 73.4894C52.599 75.2408 49.9479 74.9529 48.0372 73.0865C47.1973 72.2782 46.0568 71.8073 44.7997 71.7498C42.2319 71.765 39.5851 72.3674 37.0073 72.4279C34.0344 72.5441 31.0911 72.423 28.2073 72.0657C26.8285 71.8733 25.5654 71.3536 24.525 70.5506C23.4846 69.7475 22.6975 68.6848 22.2304 67.4524V67.4524Z" stroke="#090089" stroke-width="2" stroke-linejoin="round"/>
</svg>
