<svg width="52" height="130" viewBox="0 0 52 130" fill="none" xmlns="http://www.w3.org/2000/svg">
<path d="M-2.50895 116.734C-5.94548 115.865 -7.86712 113.123 -7.10593 110.186C-6.26746 106.953 -4.02307 104.586 -0.561198 103.722C4.62729 102.431 10.1006 101.703 15.5055 100.873C18.6914 100.385 22.0539 100.344 25.2011 99.7721C28.2502 99.2187 28.5932 97.634 25.9964 95.5415C22.9303 93.0709 19.5124 90.9394 16.2179 88.6975C12.2078 85.968 7.82839 83.5832 4.20728 80.5073C-4.50586 73.1072 -3.43966 64.4492 6.65399 61.6173C11.7501 60.1878 17.4474 59.8861 22.8901 59.1214C25.4509 58.7604 28.1278 58.6688 30.6309 58.1759C34.5169 57.4111 34.8426 55.4224 31.3599 52.984C27.8174 50.5033 23.8993 48.4741 20.3282 46.024C16.2663 43.2399 11.9715 40.5309 8.55027 37.2057C1.7794 30.6218 2.91652 22.9975 11.0584 20.1078C15.0191 18.7032 19.5732 18.2112 23.9574 17.5756C27.8719 17.0086 31.942 16.8533 35.9137 16.427C36.8651 16.385 37.7375 16.1029 38.43 15.6136C39.1224 15.1242 39.6064 14.4475 39.8258 13.6621C40.6265 11.1897 43.4062 10.4564 46.4157 11.5689C49.2235 12.6064 50.7825 14.9762 50.254 17.5121C49.6258 20.5367 47.8116 22.9291 44.6329 23.9045C40.4402 25.1467 36.099 26.1068 31.6427 26.7775C27.9106 27.3723 23.9747 27.4341 20.1501 27.8007C19.009 27.9055 17.9134 28.1432 16.8907 28.5078C14.7796 29.278 14.5059 30.7096 16.4017 32.3044C18.3628 33.8469 20.4245 35.2832 22.5714 36.6025C27.7199 39.9956 33.0159 43.2102 38.01 46.7761C41.4738 49.2504 43.9317 52.4815 44.4844 56.265C45.1884 61.0808 42.8584 64.4783 38.2524 66.0096C34.0856 67.3912 29.4772 68.0793 24.9487 68.7695C21.2851 69.3282 17.3998 69.2971 13.7154 69.8094C12.2298 70.016 11.0161 70.9741 9.67819 71.5897C10.667 72.93 11.3753 74.5834 12.6977 75.5496C16.1107 78.0438 19.8233 80.1973 23.3624 82.5559C26.6825 84.7688 30.2048 86.8265 33.158 89.3771C41.6913 96.7511 40.717 105.551 30.7897 108.431C25.8013 109.878 20.157 110.124 14.7874 110.85C12.7823 111.122 10.7027 111.185 8.6755 111.4C6.00467 111.685 3.7161 112.231 2.99589 114.922C2.48961 116.815 0.0140706 117.371 -2.50669 116.733" fill="#06CA99"/>
<path d="M-2.50896 116.734C-5.94549 115.865 -7.86714 113.123 -7.10594 110.186C-6.26748 106.953 -4.02308 104.586 -0.561207 103.722C4.62729 102.431 10.1005 101.703 15.5055 100.873C18.6914 100.385 22.0539 100.344 25.2011 99.7721C28.2502 99.2187 28.5932 97.634 25.9964 95.5415C22.9303 93.0709 19.5124 90.9394 16.2179 88.6975C12.2078 85.968 7.82838 83.5832 4.20727 80.5073C-4.50587 73.1072 -3.43967 64.4492 6.65399 61.6173C11.7501 60.1878 17.4474 59.8861 22.8901 59.1214C25.4509 58.7604 28.1278 58.6688 30.6309 58.1759C34.5169 57.4111 34.8426 55.4224 31.3599 52.984C27.8174 50.5033 23.8993 48.4741 20.3282 46.024C16.2663 43.2399 11.9715 40.5309 8.55027 37.2057C1.7794 30.6218 2.91651 22.9975 11.0584 20.1078C15.0191 18.7032 19.5732 18.2112 23.9575 17.5756C27.8719 17.0086 31.942 16.8533 35.9137 16.4269C36.8651 16.385 37.7376 16.1029 38.43 15.6136C39.1224 15.1242 39.6064 14.4475 39.8258 13.6621C40.6265 11.1897 43.4062 10.4564 46.4157 11.5689C49.2235 12.6064 50.7825 14.9762 50.254 17.512C49.6258 20.5367 47.8116 22.9291 44.6329 23.9045C40.4402 25.1467 36.099 26.1068 31.6427 26.7775C27.9106 27.3723 23.9747 27.4341 20.1501 27.8007C19.009 27.9055 17.9134 28.1432 16.8907 28.5078C14.7796 29.278 14.5059 30.7096 16.4017 32.3044C18.3628 33.8469 20.4245 35.2832 22.5714 36.6025C27.7199 39.9956 33.0159 43.2102 38.01 46.7761C41.4738 49.2504 43.9317 52.4815 44.4844 56.265C45.1885 61.0808 42.8584 64.4783 38.2524 66.0096C34.0857 67.3912 29.4772 68.0793 24.9487 68.7695C21.2851 69.3282 17.3998 69.2971 13.7154 69.8094C12.2298 70.0159 11.0161 70.9741 9.67819 71.5897C10.667 72.93 11.3753 74.5834 12.6977 75.5496C16.1107 78.0438 19.8233 80.1973 23.3624 82.5559C26.6825 84.7688 30.2048 86.8265 33.158 89.377C41.6913 96.7511 40.717 105.551 30.7897 108.431C25.8013 109.878 20.157 110.124 14.7874 110.85C12.7823 111.122 10.7027 111.185 8.6755 111.4C6.00467 111.685 3.7161 112.231 2.99588 114.922C2.48734 116.816 0.0118006 117.372 -2.50896 116.734Z" stroke="#090089" stroke-width="2" stroke-miterlimit="10"/>
</svg>
