<svg width="132" height="74" viewBox="0 0 132 74" fill="none" xmlns="http://www.w3.org/2000/svg">
<path d="M17.4467 32.0682C19.0097 31.4059 20.7017 31.1897 22.3976 31.4355C24.0936 31.6813 25.75 32.3828 27.2443 33.4881C30.1676 35.6157 32.8448 38.2873 35.5874 40.7905C37.0546 42.1267 38.3687 43.7196 39.8533 45.0162C43.0667 47.8233 45.0262 47.1881 46.2543 42.8586C46.8603 40.7229 47.1119 38.4149 47.5618 36.1989C48.3057 32.5361 48.7465 28.6946 49.9061 25.2641C52.8368 16.59 60.3704 13.8404 67.4685 18.8404C70.2751 20.8175 72.7361 23.5805 75.3647 25.9675C77.0796 27.6694 78.8724 29.2486 80.7327 30.6959C83.3281 32.5273 85.0717 31.809 85.8831 28.5251C86.6279 25.5177 86.9095 22.3104 87.5164 19.2358C88.1067 16.2512 88.589 13.1681 89.5747 10.3983C92.7708 1.41814 100.646 -1.39785 107.924 4.03774C111.207 6.49147 114.116 9.7573 117.108 12.7849C119.456 15.1645 121.696 17.176 124.978 16.3978C127.17 15.8795 129.311 18.2963 129.85 21.1246C130.018 21.8318 130.07 22.562 130.004 23.2731C129.938 23.9841 129.754 24.6618 129.464 25.2668C129.174 25.8718 128.784 26.3922 128.315 26.7978C127.846 27.2033 127.308 27.486 126.733 27.6295C123.834 28.5918 120.841 28.476 118.057 26.6573C115.604 24.9921 113.246 23.1098 111.005 21.0273C109.106 19.3192 107.417 17.2579 105.586 15.431C101.42 11.2768 99.2062 11.9592 97.7408 17.9403C97.1676 20.2834 96.9148 22.7673 96.4395 25.1588C95.8456 28.1455 95.4302 31.2487 94.4878 34.0484C91.4119 43.1724 83.3566 45.947 76.0233 40.4283C73.7717 38.7334 71.7878 36.4764 69.6752 34.487C67.7453 32.6693 65.9064 30.656 63.8483 29.1058C60.9036 26.8871 59.0888 27.7214 58.1915 31.5942C57.588 34.2048 57.3901 36.9793 56.8559 39.6221C56.1669 43.0267 55.6524 46.5747 54.4837 49.7048C51.3037 58.2138 43.5149 60.7558 36.4899 55.6461C34.0919 53.9041 32.0107 51.4792 29.7598 49.4074C27.6344 47.4504 25.5854 45.301 23.3031 43.6907C21.0208 42.0804 19.3648 42.8295 18.6369 45.7398C17.8449 48.9103 17.5805 52.3126 16.8755 55.5264C16.152 59.0982 15.2231 62.5877 14.0953 65.9704C12.9867 69.1064 10.7483 71.0797 8.105 72.3069C5.52984 73.5022 3.05038 72.366 1.80011 69.462C0.470288 66.3736 1.10666 63.2502 3.66305 61.8467C5.52195 60.8274 6.34714 59.0728 6.75272 56.8758C7.27646 54.0439 7.54531 51.1189 8.14042 48.3155C8.76612 45.0705 9.59364 41.9039 10.6162 38.8418C11.866 35.3428 14.2518 33.1379 17.4467 32.0682Z" fill="#FAE670"/>
<path d="M17.4467 32.0682C19.0097 31.4059 20.7017 31.1897 22.3976 31.4355C24.0936 31.6813 25.75 32.3828 27.2443 33.4881C30.1676 35.6157 32.8448 38.2873 35.5874 40.7905C37.0546 42.1267 38.3687 43.7196 39.8533 45.0162C43.0667 47.8233 45.0262 47.1881 46.2543 42.8586C46.8603 40.7229 47.1119 38.4149 47.5618 36.1989C48.3057 32.5361 48.7465 28.6946 49.9061 25.2641C52.8368 16.59 60.3704 13.8404 67.4685 18.8404C70.2751 20.8175 72.7361 23.5805 75.3647 25.9675C77.0796 27.6694 78.8724 29.2486 80.7327 30.6959C83.3281 32.5273 85.0717 31.809 85.8831 28.5251C86.6279 25.5177 86.9095 22.3104 87.5164 19.2358C88.1067 16.2512 88.589 13.1681 89.5747 10.3983C92.7708 1.41814 100.646 -1.39785 107.924 4.03774C111.207 6.49147 114.116 9.7573 117.108 12.7849C119.456 15.1645 121.696 17.176 124.978 16.3978C127.17 15.8795 129.311 18.2963 129.85 21.1246C130.018 21.8318 130.07 22.562 130.004 23.2731C129.938 23.9841 129.754 24.6618 129.464 25.2668C129.174 25.8718 128.784 26.3922 128.315 26.7978C127.846 27.2033 127.308 27.486 126.733 27.6295C123.834 28.5918 120.841 28.476 118.057 26.6573C115.604 24.9921 113.246 23.1098 111.005 21.0273C109.106 19.3192 107.417 17.2579 105.586 15.431C101.42 11.2768 99.2062 11.9592 97.7408 17.9403C97.1676 20.2834 96.9148 22.7673 96.4395 25.1588C95.8456 28.1455 95.4302 31.2487 94.4878 34.0484C91.4119 43.1724 83.3566 45.947 76.0233 40.4283C73.7717 38.7334 71.7878 36.4764 69.6752 34.487C67.7453 32.6693 65.9064 30.656 63.8483 29.1058C60.9036 26.8871 59.0888 27.7214 58.1915 31.5942C57.588 34.2048 57.3901 36.9793 56.8559 39.6221C56.1669 43.0267 55.6524 46.5747 54.4837 49.7048C51.3037 58.2138 43.5149 60.7558 36.4899 55.6461C34.0919 53.9041 32.0107 51.4792 29.7598 49.4074C27.6344 47.4504 25.5854 45.301 23.3031 43.6907C21.0208 42.0804 19.3648 42.8295 18.6369 45.7398C17.8449 48.9103 17.5805 52.3126 16.8755 55.5264C16.152 59.0982 15.2231 62.5877 14.0953 65.9704C12.9867 69.1064 10.7483 71.0797 8.105 72.3069C5.52984 73.5022 3.05038 72.366 1.80011 69.462C0.470288 66.3736 1.10666 63.2502 3.66305 61.8467C5.52195 60.8274 6.34714 59.0728 6.75272 56.8758C7.27646 54.0439 7.54531 51.1189 8.14042 48.3155C8.76612 45.0705 9.59364 41.9039 10.6162 38.8418C11.866 35.3428 14.2518 33.1379 17.4467 32.0682Z" fill="#FAE670"/>
<path d="M17.4467 32.0682C19.0097 31.4059 20.7017 31.1897 22.3976 31.4355C24.0936 31.6813 25.75 32.3828 27.2443 33.4881C30.1676 35.6157 32.8448 38.2873 35.5874 40.7905C37.0546 42.1267 38.3687 43.7196 39.8533 45.0162C43.0667 47.8233 45.0262 47.1881 46.2543 42.8586C46.8603 40.7229 47.1119 38.4149 47.5618 36.1989C48.3057 32.5361 48.7465 28.6946 49.9061 25.2641C52.8368 16.59 60.3704 13.8404 67.4685 18.8404C70.2751 20.8175 72.7361 23.5805 75.3647 25.9675C77.0796 27.6694 78.8724 29.2486 80.7327 30.6959C83.3281 32.5273 85.0717 31.809 85.8831 28.5251C86.6279 25.5177 86.9095 22.3104 87.5164 19.2358C88.1067 16.2512 88.589 13.1681 89.5747 10.3983C92.7708 1.41814 100.646 -1.39785 107.924 4.03774C111.207 6.49147 114.116 9.7573 117.108 12.7849C119.456 15.1645 121.696 17.176 124.978 16.3978C127.17 15.8795 129.311 18.2963 129.85 21.1246C130.018 21.8318 130.07 22.562 130.004 23.2731C129.938 23.9841 129.754 24.6618 129.464 25.2668C129.174 25.8718 128.784 26.3922 128.315 26.7978C127.846 27.2033 127.308 27.486 126.733 27.6295C123.834 28.5918 120.841 28.476 118.057 26.6573C115.604 24.9921 113.246 23.1098 111.005 21.0273C109.106 19.3192 107.417 17.2579 105.586 15.431C101.42 11.2768 99.2062 11.9592 97.7408 17.9403C97.1676 20.2834 96.9148 22.7673 96.4395 25.1588C95.8456 28.1455 95.4302 31.2487 94.4878 34.0484C91.4119 43.1724 83.3566 45.947 76.0233 40.4283C73.7717 38.7334 71.7878 36.4764 69.6752 34.487C67.7453 32.6693 65.9064 30.656 63.8483 29.1058C60.9036 26.8871 59.0888 27.7214 58.1915 31.5942C57.588 34.2048 57.3901 36.9793 56.8559 39.6221C56.1669 43.0267 55.6524 46.5747 54.4837 49.7048C51.3037 58.2138 43.5149 60.7558 36.4899 55.6461C34.0919 53.9041 32.0107 51.4792 29.7598 49.4074C27.6344 47.4504 25.5854 45.301 23.3031 43.6907C21.0208 42.0804 19.3648 42.8295 18.6369 45.7398C17.8449 48.9103 17.5805 52.3126 16.8755 55.5264C16.152 59.0982 15.2231 62.5877 14.0953 65.9704C12.9867 69.1064 10.7483 71.0797 8.105 72.3069C5.52984 73.5022 3.05038 72.366 1.80011 69.462C0.470288 66.3736 1.10666 63.2502 3.66305 61.8467C5.52195 60.8274 6.34714 59.0728 6.75272 56.8758C7.27646 54.0439 7.54531 51.1189 8.14042 48.3155C8.76612 45.0705 9.59364 41.9039 10.6162 38.8418C11.866 35.3428 14.2518 33.1379 17.4467 32.0682Z" stroke="#090089" stroke-width="2" stroke-miterlimit="10"/>
</svg>
