<svg width="97" height="101" viewBox="0 0 97 101" fill="none" xmlns="http://www.w3.org/2000/svg">
<path d="M84.1975 26.2392L60.9561 30.3373L71.2622 88.7865L94.5037 84.6884L84.1975 26.2392Z" fill="#FA5987"/>
<path d="M85.226 26.2393L60.9561 30.8372L70.2338 88.7865L94.5037 84.1885L85.226 26.2393Z" stroke="#090089" stroke-width="2" stroke-linejoin="round"/>
<path d="M59.5352 90.3717L35.215 94.9798C35.1171 94.5533 35.0048 94.1679 34.9411 93.77C32.9676 81.4743 30.9901 69.179 29.0086 56.8842C28.9252 56.4657 28.9396 56.0304 29.051 55.6092C29.1624 55.1879 29.368 54.791 29.6532 54.4463C34.551 47.9215 39.4187 41.3768 44.2563 34.8122C44.6156 34.2981 45.0825 33.8588 45.6255 33.524C46.1686 33.1892 46.775 32.9667 47.404 32.8715C48.4413 32.6473 49.2163 32.5466 50.247 32.3513L59.5352 90.3717Z" fill="#FA5987"/>
<path d="M59.5352 90.3717L35.215 94.9798C35.1171 94.5533 35.0048 94.1679 34.9411 93.77C32.9676 81.4743 30.9901 69.179 29.0086 56.8842C28.9252 56.4657 28.9396 56.0304 29.051 55.6092C29.1624 55.1879 29.368 54.791 29.6532 54.4463C34.551 47.9215 39.4187 41.3768 44.2563 34.8122C44.6156 34.2981 45.0825 33.8588 45.6255 33.524C46.1686 33.1892 46.775 32.9667 47.404 32.8715C48.4413 32.6473 49.2163 32.5466 50.247 32.3513L59.5352 90.3717Z" stroke="#090089" stroke-width="2" stroke-linejoin="round"/>
<path d="M61.6005 30.4236L49.2354 32.7087L58.7206 90.8981L71.0858 88.613L61.6005 30.4236Z" fill="#FAE670"/>
<path d="M61.6005 30.4236L49.2354 32.7087L58.7206 90.8981L71.0858 88.613L61.6005 30.4236Z" stroke="#090089" stroke-width="2" stroke-linejoin="round"/>
<path d="M48.0228 7.94644L61.7442 17.1193L47.7144 36.1889L33.9753 27.0021C38.6235 20.6965 43.3297 14.3125 48.0227 7.94598" fill="#FA5987"/>
<path d="M48.0227 7.94647L61.7441 17.1193L47.7143 36.1889L33.9752 27.0021C38.6234 20.6965 43.3297 14.313 48.0227 7.94647Z" stroke="#090089" stroke-width="2" stroke-linejoin="round"/>
<path d="M24.0586 42.1708C28.5883 45.2086 33.2494 48.3345 37.7664 51.3642L23.7444 70.4247L10.012 61.2654L24.0586 42.1708Z" fill="#FA5987"/>
<path d="M24.0586 42.1708C28.5883 45.2086 33.2494 48.3345 37.7664 51.3642L23.7444 70.4247L10.012 61.2654L24.0586 42.1708Z" stroke="#090089" stroke-width="2" stroke-linejoin="round"/>
<path d="M23.3693 42.1207C27.1316 37.01 30.9628 31.8068 34.7347 26.6842C39.2893 29.7611 43.9228 32.8881 48.4402 35.9414L37.1028 51.3428L23.3693 42.1207Z" fill="#FAE670"/>
<path d="M23.3693 42.1207C27.1316 37.01 30.9628 31.8068 34.7347 26.6842C39.2893 29.7611 43.9228 32.8881 48.4402 35.9414L37.1028 51.3428L23.3693 42.1207Z" stroke="#090089" stroke-width="2" stroke-linejoin="round"/>
<path d="M28.9884 34.5199L23.7033 41.6887C22.1123 43.8463 20.5635 46.0317 18.9196 48.1532C18.0432 49.2445 16.8568 50.0676 15.5173 50.5134C14.1779 50.9592 12.7487 51.0067 11.4191 50.6496C9.0752 50.0245 7.16268 47.9743 7.22207 45.5735C7.2609 44.0391 7.6719 42.5184 8.42194 41.1338C12.0892 34.6333 21.6215 31.3956 28.413 34.2022C28.5763 34.2697 28.7229 34.3723 28.9886 34.5213" fill="#FAE670"/>
<path d="M28.9884 34.5199L23.7033 41.6887C22.1123 43.8463 20.5635 46.0317 18.9196 48.1532C18.0432 49.2445 16.8568 50.0676 15.5173 50.5134C14.1779 50.9592 12.7487 51.0067 11.4191 50.6496C9.0752 50.0245 7.16268 47.9743 7.22207 45.5735C7.2609 44.0391 7.6719 42.5184 8.42194 41.1338C12.0892 34.6333 21.6215 31.3956 28.413 34.2022C28.5747 34.269 28.7227 34.3714 28.9884 34.5199Z" stroke="#090089" stroke-width="2" stroke-linejoin="round"/>
<path d="M28.3594 34.5002C26.8438 32.9894 25.6993 31.1644 25.0044 29.1502C24.3096 27.136 24.0807 24.9801 24.3335 22.8302C24.6877 19.0034 26.0506 15.5138 29.0825 12.7628C31.3046 10.7472 34.0613 10.3058 36.4673 11.4573C37.6685 12.0242 38.6443 12.941 39.2638 14.0847C39.8833 15.2285 40.1169 16.5444 39.9331 17.8559C39.8339 18.634 39.5553 19.3886 39.1181 20.0635C35.5856 24.8793 31.9886 29.6505 28.3597 34.5021" fill="#FAE670"/>
<path d="M28.3594 34.5001C26.8437 32.9893 25.6993 31.1644 25.0044 29.1501C24.3096 27.1359 24.0807 24.98 24.3335 22.8302C24.6877 19.0034 26.0506 15.5137 29.0825 12.7628C31.3046 10.7471 34.0613 10.3057 36.4673 11.4573C37.6685 12.0241 38.6443 12.9409 39.2638 14.0847C39.8833 15.2284 40.1168 16.5444 39.933 17.8559C39.8339 18.634 39.5553 19.3885 39.1181 20.0634C35.5853 24.8773 31.9869 29.6488 28.3594 34.5001Z" stroke="#090089" stroke-width="2" stroke-linejoin="round"/>
</svg>
