<svg width="115" height="117" viewBox="0 0 115 117" fill="none" xmlns="http://www.w3.org/2000/svg">
<path d="M72.8874 31.3514C72.4729 31.2338 72.1221 30.9565 71.9121 30.5803C71.702 30.2042 71.6499 29.76 71.7673 29.3455L73.8405 22.0295C74.1913 20.7854 74.0342 19.4529 73.4037 18.3245C72.7733 17.196 71.7209 16.3638 70.4775 16.0104L67.3533 15.1251C66.1096 14.7742 64.7775 14.931 63.6492 15.561C62.521 16.191 61.6887 17.2428 61.3349 18.4857L59.2617 25.8017C59.1385 26.2096 58.8599 26.5528 58.4861 26.7574C58.1122 26.9619 57.673 27.0114 57.263 26.8952C56.853 26.779 56.5051 26.5065 56.2941 26.1362C56.0832 25.766 56.0261 25.3277 56.1352 24.9157L58.2084 17.5997C58.7984 15.5285 60.1856 13.7757 62.066 12.7257C63.9464 11.6757 66.1664 11.4142 68.2393 11.9986L71.3635 12.8839C73.4352 13.4735 75.1885 14.8607 76.2389 16.7412C77.2893 18.6218 77.5509 20.8421 76.9665 22.9153L74.8933 30.2313C74.7757 30.6458 74.4984 30.9966 74.1222 31.2066C73.7461 31.4167 73.3019 31.4688 72.8874 31.3514Z" fill="#FA5987"/>
<path d="M70.3241 28.9365L70.324 28.937C70.0983 29.7341 70.1985 30.5883 70.6024 31.3116C71.0063 32.035 71.681 32.5684 72.478 32.7945L72.4789 32.7947C73.276 33.0204 74.1302 32.9202 74.8535 32.5163C75.5769 32.1124 76.1103 31.4378 76.3364 30.6407L76.3365 30.6403L78.4097 23.3243L78.4102 23.3223C79.1024 20.8668 78.7925 18.2371 77.5485 16.0098C76.3044 13.7825 74.2278 12.1395 71.7741 11.4412L71.7724 11.4407L68.6482 10.5554L68.6463 10.5548C66.1912 9.86275 63.5618 10.1724 61.3347 11.416C59.1076 12.6596 57.4645 14.7356 56.7657 17.1888L56.7652 17.1908L54.692 24.5068L54.6852 24.5317C54.4754 25.3239 54.5852 26.1668 54.9908 26.8788C55.3965 27.5908 56.0656 28.115 56.8541 28.3384C57.6425 28.5618 58.4871 28.4666 59.2061 28.0733C59.925 27.6799 60.4606 27.02 60.6976 26.2355L60.7049 26.2107L62.7778 18.8957C63.0229 18.0352 63.5993 17.3069 64.3805 16.8707C65.1618 16.4345 66.0841 16.3258 66.9454 16.5685L70.0674 17.4532C70.9286 17.698 71.6576 18.2745 72.0943 19.0561C72.5308 19.8375 72.6397 20.7602 72.3969 21.6217C72.3969 21.6219 72.3968 21.6222 72.3968 21.6224L70.3241 28.9365ZM74.8933 30.2313C74.7757 30.6458 74.4984 30.9966 74.1222 31.2066C73.7461 31.4167 73.3019 31.4688 72.8874 31.3514C72.4729 31.2338 72.1221 30.9565 71.9121 30.5803C71.702 30.2042 71.6499 29.76 71.7673 29.3455L74.8933 30.2313Z" stroke="#090089" stroke-width="3" stroke-linejoin="round"/>
<path d="M90.457 69.325C88.563 76.0085 84.7295 81.9804 79.4415 86.4853C74.1535 90.9902 67.6484 93.8258 60.7487 94.6336C53.8491 95.4415 46.8649 94.1852 40.6793 91.0237C34.4936 87.8622 29.3844 82.9374 25.9977 76.8721C22.611 70.8068 21.0988 63.8735 21.6525 56.9489C22.2062 50.0242 24.8009 43.4193 29.1084 37.9693C33.4159 32.5192 39.2428 28.4689 45.8522 26.3305C52.4616 24.1921 59.5568 24.0616 66.2403 25.9556C70.6781 27.2131 74.8247 29.3325 78.4435 32.1926C82.0622 35.0527 85.0821 38.5976 87.3309 42.6248C89.5796 46.652 91.0131 51.0827 91.5495 55.664C92.0858 60.2452 91.7146 64.8872 90.457 69.325Z" fill="#FA5987"/>
<path d="M60.7491 94.6338C80.0156 92.3778 93.8054 74.9304 91.5494 55.6638C89.2934 36.3973 71.8459 22.6075 52.5794 24.8635C33.3129 27.1195 19.5231 44.567 21.7791 63.8335C24.0351 83.1 41.4825 96.8898 60.7491 94.6338Z" stroke="#090089" stroke-width="3" stroke-linejoin="round"/>
<path d="M67.6684 67.1833C67.2593 67.0691 66.904 66.8137 66.6654 66.4625L58.3517 54.2942L44.8869 60.2945C44.4783 60.4741 44.0178 60.4974 43.5932 60.3598C43.1685 60.2222 42.8092 59.9334 42.5835 59.5482L35.8763 47.9071L25.4218 51.5222C24.9771 51.6747 24.4907 51.6489 24.0646 51.4501C23.6386 51.2514 23.3063 50.8951 23.1375 50.4564C23.0568 50.2416 23.0203 50.0127 23.0301 49.7834C23.04 49.5542 23.096 49.3293 23.1949 49.1222C23.2937 48.9151 23.4333 48.7301 23.6054 48.5782C23.7774 48.4264 23.9783 48.3108 24.1961 48.2384L36.0675 44.1351C36.4651 43.9975 36.8983 44.0024 37.2927 44.1491C37.6871 44.2957 38.0182 44.5749 38.2294 44.9389L44.8697 56.4593L58.2195 50.5095C58.6065 50.3378 59.0413 50.307 59.4486 50.4224C59.8559 50.5379 60.2099 50.7922 60.4493 51.1414L68.6936 63.2104L80.3901 56.8861C80.7607 56.6868 81.1892 56.6227 81.602 56.7048C82.0148 56.7869 82.3861 57.0101 82.6523 57.3361L90.6062 67.0574C90.7531 67.2334 90.8631 67.4373 90.9297 67.6567C90.9962 67.8762 91.0179 68.1068 90.9934 68.3348C90.969 68.5628 90.8989 68.7836 90.7874 68.984C90.6759 69.1843 90.5251 69.3602 90.3442 69.5011C89.9702 69.7859 89.5003 69.9146 89.0333 69.8603C88.5664 69.806 88.1386 69.5729 87.8399 69.2099L80.8361 60.6477L69.0199 67.0396C68.6049 67.2606 68.1205 67.3121 67.6684 67.1833Z" fill="#06CA99"/>
<path d="M67.6684 67.1833C67.2593 67.0691 66.904 66.8137 66.6654 66.4625L58.3517 54.2942L44.8869 60.2945C44.4783 60.4741 44.0178 60.4974 43.5932 60.3598C43.1685 60.2222 42.8092 59.9334 42.5835 59.5482L35.8763 47.9071L25.4218 51.5222C24.9771 51.6747 24.4907 51.6489 24.0646 51.4501C23.6386 51.2514 23.3063 50.8951 23.1375 50.4564C23.0568 50.2416 23.0203 50.0127 23.0301 49.7834C23.04 49.5542 23.096 49.3293 23.1949 49.1222C23.2937 48.9151 23.4333 48.7301 23.6054 48.5782C23.7774 48.4264 23.9783 48.3108 24.1961 48.2384L36.0675 44.1351C36.4651 43.9975 36.8983 44.0024 37.2927 44.1491C37.6871 44.2957 38.0182 44.5749 38.2294 44.9389L44.8697 56.4593L58.2195 50.5095C58.6065 50.3378 59.0413 50.307 59.4486 50.4224C59.8559 50.5379 60.2099 50.7922 60.4493 51.1414L68.6936 63.2104L80.3901 56.8861C80.7607 56.6868 81.1892 56.6227 81.602 56.7048C82.0148 56.7869 82.3861 57.0101 82.6523 57.3361L90.6062 67.0574C90.7531 67.2334 90.8631 67.4373 90.9297 67.6567C90.9962 67.8762 91.0179 68.1068 90.9934 68.3348C90.969 68.5628 90.8989 68.7836 90.7874 68.984C90.6759 69.1843 90.5251 69.3602 90.3442 69.5011C89.9702 69.7859 89.5003 69.9146 89.0333 69.8603C88.5664 69.806 88.1386 69.5729 87.8399 69.2099L80.8361 60.6477L69.0199 67.0396C68.6049 67.2606 68.1205 67.3121 67.6684 67.1833V67.1833Z" stroke="#090089" stroke-miterlimit="10"/>
<path d="M63.0655 78.9301C62.6849 78.8233 62.3543 78.5853 62.1323 78.2582L54.3709 66.9009L41.8038 72.5006C41.422 72.6682 40.992 72.6897 40.5954 72.5608C40.1989 72.4319 39.8636 72.1617 39.6534 71.8017L33.3943 60.94L23.6366 64.3114C23.2215 64.4542 22.7672 64.4302 22.3694 64.2446C21.9716 64.059 21.6614 63.7262 21.5042 63.3163C21.4291 63.1158 21.3951 62.9022 21.4045 62.6883C21.4138 62.4744 21.4662 62.2646 21.5585 62.0714C21.6508 61.8782 21.7811 61.7056 21.9417 61.5639C22.1023 61.4223 22.2898 61.3145 22.493 61.247L33.5727 57.4173C33.9439 57.2889 34.3481 57.2935 34.7163 57.4304C35.0844 57.5672 35.3936 57.8277 35.5909 58.1673L41.788 68.9209L54.2479 63.3677C54.6091 63.208 55.0147 63.1795 55.3946 63.2872C55.7746 63.3949 56.105 63.6319 56.3287 63.9574L64.0228 75.2217L74.9377 69.3182C75.2838 69.1326 75.6837 69.073 76.0689 69.1497C76.4541 69.2263 76.8007 69.4345 77.0493 69.7385L84.4727 78.8115C84.6099 78.9757 84.7127 79.1659 84.775 79.3707C84.8372 79.5755 84.8575 79.7907 84.8347 80.0035C84.812 80.2163 84.7466 80.4223 84.6425 80.6093C84.5384 80.7963 84.3977 80.9605 84.2288 81.0919C83.88 81.3584 83.4413 81.479 83.0053 81.4283C82.5693 81.3777 82.1699 81.1597 81.8914 80.8204L75.3531 72.8311L64.3288 78.7941C63.9412 79.0009 63.4884 79.049 63.0661 78.9282" fill="#06CA99"/>
<path d="M63.0655 78.9301C62.6849 78.8233 62.3543 78.5853 62.1322 78.2582L54.3709 66.9009L41.8038 72.5006C41.422 72.6682 40.992 72.6897 40.5954 72.5608C40.1989 72.4319 39.8636 72.1617 39.6534 71.8017L33.3943 60.94L23.6366 64.3114C23.2215 64.4542 22.7672 64.4302 22.3694 64.2446C21.9716 64.059 21.6614 63.7262 21.5042 63.3163C21.4291 63.1158 21.3951 62.9022 21.4045 62.6883C21.4138 62.4744 21.4662 62.2646 21.5585 62.0714C21.6508 61.8782 21.7811 61.7056 21.9417 61.5639C22.1023 61.4223 22.2898 61.3145 22.493 61.247L33.5727 57.4173C33.9439 57.2889 34.3481 57.2935 34.7163 57.4304C35.0844 57.5672 35.3936 57.8277 35.5909 58.1673L41.788 68.9209L54.2479 63.3677C54.6091 63.208 55.0147 63.1795 55.3946 63.2872C55.7746 63.3949 56.105 63.6319 56.3287 63.9573L64.0228 75.2217L74.9377 69.3182C75.2838 69.1326 75.6837 69.073 76.0689 69.1497C76.4541 69.2263 76.8007 69.4345 77.0493 69.7385L84.4727 78.8115C84.6099 78.9757 84.7127 79.1659 84.775 79.3707C84.8372 79.5755 84.8575 79.7907 84.8347 80.0035C84.812 80.2163 84.7466 80.4223 84.6425 80.6093C84.5384 80.7963 84.3977 80.9605 84.2288 81.0919C83.88 81.3584 83.4413 81.479 83.0053 81.4283C82.5693 81.3777 82.1699 81.1597 81.8914 80.8204L75.3531 72.8311L64.3288 78.7941C63.9413 79.0016 63.4883 79.0504 63.0655 78.9301V78.9301Z" stroke="#090089" stroke-miterlimit="10"/>
</svg>
