<svg width="147" height="160" viewBox="0 0 147 160" fill="none" xmlns="http://www.w3.org/2000/svg">
<path d="M102.127 2.00212C94.0044 1.96374 86.0328 4.19432 79.1101 8.44257C72.1873 12.6908 66.5885 18.7879 62.9444 26.0468L2.98451 145.67C1.79601 147.747 1.79601 150.122 2.39064 152.497C2.7453 153.599 3.32385 154.617 4.09002 155.485C4.85619 156.353 5.79347 157.054 6.84311 157.543C8.04873 158.119 9.36586 158.423 10.7017 158.434C12.3811 158.451 14.0298 157.984 15.451 157.089C16.8722 156.194 18.0058 154.909 18.7166 153.388L78.3796 34.0618C81.4867 27.956 86.8723 23.3186 93.3716 21.1522C99.8709 18.9859 106.962 19.4647 113.111 22.4852C125.876 29.0154 131.218 44.4521 124.689 57.2164C123.5 59.2942 123.5 61.6689 124.095 64.0436C124.4 65.1702 124.96 66.2115 125.732 67.0867C126.504 67.9618 127.468 68.6473 128.548 69.09C129.752 69.6656 131.069 69.9697 132.404 69.9808C134.083 69.9979 135.732 69.5311 137.153 68.6363C138.575 67.7414 139.708 66.4563 140.419 64.9344C151.105 43.2652 142.497 16.845 120.829 6.15842C114.995 3.35929 108.597 1.9373 102.127 2.00212Z" fill="white"/>
<path d="M102.127 2.00212C94.0044 1.96374 86.0328 4.19432 79.1101 8.44257C72.1873 12.6908 66.5885 18.7879 62.9444 26.0468L2.98451 145.67C1.79601 147.747 1.79601 150.122 2.39064 152.497C2.7453 153.599 3.32385 154.617 4.09002 155.485C4.85619 156.353 5.79347 157.054 6.84311 157.543C8.04873 158.119 9.36586 158.423 10.7017 158.434C12.3811 158.451 14.0298 157.984 15.451 157.089C16.8722 156.194 18.0058 154.909 18.7166 153.388L78.3796 34.0618C81.4867 27.956 86.8723 23.3186 93.3716 21.1522C99.8709 18.9859 106.962 19.4647 113.111 22.4852C125.876 29.0154 131.218 44.4521 124.689 57.2164C123.5 59.2942 123.5 61.6689 124.095 64.0436C124.4 65.1702 124.96 66.2115 125.732 67.0867C126.504 67.9618 127.468 68.6473 128.548 69.09C129.752 69.6656 131.069 69.9697 132.404 69.9808C134.083 69.9979 135.732 69.5311 137.153 68.6363C138.575 67.7414 139.708 66.4563 140.419 64.9344C151.105 43.2652 142.497 16.845 120.829 6.15842C114.995 3.35929 108.597 1.9373 102.127 2.00212V2.00212Z" stroke="#090089" stroke-width="3" stroke-linejoin="round"/>
<path d="M27.0536 136.714L7.20715 137.249L14.3175 121.654L33.1617 123.601L27.0536 136.714Z" fill="#FA5987"/>
<path d="M27.0536 136.714L7.20715 137.249L14.3175 121.654L33.1617 123.601L27.0536 136.714Z" stroke="#090089" stroke-width="2" stroke-linejoin="round"/>
<path d="M142.389 60.2842L124.686 57.2103L127.428 47.2695L144.998 46.7688L142.389 60.2842Z" fill="#FA5987"/>
<path d="M142.389 60.2842L124.686 57.2103L127.428 47.2695L144.998 46.7688L142.389 60.2842Z" stroke="#090089" stroke-width="2" stroke-linejoin="round"/>
<path d="M139.525 26.1613L123.999 32.7641L115.34 24.4004L133.725 15.8862L139.525 26.1613Z" fill="#FA5987"/>
<path d="M139.525 26.1613L123.999 32.7641L115.34 24.4004L133.725 15.8862L139.525 26.1613Z" stroke="#090089" stroke-width="2" stroke-linejoin="round"/>
<path d="M41.253 108.316L20.989 107.689L27.4483 95.5887H47.0222L41.253 108.316Z" fill="#FA5987"/>
<path d="M41.253 108.316L20.989 107.689L27.4483 95.5887H47.0222L41.253 108.316Z" stroke="#090089" stroke-width="2" stroke-linejoin="round"/>
<path d="M54.6974 81.4253L35.7914 80.2185L41.7911 66.5847L61.9146 66.9885L54.6974 81.4253Z" fill="#FA5987"/>
<path d="M54.6974 81.4253L35.7914 80.2185L41.7911 66.5847L61.9146 66.9885L54.6974 81.4253Z" stroke="#090089" stroke-width="2" stroke-linejoin="round"/>
<path d="M69.6745 51.4709L50.5555 50.761L56.6698 38.5646H76.1269L69.6745 51.4709Z" fill="#FA5987"/>
<path d="M69.6745 51.4709L50.5555 50.761L56.6698 38.5646H76.1269L69.6745 51.4709Z" stroke="#090089" stroke-width="2" stroke-linejoin="round"/>
<path d="M81.6297 29.0712L65.9816 22.2685L75.7315 10.7316L95.9901 20.9387L81.6297 29.0712Z" fill="#FA5987"/>
<path d="M81.6297 29.0712L65.9816 22.2685L75.7315 10.7316L95.9901 20.9387L81.6297 29.0712Z" stroke="#090089" stroke-width="2" stroke-linejoin="round"/>
<path d="M115.631 4.55778L113.112 22.4845L99.6847 19.8769L102.127 2.00293L115.631 4.55778Z" fill="#FA5987"/>
<path d="M115.631 4.55778L113.112 22.4845L99.6847 19.8769L102.127 2.00293L115.631 4.55778Z" stroke="#090089" stroke-width="2" stroke-linejoin="round"/>
</svg>
