<svg width="138" height="178" viewBox="0 0 138 178" fill="none" xmlns="http://www.w3.org/2000/svg">
<path d="M86.7282 62.5594C87.2088 60.6593 88.1751 58.9168 89.5323 57.5028C90.8895 56.0888 92.591 55.052 94.4699 54.4941C98.0383 53.2952 101.805 52.6697 105.504 51.8839C107.398 51.4819 109.355 51.3726 111.243 50.9475C112.112 50.6325 112.936 50.2058 113.695 49.6783C113.303 48.8276 112.802 48.0311 112.205 47.3087C108.926 44.2358 105.487 41.3308 102.268 38.1985C100.897 36.8246 99.7324 35.2586 98.8115 33.5498C95.4134 27.3969 97.3524 20.3548 103.705 17.3645C107.309 15.6672 111.389 14.925 115.307 13.9685C117.607 13.4066 120.052 13.4314 122.351 12.8661C123.483 12.5296 124.465 11.8145 125.133 10.8404C127.138 7.81248 129.901 6.90717 133.055 8.53145C135.791 9.94041 136.652 12.866 135.297 16.0451C133.464 20.3417 129.954 22.5712 125.619 23.4649C122.529 24.102 119.331 24.2097 116.186 24.5979C114.614 24.7926 113.035 25.0028 111.492 25.3503C108.39 26.049 108.022 27.1385 110.258 29.3163C112.403 31.4059 114.823 33.2134 116.938 35.3305C119.172 37.5646 121.517 39.8003 123.237 42.4153C127.563 48.9943 125.244 56.9288 118.02 60.1026C115.002 61.4271 111.607 61.9341 108.348 62.6567C105.513 63.2854 102.606 63.5964 99.7724 64.2331C97.7564 64.6838 97.3625 66.0086 98.8332 67.4893C100.63 69.3001 102.644 70.8911 104.467 72.6827C106.91 74.9663 109.229 77.3795 111.413 79.9119C112.591 81.3007 113.438 82.94 113.888 84.7051C114.339 86.4702 114.38 88.3148 114.011 90.0985C113.374 93.402 110.996 95.2009 107.763 94.8582C104.658 94.5339 102.807 92.1017 102.68 88.8291C102.615 87.4015 102.072 86.0373 101.137 84.9564C99.1309 82.8701 96.6367 81.2571 94.5902 79.204C92.1961 76.8789 89.9976 74.3606 88.017 71.6746C87.0858 70.3705 86.4824 68.8613 86.2581 67.2746C86.0337 65.6879 86.195 64.0706 86.7282 62.5594Z" fill="#FAE670"/>
<path d="M86.7282 62.5594C87.2088 60.6593 88.1751 58.9168 89.5323 57.5028C90.8895 56.0888 92.591 55.052 94.4699 54.4941C98.0383 53.2952 101.805 52.6697 105.504 51.8839C107.398 51.4819 109.355 51.3726 111.243 50.9475C112.112 50.6325 112.936 50.2058 113.695 49.6783C113.303 48.8276 112.802 48.0311 112.205 47.3087C108.926 44.2358 105.487 41.3308 102.268 38.1985C100.897 36.8246 99.7324 35.2586 98.8115 33.5498C95.4134 27.3969 97.3524 20.3548 103.705 17.3645C107.309 15.6672 111.389 14.925 115.307 13.9685C117.607 13.4066 120.052 13.4314 122.351 12.8661C123.483 12.5296 124.465 11.8145 125.133 10.8404C127.138 7.81248 129.901 6.90717 133.055 8.53145C135.791 9.94041 136.652 12.866 135.297 16.0451C133.464 20.3417 129.954 22.5712 125.619 23.4649C122.529 24.102 119.331 24.2097 116.186 24.5979C114.614 24.7926 113.035 25.0028 111.492 25.3503C108.39 26.049 108.022 27.1385 110.258 29.3163C112.403 31.4059 114.823 33.2134 116.938 35.3305C119.172 37.5646 121.517 39.8003 123.237 42.4153C127.563 48.9943 125.244 56.9288 118.02 60.1026C115.002 61.427 111.607 61.9341 108.348 62.6567C105.513 63.2854 102.606 63.5964 99.7724 64.2331C97.7564 64.6838 97.3625 66.0086 98.8332 67.4893C100.63 69.3001 102.644 70.8911 104.467 72.6827C106.91 74.9663 109.229 77.3795 111.413 79.9119C112.591 81.3007 113.438 82.94 113.888 84.7051C114.339 86.4702 114.38 88.3148 114.011 90.0985C113.374 93.402 110.996 95.2009 107.763 94.8582C104.658 94.5339 102.807 92.1017 102.68 88.8291C102.615 87.4015 102.072 86.0373 101.137 84.9564C99.1309 82.8701 96.6367 81.2571 94.5902 79.204C92.1961 76.8789 89.9976 74.3606 88.017 71.6746C87.0858 70.3705 86.4824 68.8613 86.2581 67.2746C86.0337 65.6879 86.195 64.0706 86.7282 62.5594V62.5594Z" stroke="#090089" stroke-width="2" stroke-linejoin="round"/>
<path d="M127.134 81.2473H89.4534V176.009H127.134V81.2473Z" fill="#FA5987"/>
<path d="M127.134 81.2473H89.4534V176.009H127.134V81.2473Z" stroke="#090089" stroke-width="2" stroke-linejoin="round"/>
<path d="M70.4358 176.041H32.6712C32.6265 175.335 32.5503 174.69 32.5503 174.039C32.5425 153.93 32.5287 133.82 32.5087 113.711C32.4839 113.021 32.6107 112.335 32.8802 111.7C33.1497 111.064 33.5553 110.496 34.0684 110.035C43.0239 101.152 51.939 92.2281 60.8134 83.2637C61.4789 82.5559 62.2886 81.9991 63.1878 81.631C64.087 81.2629 65.0547 81.0922 66.0255 81.1302C67.643 81.0863 68.8353 81.1595 70.4358 81.1595V176.041Z" fill="#FA5987"/>
<path d="M70.4358 176.041H32.6712C32.6265 175.335 32.5503 174.69 32.5503 174.039C32.5425 153.93 32.5287 133.82 32.5087 113.711C32.4839 113.021 32.6107 112.335 32.8802 111.7C33.1497 111.064 33.5553 110.496 34.0684 110.035C43.0239 101.152 51.939 92.2281 60.8134 83.2637C61.4789 82.5559 62.2886 81.9991 63.1878 81.631C64.087 81.2629 65.0547 81.0922 66.0255 81.1302C67.643 81.0863 68.8353 81.1595 70.4358 81.1595V176.041Z" stroke="#090089" stroke-width="2" stroke-linejoin="round"/>
<path d="M89.1552 81.3345H70.4358V176.079H89.1552V81.3345Z" fill="#FAE670"/>
<path d="M89.1552 81.3345H70.4358V176.079H89.1552V81.3345Z" stroke="#090089" stroke-width="2" stroke-linejoin="round"/>
<path d="M74.8539 42.0008L93.7597 60.9482L67.4806 87.2311L48.5509 68.256C57.2544 59.5679 66.0665 50.772 74.8539 42" fill="#FA5987"/>
<path d="M74.8539 42.0007L93.7597 60.9481L67.4806 87.2311L48.5509 68.256C57.2544 59.5679 66.0665 50.7728 74.8539 42.0007Z" stroke="#090089" stroke-width="2" stroke-linejoin="round"/>
<path d="M27.684 89.1704C33.9228 95.4408 40.3426 101.893 46.5637 108.146L20.2992 134.417L1.37335 115.488L27.684 89.1704Z" fill="#FA5987"/>
<path d="M27.684 89.1704C33.9228 95.4408 40.3426 101.893 46.5637 108.146L20.2992 134.417L1.37335 115.488L27.684 89.1704Z" stroke="#090089" stroke-width="2" stroke-linejoin="round"/>
<path d="M27.5815 89.0695C34.6275 82.0266 41.8021 74.8567 48.8658 67.7976C55.1331 74.1381 61.5097 80.5832 67.7254 86.8744L46.4927 108.099L27.5815 89.0695Z" fill="#FAE670"/>
<path d="M27.5815 89.0695C34.6275 82.0266 41.8021 74.8567 48.8658 67.7976C55.1331 74.1381 61.5097 80.5832 67.7254 86.8744L46.4927 108.099L27.5815 89.0695Z" stroke="#090089" stroke-width="2" stroke-linejoin="round"/>
<path d="M37.5483 78.9906L27.6001 88.9302C24.6055 91.9218 21.6694 94.9711 18.6017 97.8879C16.9761 99.3788 14.9359 100.341 12.7514 100.646C10.5669 100.951 8.34112 100.586 6.36903 99.5978C2.89149 97.8632 0.432176 93.9613 1.11382 90.1033C1.55082 87.6378 2.56102 85.3095 4.06299 83.3061C11.3408 73.9448 26.9031 71.6665 36.7349 78.2997C36.9714 78.4591 37.1732 78.6701 37.5483 78.9929" fill="#FAE670"/>
<path d="M37.5483 78.9906L27.6001 88.9302C24.6055 91.9218 21.6694 94.9711 18.6016 97.8879C16.9761 99.3788 14.9359 100.341 12.7514 100.646C10.5669 100.951 8.34112 100.586 6.36903 99.5978C2.89149 97.8632 0.432176 93.9613 1.11382 90.1033C1.55082 87.6378 2.56102 85.3095 4.06299 83.3061C11.3408 73.9448 26.9031 71.6665 36.7349 78.2997C36.9691 78.4576 37.1732 78.6686 37.5483 78.9906Z" stroke="#090089" stroke-width="2" stroke-linejoin="round"/>
<path d="M37.6221 78.9427C35.6684 76.0658 34.3596 72.8006 33.7851 69.3708C33.2107 65.941 33.3843 62.4275 34.294 59.071C35.7667 53.0672 38.702 47.9106 44.0134 44.4446C47.9061 41.9052 52.2347 42.0438 55.6391 44.6194C57.3407 45.8924 58.6121 47.6554 59.2827 49.6718C59.9534 51.6882 59.9911 53.8616 59.3908 55.9C59.0498 57.1125 58.4398 58.2324 57.6062 59.1766C51.0262 65.7874 44.3585 72.3073 37.6221 78.9458" fill="#FAE670"/>
<path d="M37.6221 78.9427C35.6684 76.0658 34.3596 72.8006 33.7851 69.3708C33.2107 65.941 33.3843 62.4275 34.294 59.071C35.7667 53.0672 38.702 47.9106 44.0134 44.4446C47.9061 41.9052 52.2347 42.0438 55.6391 44.6194C57.3407 45.8924 58.6121 47.6554 59.2827 49.6718C59.9534 51.6882 59.9911 53.8616 59.3908 55.9C59.0498 57.1125 58.4398 58.2324 57.6062 59.1766C51.0262 65.7843 44.3561 72.3042 37.6221 78.9427Z" stroke="#090089" stroke-width="2" stroke-linejoin="round"/>
</svg>
