<svg width="83" height="90" viewBox="0 0 83 90" fill="none" xmlns="http://www.w3.org/2000/svg">
<path d="M52.48 2.76047C48.2431 3.14514 44.1978 4.70536 40.7998 7.26537C37.4019 9.82537 34.7864 13.2834 33.248 17.2499L7.9442 82.6101C7.42802 83.7527 7.54634 84.9909 7.9747 86.1995C8.21456 86.7566 8.5669 87.2582 9.00966 87.6728C9.45241 88.0874 9.97604 88.4061 10.5477 88.6089C11.205 88.8488 11.9069 88.9417 12.604 88.8811C13.4805 88.8061 14.3169 88.4805 15.0133 87.9432C15.7098 87.4058 16.2369 86.6793 16.5317 85.8505L41.6954 20.6599C43.0113 17.3215 45.5883 14.6352 48.8692 13.1818C52.1501 11.7284 55.8712 11.6248 59.2279 12.8933C66.2091 15.6622 69.7635 23.445 66.9953 30.4257C66.4791 31.5683 66.5974 32.8065 67.0258 34.0151C67.2408 34.5874 67.5848 35.1024 68.031 35.5202C68.4772 35.9381 69.0137 36.2475 69.5988 36.4245C70.2556 36.6646 70.9572 36.7576 71.6539 36.6968C72.5304 36.6221 73.3669 36.2965 74.0634 35.7591C74.7599 35.2217 75.2869 34.4952 75.5815 33.6663C80.074 21.8352 74.2689 8.48833 62.4387 3.9958C59.2575 2.82695 55.8504 2.40431 52.48 2.76047Z" fill="white"/>
<path d="M52.48 2.76047C48.2431 3.14514 44.1978 4.70536 40.7998 7.26537C37.4019 9.82537 34.7864 13.2834 33.248 17.2499L7.9442 82.6101C7.42802 83.7527 7.54634 84.9909 7.9747 86.1995C8.21456 86.7566 8.5669 87.2582 9.00966 87.6728C9.45241 88.0874 9.97603 88.4061 10.5477 88.6088C11.205 88.8488 11.9069 88.9417 12.604 88.8811C13.4805 88.8061 14.3169 88.4805 15.0133 87.9432C15.7098 87.4058 16.2369 86.6793 16.5317 85.8505L41.6954 20.6599C43.0113 17.3215 45.5883 14.6352 48.8692 13.1818C52.1501 11.7284 55.8712 11.6248 59.2279 12.8933C66.2091 15.6622 69.7635 23.445 66.9953 30.4257C66.4791 31.5683 66.5974 32.8065 67.0258 34.0151C67.2408 34.5874 67.5848 35.1024 68.031 35.5202C68.4772 35.9381 69.0137 36.2475 69.5988 36.4245C70.2556 36.6646 70.9572 36.7576 71.6539 36.6968C72.5304 36.6221 73.3669 36.2965 74.0634 35.7591C74.7599 35.2217 75.2869 34.4952 75.5816 33.6663C80.074 21.8352 74.2689 8.48833 62.4387 3.9958C59.2575 2.82695 55.8504 2.40431 52.48 2.76047V2.76047Z" stroke="#090089" stroke-width="2" stroke-linejoin="round"/>
<path d="M20.0479 76.7415L9.72633 78.009L12.6568 69.5234L22.5793 69.5995L20.0479 76.7415Z" fill="#FA5987"/>
<path d="M20.0479 76.7415L9.72633 78.009L12.6568 69.5234L22.5793 69.5995L20.0479 76.7415Z" stroke="#090089" stroke-width="2" stroke-linejoin="round"/>
<path d="M76.3771 31.1433L66.9934 30.4226L67.9281 25.1027L77.0641 23.9662L76.3771 31.1433Z" fill="#FA5987"/>
<path d="M76.3771 31.1433L66.9934 30.4226L67.9281 25.1027L77.0641 23.9662L76.3771 31.1433Z" stroke="#090089" stroke-width="2" stroke-linejoin="round"/>
<path d="M73.1836 13.4939L65.4172 17.7102L60.4859 13.7807L69.6476 8.42532L73.1836 13.4939Z" fill="#FA5987"/>
<path d="M73.1836 13.4939L65.4172 17.7102L60.4859 13.7807L69.6476 8.42532L73.1836 13.4939Z" stroke="#090089" stroke-width="2" stroke-linejoin="round"/>
<path d="M26.0367 61.2264L15.4395 61.9093L18.2046 55.2783L28.4107 54.303L26.0367 61.2264Z" fill="#FA5987"/>
<path d="M26.0367 61.2264L15.4395 61.9093L18.2046 55.2783L28.4107 54.303L26.0367 61.2264Z" stroke="#090089" stroke-width="2" stroke-linejoin="round"/>
<path d="M31.707 46.5356L21.789 46.8483L24.2381 39.4406L34.7508 38.6485L31.707 46.5356Z" fill="#FA5987"/>
<path d="M31.707 46.5356L21.789 46.8483L24.2381 39.4406L34.7508 38.6485L31.707 46.5356Z" stroke="#090089" stroke-width="2" stroke-linejoin="round"/>
<path d="M38.0239 30.1707L28.0197 30.7531L30.6 24.0892L40.7452 23.1197L38.0239 30.1707Z" fill="#FA5987"/>
<path d="M38.0239 30.1707L28.0197 30.7531L30.6 24.0892L40.7452 23.1197L38.0239 30.1707Z" stroke="#090089" stroke-width="2" stroke-linejoin="round"/>
<path d="M43.1414 17.8957L34.6433 15.1283L39.1522 8.62701L50.2239 12.9398L43.1414 17.8957Z" fill="#FA5987"/>
<path d="M43.1414 17.8956L34.6433 15.1283L39.1522 8.62701L50.2239 12.9398L43.1414 17.8956Z" stroke="#090089" stroke-width="2" stroke-linejoin="round"/>
<path d="M59.6488 3.41993L59.2286 12.8926L52.0973 12.202L52.4804 2.76062L59.6488 3.41993Z" fill="#FA5987"/>
<path d="M59.6488 3.41993L59.2286 12.8926L52.0973 12.202L52.4804 2.76062L59.6488 3.41993Z" stroke="#090089" stroke-width="2" stroke-linejoin="round"/>
</svg>
