<svg width="160" height="107" viewBox="0 0 160 107" fill="none" xmlns="http://www.w3.org/2000/svg">
<path d="M58.4159 68.4704C59.4674 56.1447 70.2554 48.9976 71.9165 47.9702H90.0912C91.7523 48.9999 102.542 56.1453 103.593 68.4704C104.579 80.0391 96.9781 92.664 81.0056 106C65.0313 92.664 57.4322 80.0415 58.4176 68.4704" fill="#FAE670"/>
<path d="M58.4159 68.4704C59.4674 56.1447 70.2554 48.9976 71.9165 47.9702H90.0912C91.7523 48.9999 102.542 56.1453 103.593 68.4704C104.579 80.0391 96.9781 92.664 81.0056 106C65.0302 92.6635 57.431 80.0397 58.4159 68.4704Z" stroke="#090089" stroke-width="2" stroke-linejoin="round"/>
<path d="M1.0848 51.8901C2.13634 39.5644 12.9249 32.4172 14.5866 31.3899H32.7613C34.4224 32.4196 45.2121 39.565 46.2631 51.8901C47.2491 63.4594 39.6488 76.0837 23.6757 89.4197C7.70145 76.0837 0.102303 63.4612 1.08775 51.8901" fill="#FA5987"/>
<path d="M1.08478 51.8901C2.13632 39.5644 12.9249 32.4172 14.5866 31.3899H32.7613C34.4224 32.4196 45.2121 39.565 46.2631 51.8901C47.2491 63.4594 39.6488 76.0837 23.6757 89.4197C7.69908 76.0831 0.0999284 63.4594 1.08478 51.8901Z" stroke="#090089" stroke-width="2" stroke-linejoin="round"/>
<path d="M32.4438 24.4297H15.0887V31.2942H32.4438V24.4297Z" fill="#FA5987"/>
<path d="M32.4438 24.4297H15.0887V31.2942H32.4438V24.4297Z" stroke="#090089" stroke-width="2" stroke-linejoin="round"/>
<path d="M23.766 12.4875V24.4303" stroke="#090089" stroke-width="2" stroke-miterlimit="10"/>
<path d="M89.775 41.0103H72.4199V47.8747H89.775V41.0103Z" fill="#FAE670"/>
<path d="M89.775 41.0103H72.4199V47.8747H89.775V41.0103Z" stroke="#090089" stroke-width="2" stroke-linejoin="round"/>
<path d="M81.0966 29.0679V41.0107" stroke="#090089" stroke-width="2" stroke-miterlimit="10"/>
<path d="M113.665 52.2571C114.716 39.9313 125.506 32.7842 127.167 31.7568H145.338C146.999 32.7865 157.789 39.9319 158.84 52.2571C159.827 63.8263 152.226 76.4507 136.253 89.7866C120.278 76.4507 112.679 63.8281 113.665 52.2571Z" fill="#FCB8CC"/>
<path d="M113.665 52.2571C114.716 39.9313 125.506 32.7842 127.167 31.7568H145.338C146.999 32.7865 157.789 39.9319 158.84 52.2571C159.827 63.8263 152.226 76.4507 136.253 89.7866C120.282 76.4501 112.68 63.8263 113.665 52.2571Z" stroke="#090089" stroke-width="2" stroke-miterlimit="10"/>
<path d="M145.024 24.7969H127.67V31.6614H145.024V24.7969Z" fill="#FCB8CC"/>
<path d="M145.024 24.7969H127.67V31.6614H145.024V24.7969Z" stroke="#090089" stroke-width="2" stroke-miterlimit="10"/>
<path d="M136.346 12.8547V24.7975" stroke="#090089" stroke-width="2" stroke-miterlimit="10"/>
<path d="M4.39279 -4C46.6873 38.2945 115.506 38.2945 157.801 -4L159.207 -2.59441C116.138 40.4755 46.0559 40.4755 2.98779 -2.59441L4.39279 -4Z" fill="#090089"/>
</svg>
