<svg width="45" height="27" viewBox="0 0 45 27" fill="none" xmlns="http://www.w3.org/2000/svg">
<path d="M21.876 23.7072C16.285 23.0972 10.703 22.3592 5.09698 21.9322C2.34298 21.7222 1.13198 20.8722 1.79698 17.9582C2.18659 16.1845 2.38572 14.3742 2.39098 12.5582C2.41598 9.92119 3.52598 9.04419 6.09598 9.59819C10.664 10.5832 14.635 10.9492 16.579 4.92819C17.624 1.68819 21.424 0.553186 24.879 1.15419C28.311 1.75419 31.357 3.93419 31.555 7.44219C31.847 12.6002 34.945 13.3022 38.767 13.1282C44.243 12.8782 43.702 16.0902 43.173 19.7772C42.683 23.2012 43.128 26.7232 37.546 25.5322C32.426 24.4392 27.108 24.2802 21.876 23.7092V23.7072ZM28.894 10.5372C28.903 7.46619 27.432 5.09919 24.103 4.67419C21.132 4.29419 18.78 5.69019 18.194 8.88819C17.57 12.2972 19.166 14.5682 22.5 15.1802C25.856 15.7962 27.964 14.0912 28.894 10.5372Z" fill="#FAE670"/>
<path d="M21.876 23.7072C16.285 23.0972 10.703 22.3592 5.09698 21.9322C2.34298 21.7222 1.13198 20.8722 1.79698 17.9582C2.18659 16.1845 2.38572 14.3742 2.39098 12.5582C2.41598 9.92119 3.52598 9.04419 6.09598 9.59819C10.664 10.5832 14.635 10.9492 16.579 4.92819C17.624 1.68819 21.424 0.553186 24.879 1.15419C28.311 1.75419 31.357 3.93419 31.555 7.44219C31.847 12.6002 34.945 13.3022 38.767 13.1282C44.243 12.8782 43.702 16.0902 43.173 19.7772C42.683 23.2012 43.128 26.7232 37.546 25.5322C32.426 24.4372 27.108 24.2782 21.876 23.7072ZM28.894 10.5352C28.903 7.46419 27.432 5.09719 24.103 4.67219C21.132 4.29219 18.78 5.68819 18.194 8.88619C17.57 12.2952 19.166 14.5662 22.5 15.1782C25.851 15.7982 27.964 14.0892 28.894 10.5352V10.5352Z" stroke="#090089" stroke-width="2" stroke-linejoin="round"/>
</svg>
