<svg width="104" height="106" viewBox="0 0 104 106" fill="none" xmlns="http://www.w3.org/2000/svg">
<path d="M102.999 51.9995C102.999 62.0863 100.008 71.9465 94.4041 80.3333C88.8002 88.7201 80.8351 95.2569 71.5162 99.1169C62.1972 102.977 51.943 103.987 42.05 102.019C32.1571 100.051 23.0698 95.194 15.9374 88.0616C8.80502 80.9292 3.94779 71.8419 1.97996 61.949C0.0121371 52.0561 1.0221 41.8018 4.88213 32.4828C8.74216 23.1639 15.2789 15.1989 23.6657 9.59496C32.0525 3.99107 41.9128 1 51.9995 1C58.6969 0.999943 65.3287 2.31905 71.5163 4.88199C77.7038 7.44494 83.326 11.2015 88.0617 15.9373C92.7975 20.673 96.5541 26.2952 99.117 32.4828C101.68 38.6703 102.999 45.3021 102.999 51.9995Z" fill="white"/>
<path d="M51.9999 102.998C80.1659 102.998 102.999 80.1651 102.999 51.9991C102.999 23.8331 80.1659 1 51.9999 1C23.8339 1 1.00079 23.8331 1.00079 51.9991C1.00079 80.1651 23.8339 102.998 51.9999 102.998Z" stroke="#090089" stroke-width="2" stroke-linejoin="round"/>
<path d="M99.3501 104.825H4.65119C3.72548 104.825 2.83773 104.457 2.18319 103.802C1.52866 103.147 1.16095 102.26 1.16095 101.334V98.0864C1.16089 97.628 1.25113 97.1741 1.4265 96.7506C1.60188 96.3271 1.85896 95.9423 2.18307 95.6181C2.50717 95.294 2.89195 95.0368 3.31543 94.8614C3.73892 94.686 4.19281 94.5957 4.65119 94.5957H99.3501C99.8085 94.5956 100.262 94.6859 100.686 94.8613C101.11 95.0367 101.494 95.2938 101.818 95.618C102.143 95.9421 102.4 96.327 102.575 96.7505C102.751 97.174 102.841 97.628 102.841 98.0864V101.334C102.841 102.26 102.473 103.148 101.818 103.802C101.164 104.457 100.276 104.825 99.3501 104.825Z" fill="#FAE670"/>
<path d="M4.65163 94.5957H99.3488C100.274 94.5957 101.162 94.9634 101.817 95.618C102.471 96.2725 102.839 97.1603 102.839 98.0859V101.334C102.839 102.26 102.471 103.148 101.817 103.802C101.162 104.457 100.274 104.825 99.3488 104.825H4.65163C3.72584 104.825 2.83797 104.457 2.18334 103.802C1.52872 103.148 1.16095 102.26 1.16095 101.334V98.0864C1.16095 97.1606 1.52872 96.2727 2.18334 95.6181C2.83797 94.9635 3.72584 94.5957 4.65163 94.5957V94.5957Z" stroke="#090089" stroke-width="2" stroke-miterlimit="10"/>
<path d="M90.1703 94.5957H13.8292C12.9034 94.5957 12.0155 94.2279 11.3609 93.5733C10.7063 92.9186 10.3385 92.0308 10.3385 91.105V90.3105C10.3384 89.8521 10.4287 89.3981 10.6041 88.9746C10.7795 88.5511 11.0366 88.1662 11.3608 87.8421C11.6849 87.5179 12.0698 87.2608 12.4933 87.0854C12.9168 86.91 13.3708 86.8198 13.8292 86.8198H90.1703C90.6288 86.8198 91.0827 86.91 91.5062 87.0854C91.9298 87.2608 92.3146 87.5179 92.6388 87.8421C92.9629 88.1662 93.22 88.5511 93.3954 88.9746C93.5708 89.3981 93.6611 89.8521 93.661 90.3105V91.1063C93.661 92.0321 93.2933 92.9199 92.6386 93.5746C91.984 94.2292 91.0961 94.597 90.1703 94.597" fill="#FAE670"/>
<path d="M90.1703 86.8184H13.8292C11.9013 86.8184 10.3385 88.3812 10.3385 90.309V91.1048C10.3385 93.0327 11.9013 94.5955 13.8292 94.5955H90.1703C92.0982 94.5955 93.661 93.0327 93.661 91.1048V90.309C93.661 88.3812 92.0982 86.8184 90.1703 86.8184Z" stroke="#090089" stroke-width="2" stroke-miterlimit="10"/>
<path d="M56.3322 75.2461H48.7722V86.8469H56.3322V75.2461Z" fill="#FAE670"/>
<path d="M56.3322 75.2461H48.7722V86.8469H56.3322V75.2461Z" stroke="#090089" stroke-width="2" stroke-miterlimit="10"/>
<path d="M65.0874 62.5038L62.3851 58.9768H73.3571L62.6788 45.0388L58.2673 39.2835H68.2917L60.1465 28.6502L51.9996 18.0168L43.8531 28.6502L35.7066 39.2835H45.731L41.3217 45.0388L30.6429 58.9768H41.6149L38.9123 62.5038L25.8258 79.5844H78.1751L65.0874 62.5038Z" fill="#06CA99"/>
<path d="M63.4725 44.4304L60.2938 40.2835H68.2917H70.3174L69.0856 38.6754L60.9404 28.0421L60.9403 28.042L52.7934 17.4087L51.9996 16.3726L51.2058 17.4087L43.0593 28.042L34.9128 38.6754L33.6807 40.2835H35.7066H43.7051L40.5279 44.4306L29.8491 58.3686L28.617 59.9768H30.6429H39.5888L38.1185 61.8956L38.1185 61.8956L25.032 78.9762L23.7999 80.5844H25.8258H78.1751H80.2012L78.9689 78.9762L65.8812 61.8956L65.8811 61.8956L64.411 59.9768H73.3571H75.383L74.1509 58.3687L63.4726 44.4306L63.4725 44.4304Z" stroke="#090089" stroke-width="2" stroke-miterlimit="10"/>
<path d="M47.6263 13.1414L51.6802 15.2132L55.6851 13.0487L54.9675 17.5442L58.2633 20.6842L53.7658 21.3904L51.7983 25.4958L49.7366 21.437L45.2247 20.834L48.4478 17.619L47.6263 13.1414Z" fill="#FAE670"/>
<path d="M47.6263 13.1414L51.6802 15.2132L55.6851 13.0487L54.9675 17.5442L58.2633 20.6842L53.7658 21.3904L51.7983 25.4958L49.7366 21.437L45.2247 20.834L48.4478 17.619L47.6263 13.1414Z" stroke="#090089" stroke-linejoin="round"/>
<path d="M57.8879 32.6153C57.8879 33.143 57.7314 33.6589 57.4382 34.0976C57.1451 34.5364 56.7284 34.8784 56.2409 35.0803C55.7533 35.2822 55.2169 35.3351 54.6993 35.2321C54.1818 35.1292 53.7064 34.8751 53.3332 34.5019C52.9601 34.1288 52.706 33.6534 52.603 33.1358C52.5001 32.6183 52.5529 32.0818 52.7549 31.5943C52.9568 31.1068 53.2988 30.6901 53.7375 30.3969C54.1763 30.1037 54.6921 29.9473 55.2198 29.9473C55.9274 29.9473 56.6061 30.2284 57.1064 30.7287C57.6068 31.2291 57.8879 31.9077 57.8879 32.6153Z" fill="#005BFF"/>
<path d="M55.2198 35.2849C56.6934 35.2849 57.8879 34.0903 57.8879 32.6168C57.8879 31.1433 56.6934 29.9487 55.2198 29.9487C53.7463 29.9487 52.5518 31.1433 52.5518 32.6168C52.5518 34.0903 53.7463 35.2849 55.2198 35.2849Z" stroke="#090089" stroke-miterlimit="10"/>
<path d="M48.229 54.1378C48.229 54.6655 48.0725 55.1813 47.7794 55.6201C47.4862 56.0589 47.0695 56.4008 46.582 56.6028C46.0945 56.8047 45.558 56.8575 45.0404 56.7546C44.5229 56.6516 44.0475 56.3975 43.6743 56.0244C43.3012 55.6513 43.0471 55.1759 42.9442 54.6583C42.8412 54.1408 42.894 53.6043 43.096 53.1168C43.2979 52.6292 43.6399 52.2125 44.0787 51.9194C44.5174 51.6262 45.0333 51.4697 45.561 51.4697C46.2685 51.4698 46.9471 51.751 47.4474 52.2513C47.9478 52.7516 48.2289 53.4302 48.229 54.1378Z" fill="#005BFF"/>
<path d="M48.229 54.1378C48.229 54.6655 48.0725 55.1813 47.7794 55.6201C47.4862 56.0589 47.0695 56.4008 46.582 56.6028C46.0945 56.8047 45.558 56.8575 45.0404 56.7546C44.5229 56.6516 44.0475 56.3975 43.6743 56.0244C43.3012 55.6513 43.0471 55.1759 42.9442 54.6583C42.8412 54.1408 42.894 53.6043 43.096 53.1168C43.2979 52.6292 43.6399 52.2125 44.0787 51.9194C44.5174 51.6262 45.0333 51.4697 45.561 51.4697C46.2685 51.4698 46.9471 51.751 47.4474 52.2513C47.9478 52.7516 48.2289 53.4302 48.229 54.1378V54.1378Z" stroke="#090089" stroke-miterlimit="10"/>
<path d="M56.3324 45.058C56.3324 45.5858 56.176 46.1018 55.8828 46.5407C55.5896 46.9796 55.1729 47.3217 54.6853 47.5237C54.1976 47.7257 53.661 47.7786 53.1434 47.6756C52.6257 47.5727 52.1502 47.3185 51.7769 46.9453C51.4037 46.5721 51.1496 46.0966 51.0466 45.5789C50.9437 45.0612 50.9965 44.5246 51.1986 44.037C51.4006 43.5494 51.7427 43.1326 52.1816 42.8394C52.6205 42.5463 53.1365 42.3898 53.6643 42.3899C54.3719 42.3899 55.0505 42.671 55.5509 43.1714C56.0513 43.6717 56.3324 44.3503 56.3324 45.058Z" fill="#FA5987"/>
<path d="M56.3324 45.058C56.3325 45.5858 56.176 46.1018 55.8828 46.5407C55.5896 46.9796 55.1729 47.3217 54.6853 47.5237C54.1976 47.7257 53.661 47.7786 53.1434 47.6756C52.6257 47.5727 52.1502 47.3185 51.7769 46.9453C51.4037 46.5721 51.1496 46.0966 51.0466 45.5789C50.9437 45.0612 50.9965 44.5246 51.1986 44.037C51.4006 43.5494 51.7427 43.1326 52.1816 42.8394C52.6205 42.5463 53.1365 42.3898 53.6643 42.3899C54.3719 42.3899 55.0505 42.671 55.5509 43.1714C56.0513 43.6717 56.3324 44.3503 56.3324 45.058V45.058Z" stroke="#090089" stroke-linejoin="round"/>
<path d="M45.4294 73.4314C45.0036 73.743 44.495 73.9215 43.9678 73.944C43.4406 73.9666 42.9185 73.8324 42.4676 73.5583C42.0167 73.2842 41.6572 72.8825 41.4346 72.4041C41.2119 71.9256 41.1362 71.392 41.2169 70.8705C41.2975 70.349 41.5311 69.8631 41.8879 69.4744C42.2447 69.0856 42.7087 68.8114 43.2214 68.6863C43.734 68.5613 44.2723 68.5911 44.768 68.772C45.2637 68.9528 45.6947 69.2766 46.0064 69.7024C46.2134 69.9851 46.3626 70.3058 46.4456 70.6463C46.5287 70.9867 46.5438 71.3401 46.4903 71.6864C46.4367 72.0326 46.3154 72.365 46.1334 72.6644C45.9514 72.9638 45.7122 73.2244 45.4294 73.4314Z" fill="#FA5987"/>
<path d="M45.4294 73.4314C45.0036 73.743 44.495 73.9215 43.9678 73.944C43.4406 73.9666 42.9185 73.8324 42.4676 73.5583C42.0167 73.2842 41.6572 72.8825 41.4346 72.4041C41.2119 71.9256 41.1362 71.392 41.2169 70.8705C41.2975 70.349 41.5311 69.8631 41.8879 69.4744C42.2447 69.0856 42.7087 68.8114 43.2214 68.6863C43.734 68.5613 44.2723 68.5911 44.768 68.772C45.2637 68.9528 45.6947 69.2766 46.0064 69.7024C46.2134 69.9851 46.3626 70.3058 46.4456 70.6463C46.5287 70.9867 46.5438 71.3401 46.4903 71.6864C46.4367 72.0326 46.3154 72.365 46.1334 72.6644C45.9514 72.9638 45.7122 73.2244 45.4294 73.4314V73.4314Z" stroke="#090089" stroke-linejoin="round"/>
<path d="M60.0154 68.3725C59.5896 68.6842 59.081 68.8626 58.5538 68.8852C58.0266 68.9078 57.5045 68.7735 57.0536 68.4994C56.6027 68.2253 56.2432 67.8237 56.0206 67.3452C55.7979 66.8668 55.7222 66.3331 55.8029 65.8116C55.8835 65.2901 56.117 64.8043 56.4738 64.4155C56.8307 64.0268 57.2947 63.7525 57.8074 63.6275C58.3201 63.5025 58.8583 63.5323 59.354 63.7131C59.8497 63.894 60.2807 64.2178 60.5924 64.6435C60.7994 64.9263 60.9487 65.247 61.0318 65.5874C61.1148 65.9278 61.13 66.2813 61.0764 66.6276C61.0228 66.9738 60.9016 67.3062 60.7195 67.6056C60.5375 67.905 60.2982 68.1656 60.0154 68.3725Z" fill="#005BFF"/>
<path d="M60.0154 68.3725C59.5896 68.6842 59.081 68.8626 58.5538 68.8852C58.0266 68.9078 57.5045 68.7735 57.0536 68.4994C56.6027 68.2253 56.2432 67.8237 56.0206 67.3452C55.7979 66.8668 55.7222 66.3331 55.8029 65.8116C55.8835 65.2901 56.117 64.8043 56.4738 64.4155C56.8307 64.0268 57.2947 63.7525 57.8074 63.6275C58.3201 63.5025 58.8583 63.5323 59.354 63.7131C59.8497 63.894 60.2807 64.2178 60.5924 64.6435C60.7994 64.9263 60.9487 65.247 61.0318 65.5874C61.1148 65.9278 61.13 66.2813 61.0764 66.6276C61.0228 66.9738 60.9016 67.3062 60.7195 67.6056C60.5375 67.905 60.2982 68.1656 60.0154 68.3725V68.3725Z" stroke="#090089" stroke-miterlimit="10"/>
</svg>
