<svg width="273" height="118" viewBox="0 0 273 118" fill="none" xmlns="http://www.w3.org/2000/svg">
<g clip-path="url(#clip0)">
<path d="M259.609 1.38619L1.37592 45.0702L13.391 116.622L271.624 72.9376L259.609 1.38619Z" fill="white" stroke="#090089" stroke-width="3" stroke-miterlimit="10"/>
<path d="M32.4322 71.92L32.3924 76.288L35.1343 75.824L35.3734 77.24L32.3605 77.752L32.2967 83.152L30.7664 83.408L30.8301 78.008L27.5303 78.568L27.4666 83.968L25.9362 84.224L26 78.824L23.282 79.288L23.0429 77.872L26.0319 77.368L26.0717 73L23.2581 73.48L23.019 72.064L26.1036 71.544L26.1514 66.648L27.6818 66.392L27.6339 71.288L30.9338 70.728L30.9816 65.832L32.5119 65.576L32.4641 70.472L35.1103 70.024L35.3495 71.44L32.4322 71.92ZM30.9019 72.184L27.6021 72.744L27.5622 77.112L30.862 76.552L30.9019 72.184Z" fill="#090089"/>
<path d="M50.9319 74.208C51.5217 77.744 49.29 80.648 45.7191 81.256C42.1483 81.864 39.0876 79.848 38.4978 76.312C37.908 72.776 40.1397 69.872 43.7106 69.264C47.2734 68.664 50.3341 70.672 50.9319 74.208ZM41.5585 75.792C41.8853 77.72 43.4236 78.736 45.2489 78.424C47.0741 78.12 48.1741 76.648 47.8473 74.728C47.5205 72.8 46.0061 71.784 44.1808 72.088C42.3556 72.4 41.2317 73.872 41.5585 75.792Z" fill="#090089"/>
<path d="M62.3617 75.36L62.8001 77.992L53.0361 79.64L52.6296 77.224L57.2924 70.04L51.9043 70.952L51.4659 68.32L60.4966 66.792L60.8951 69.184L56.1925 76.4L62.3617 75.36Z" fill="#090089"/>
<path d="M75.2661 70.088C75.8559 73.624 73.6242 76.528 70.0533 77.136C66.4825 77.736 63.4218 75.728 62.832 72.192C62.2342 68.656 64.4739 65.752 68.0448 65.144C71.6156 64.544 74.6763 66.56 75.2661 70.088ZM65.8927 71.68C66.2195 73.608 67.7578 74.624 69.5831 74.312C71.4083 74 72.5083 72.536 72.1815 70.616C71.8547 68.688 70.3403 67.672 68.515 67.976C66.6977 68.28 65.5739 69.752 65.8927 71.68Z" fill="#090089"/>
<path d="M88.2581 66.536L89.4218 73.48L86.4328 73.984L85.3887 67.744C85.0778 65.912 84.0975 65.28 82.6468 65.528C81.1165 65.784 80.1759 66.872 80.5824 69.312L81.507 74.824L78.542 75.328L76.653 64.064L79.5941 63.568L79.881 65.272L79.9289 65.264C80.4629 63.848 81.5947 62.848 83.2446 62.568C85.6756 62.16 87.7002 63.224 88.2581 66.536Z" fill="#090089"/>
<path d="M104.191 73.768L91.7333 75.88L91.3427 73.536L103.801 71.424L104.191 73.768Z" fill="#090089"/>
<path d="M103.817 63.656C103.307 60.608 103.625 57.472 105.586 55.76C106.702 54.816 108.878 53.952 109.986 53.408C110.655 53.072 111.014 52.68 110.958 52.192L113.947 51.688C114.242 53.416 113.74 54.48 112.321 55.224C111.15 55.848 108.647 56.696 107.539 57.536C106.327 58.496 106.08 59.992 106.184 61.824L106.256 61.808C106.718 59.776 108.256 58.536 110.321 58.184C113.525 57.64 116.115 59.536 116.705 63.024C117.303 66.584 115.366 69.464 111.476 70.128C108.025 70.712 104.749 69.24 103.817 63.656ZM113.597 63.608C113.262 61.632 111.652 60.68 109.906 60.976C108.184 61.264 106.973 62.704 107.308 64.672C107.642 66.64 109.253 67.6 110.974 67.312C112.72 67.016 113.931 65.584 113.597 63.608Z" fill="#090089"/>
<path d="M118.116 57.048L121.081 56.544L122.229 63.368L122.276 63.36L126.326 55.656L129.02 55.2L130.909 66.464L127.92 66.968L126.772 60.144L126.732 60.152L122.683 67.856L120.013 68.304L118.116 57.048Z" fill="#090089"/>
<path d="M132.853 65.512L133.451 62.976C134.519 63.248 135.954 63.432 137.357 63.192C138.815 62.944 139.581 62.44 139.429 61.536C139.262 60.56 138.409 60.352 137.166 60.568L134.886 60.952L134.511 58.712L136.719 58.336C137.811 58.152 138.361 57.68 138.234 56.928C138.114 56.2 137.373 55.944 136.129 56.152C134.966 56.352 133.682 56.92 132.678 57.44L131.475 55.184C132.559 54.648 134.113 53.96 135.986 53.64C138.975 53.136 140.856 53.768 141.199 55.84C141.43 57.232 140.697 58.336 139.134 58.848L139.15 58.92C140.88 58.8 142.163 59.592 142.45 61.296C142.817 63.488 141.406 65.056 137.811 65.664C136.058 65.976 134.248 65.928 132.853 65.512Z" fill="#090089"/>
<path d="M154.31 50.928L156.199 62.192L153.21 62.696L152.453 58.208L147.519 59.04L148.276 63.528L145.311 64.032L143.422 52.768L146.387 52.264L147.065 56.312L151.999 55.48L151.321 51.432L154.31 50.928Z" fill="#090089"/>
<path d="M168.888 54.28L168.984 54.864L160.607 56.28C161.069 57.984 162.496 58.768 164.226 58.48C165.828 58.208 166.792 57.12 167.318 56.376L169.191 58.288C168.354 59.384 167.031 60.736 164.672 61.136C161.006 61.76 158.224 59.768 157.618 56.184C157.02 52.6 158.917 49.776 162.432 49.176C165.836 48.6 168.235 50.424 168.888 54.28ZM160.352 54.344L165.644 53.448C165.31 52.024 164.146 51.368 162.687 51.616C161.261 51.856 160.336 52.744 160.352 54.344Z" fill="#090089"/>
<path d="M170.514 53.976C169.909 50.368 172.085 47.544 175.703 46.936C177.234 46.68 178.541 46.856 179.824 47.392L178.947 50.072C178.142 49.736 177.234 49.56 176.221 49.728C174.372 50.04 173.256 51.56 173.575 53.456C173.894 55.36 175.448 56.424 177.289 56.112C178.31 55.936 179.107 55.48 179.76 54.896L181.458 57.144C180.414 58.072 179.242 58.672 177.712 58.928C174.093 59.536 171.12 57.584 170.514 53.976Z" fill="#090089"/>
<path d="M184.04 45.896L186.424 45.496L189.604 50.6L189.652 50.592L190.991 44.728L193.374 44.328L198.547 55.032L195.606 55.528L192.625 48.936L192.577 48.944L191.302 54.576L189.357 54.904L186.312 50.008L186.264 50.016L185.603 57.224L182.661 57.72L184.04 45.896Z" fill="#090089"/>
<path d="M209.642 47.3839L209.738 47.9679L201.361 49.3839C201.823 51.0879 203.25 51.8719 204.979 51.5759C206.581 51.3039 207.546 50.2159 208.072 49.4719L209.945 51.3839C209.108 52.4799 207.785 53.8319 205.426 54.2319C201.759 54.8559 198.977 52.8639 198.372 49.2799C197.774 45.6959 199.671 42.8719 203.186 42.2719C206.597 41.7039 208.996 43.5279 209.642 47.3839ZM201.113 47.4479L206.406 46.5519C206.071 45.1279 204.907 44.4719 203.449 44.7199C202.022 44.9599 201.097 45.8399 201.113 47.4479Z" fill="#090089"/>
<path d="M220.083 39.8L221.972 51.064L219.007 51.568L218.338 47.592L215.014 48.152C212.655 48.552 211.053 47.768 210.614 45.16L210.001 41.504L212.99 41L213.555 44.368C213.715 45.296 214.161 45.592 215.134 45.432L217.899 44.96L217.118 40.304L220.083 39.8Z" fill="#090089"/>
<path d="M232.852 40.416L229.114 41.048L230.549 49.6L227.56 50.104L226.125 41.552L222.387 42.184L221.932 39.48L232.398 37.712L232.852 40.416Z" fill="#090089"/>
<path d="M245.358 43.144C245.757 45.536 244.378 47.272 241.827 47.704L236.144 48.664L234.255 37.4L237.22 36.896L237.818 40.48L240.536 40.016C243.086 39.592 244.944 40.68 245.358 43.144ZM242.297 43.688C242.146 42.76 241.484 42.4 240.464 42.568L238.232 42.944L238.695 45.696L240.926 45.32C241.947 45.152 242.449 44.584 242.297 43.688ZM248.14 35.048L250.029 46.312L247.064 46.816L245.175 35.552L248.14 35.048Z" fill="#090089"/>
<path d="M104.725 36.144C96.7308 38.072 88.6965 39.816 80.7738 42C76.8841 43.072 74.7958 42.496 74.2777 38.144C73.9669 35.52 73.2974 32.896 72.4286 30.392C71.1612 26.736 72.2532 24.976 76.0631 24.472C82.8302 23.568 88.4733 22.112 88.1784 12.832C88.019 7.84003 92.6818 4.39203 97.7272 3.51203C102.741 2.64003 108.009 4.14403 110.01 8.88803C112.959 15.864 117.566 15.304 122.731 13.168C130.135 10.112 130.98 14.816 132.072 20.168C133.085 25.136 135.436 29.776 127.17 30.896C119.598 31.928 112.202 34.336 104.725 36.144ZM107.882 14.488C106.383 10.248 103.187 7.70403 98.3967 8.76803C94.1245 9.71203 91.5739 12.808 92.347 17.512C93.168 22.528 96.4837 24.872 101.37 24.064C106.296 23.248 108.36 19.848 107.882 14.488Z" fill="#FA5987" stroke="#090089" stroke-width="3" stroke-miterlimit="10" stroke-linejoin="round"/>
</g>
<defs>
<clipPath id="clip0">
<rect width="273" height="118" fill="white"/>
</clipPath>
</defs>
</svg>
