<svg width="85" height="90" viewBox="0 0 85 90" fill="none" xmlns="http://www.w3.org/2000/svg">
<path d="M84.8448 18.4317L12.4302 12.2728L5.92092 83.2055L78.3355 89.3643L84.8448 18.4317Z" fill="#FA5987"/>
<path d="M79.9734 13.3774L8.43994 7.29346L1.99993 77.4716L73.5334 83.5555L79.9734 13.3774Z" fill="white" stroke="#090089" stroke-width="2" stroke-miterlimit="10"/>
<path d="M49.0395 20.1939C54.3245 20.1939 58.6088 16.0693 58.6088 10.9815C58.6088 5.89358 54.3245 1.76904 49.0395 1.76904C43.7545 1.76904 39.4702 5.89358 39.4702 10.9815C39.4702 16.0693 43.7545 20.1939 49.0395 20.1939Z" fill="#FAE670" stroke="#090089" stroke-width="2" stroke-miterlimit="10" stroke-linejoin="round"/>
<path fill-rule="evenodd" clip-rule="evenodd" d="M28.3271 70.3798C29.0864 70.7544 29.9255 70.9526 30.7779 70.9587C31.5327 70.9841 32.2802 70.8084 32.9388 70.4508C33.5974 70.0933 34.1417 69.5676 34.5124 68.9312L40.4535 58.7153C40.5343 58.5784 40.6511 58.4646 40.7919 58.3852C40.9327 58.3058 41.0927 58.2638 41.2556 58.2632C41.4189 58.2638 41.579 58.3066 41.7194 58.3871C41.8598 58.4677 41.9754 58.5831 42.0542 58.7214L47.9103 68.9146C48.2632 69.5436 48.7883 70.0666 49.4281 70.4264C50.0679 70.7862 50.7977 70.9688 51.5376 70.9544C52.3981 70.9443 53.2434 70.7343 54.0024 70.3422C54.5167 70.1067 54.9761 69.7725 55.3525 69.3598C55.7289 68.9471 56.0145 68.4646 56.1918 67.9417C56.3393 67.4312 56.3774 66.8969 56.304 66.3716C56.2305 65.8463 56.0469 65.341 55.7645 64.8866L47.8248 51.1609C47.747 51.0259 47.707 50.8735 47.7088 50.719C47.7106 50.5644 47.7541 50.413 47.835 50.2797C47.9159 50.1463 48.0314 50.0358 48.1701 49.9589C48.3087 49.882 48.4658 49.8414 48.6256 49.8413H55.2111C56.4065 49.8109 57.5425 49.3303 58.3769 48.502C59.2114 47.6736 59.6783 46.5629 59.6783 45.4064C59.6783 44.25 59.2114 43.1393 58.3769 42.3109C57.5425 41.4826 56.4065 41.002 55.2111 40.9716H45.0028C44.7992 40.9717 44.6015 40.9063 44.4406 40.7857C44.2797 40.6652 44.1648 40.4963 44.114 40.3057C44.0633 40.115 44.0795 39.9135 44.1602 39.7328C44.2409 39.5521 44.3814 39.4025 44.5597 39.3074C47.8967 37.5283 49.7375 34.7963 49.7375 31.6158C49.7447 30.5173 49.5271 29.4284 49.0972 28.4117C48.6673 27.3949 48.0336 26.4705 47.2326 25.6916C46.4316 24.9128 45.4791 24.2949 44.43 23.8735C43.381 23.4522 42.2561 23.2358 41.1202 23.2367C39.9842 23.2376 38.8597 23.4559 37.8114 23.8789C36.7631 24.302 35.8117 24.9214 35.012 25.7016C34.2124 26.4817 33.5803 27.4072 33.1521 28.4246C32.724 29.442 32.5083 30.5313 32.5174 31.6298C32.5174 34.8016 34.3559 37.5283 37.6957 39.3074C37.874 39.4025 38.0145 39.5521 38.0952 39.7328C38.1758 39.9135 38.1921 40.115 38.1413 40.3057C38.0906 40.4963 37.9757 40.6652 37.8148 40.7857C37.6539 40.9063 37.4561 40.9717 37.2526 40.9716H27.0429C25.8475 41.002 24.7115 41.4826 23.8771 42.3109C23.0426 43.1393 22.5757 44.25 22.5757 45.4064C22.5757 46.5629 23.0426 47.6736 23.8771 48.502C24.7115 49.3303 25.8475 49.8109 27.0429 49.8413H34.0435C34.2043 49.8413 34.3622 49.8822 34.5014 49.9599C34.6407 50.0376 34.7564 50.1493 34.8369 50.2839C34.9174 50.4184 34.96 50.5711 34.9602 50.7266C34.9605 50.882 34.9185 51.0348 34.8384 51.1696L26.6925 64.8963C25.468 67.0287 26.9769 69.3199 28.3271 70.3798Z" fill="#FAE670"/>
<path d="M28.3271 70.3798C29.0864 70.7544 29.9255 70.9526 30.7779 70.9587C31.5327 70.9841 32.2802 70.8084 32.9388 70.4508C33.5974 70.0932 34.1417 69.5676 34.5124 68.9312L40.4535 58.7153C40.5343 58.5784 40.6511 58.4646 40.7919 58.3852C40.9327 58.3058 41.0927 58.2638 41.2556 58.2632C41.4189 58.2638 41.579 58.3066 41.7194 58.3871C41.8598 58.4677 41.9754 58.5831 42.0542 58.7214L47.9103 68.9146C48.2632 69.5436 48.7883 70.0666 49.4281 70.4264C50.0679 70.7862 50.7977 70.9688 51.5376 70.9544C52.3981 70.9443 53.2434 70.7343 54.0024 70.3422C54.5167 70.1067 54.9761 69.7725 55.3525 69.3598C55.7289 68.9471 56.0145 68.4646 56.1918 67.9417C56.3393 67.4312 56.3774 66.8969 56.304 66.3716C56.2305 65.8463 56.0469 65.341 55.7645 64.8866L47.8248 51.1609C47.747 51.0259 47.707 50.8735 47.7088 50.719C47.7106 50.5644 47.7541 50.413 47.835 50.2797C47.9159 50.1463 48.0314 50.0358 48.1701 49.9589C48.3087 49.882 48.4658 49.8414 48.6256 49.8413H55.2111C56.4065 49.8109 57.5425 49.3303 58.3769 48.502C59.2114 47.6736 59.6783 46.5629 59.6783 45.4064C59.6783 44.25 59.2114 43.1393 58.3769 42.3109C57.5425 41.4826 56.4065 41.002 55.2111 40.9716H45.0028C44.7992 40.9717 44.6015 40.9063 44.4406 40.7857C44.2797 40.6652 44.1648 40.4963 44.114 40.3057C44.0633 40.115 44.0795 39.9135 44.1602 39.7328C44.2409 39.5521 44.3814 39.4025 44.5597 39.3074C47.8967 37.5283 49.7375 34.7963 49.7375 31.6158C49.7447 30.5173 49.5271 29.4284 49.0972 28.4117C48.6673 27.3949 48.0336 26.4705 47.2326 25.6916C46.4316 24.9128 45.4791 24.2949 44.43 23.8735C43.381 23.4522 42.2561 23.2358 41.1202 23.2367C39.9842 23.2376 38.8597 23.4559 37.8114 23.8789C36.7631 24.302 35.8117 24.9214 35.012 25.7016C34.2124 26.4817 33.5803 27.4072 33.1521 28.4246C32.724 29.442 32.5083 30.5313 32.5174 31.6298C32.5174 34.8016 34.3559 37.5283 37.6957 39.3074C37.874 39.4025 38.0145 39.5521 38.0952 39.7328C38.1758 39.9135 38.1921 40.115 38.1413 40.3057C38.0906 40.4963 37.9757 40.6652 37.8148 40.7857C37.6539 40.9063 37.4561 40.9717 37.2526 40.9716H27.0429C25.8475 41.002 24.7115 41.4826 23.8771 42.3109C23.0426 43.1393 22.5757 44.25 22.5757 45.4064C22.5757 46.5629 23.0426 47.6736 23.8771 48.502C24.7115 49.3303 25.8475 49.8109 27.0429 49.8413H34.0435C34.2043 49.8413 34.3622 49.8822 34.5014 49.9599C34.6407 50.0376 34.7564 50.1493 34.8369 50.2839C34.9174 50.4184 34.96 50.5711 34.9602 50.7266C34.9605 50.882 34.9185 51.0348 34.8384 51.1696L26.6925 64.8963C25.4689 67.0292 26.9769 69.3199 28.3271 70.3798Z" stroke="#090089" stroke-width="1.5" stroke-linejoin="round"/>
<path d="M36.4351 32.3486C36.4351 32.3486 41.0531 37.3307 45.819 32.3486" stroke="#090089" stroke-width="1.5" stroke-miterlimit="10"/>
<path fill-rule="evenodd" clip-rule="evenodd" d="M39.8865 28.9446C39.8866 29.165 39.8191 29.3805 39.6926 29.5637C39.566 29.747 39.3861 29.8899 39.1755 29.9743C38.965 30.0587 38.7333 30.0808 38.5097 30.0378C38.2862 29.9948 38.0809 29.8887 37.9197 29.7328C37.7586 29.577 37.6488 29.3785 37.6044 29.1623C37.56 28.9461 37.5828 28.7221 37.6701 28.5185C37.7573 28.3149 37.9051 28.1409 38.0946 28.0185C38.2841 27.8961 38.5069 27.8308 38.7349 27.8309C39.0403 27.831 39.3331 27.9484 39.5491 28.1572C39.765 28.3661 39.8864 28.6493 39.8865 28.9446Z" fill="#090089"/>
<path fill-rule="evenodd" clip-rule="evenodd" d="M44.5552 28.9446C44.5553 29.165 44.4878 29.3804 44.3613 29.5637C44.2347 29.747 44.0548 29.8898 43.8443 29.9742C43.6338 30.0586 43.4021 30.0808 43.1786 30.0378C42.9551 29.9949 42.7498 29.8888 42.5886 29.733C42.4274 29.5772 42.3176 29.3787 42.2731 29.1626C42.2287 28.9464 42.2514 28.7224 42.3386 28.5188C42.4258 28.3152 42.5735 28.1412 42.763 28.0187C42.9524 27.8963 43.1752 27.8309 43.4031 27.8309C43.7086 27.831 44.0015 27.9484 44.2175 28.1572C44.4335 28.366 44.555 28.6492 44.5552 28.9446Z" fill="#090089"/>
<path d="M43.4094 44.9042C43.4095 45.3408 43.2757 45.7676 43.0249 46.1306C42.7741 46.4936 42.4177 46.7766 42.0006 46.9437C41.5835 47.1109 41.1246 47.1546 40.6818 47.0695C40.239 46.9844 39.8322 46.7742 39.5129 46.4655C39.1937 46.1569 38.9762 45.7636 38.8881 45.3354C38.8 44.9072 38.8452 44.4634 39.0179 44.0601C39.1907 43.6567 39.4833 43.312 39.8586 43.0694C40.234 42.8269 40.6753 42.6974 41.1268 42.6974C41.4265 42.6973 41.7233 42.7544 42.0003 42.8652C42.2772 42.9761 42.5288 43.1387 42.7408 43.3436C42.9528 43.5485 43.1209 43.7918 43.2356 44.0596C43.3503 44.3274 43.4094 44.6144 43.4094 44.9042Z" fill="#FA5987"/>
<path d="M43.4094 44.9042C43.4095 45.3408 43.2757 45.7676 43.0249 46.1306C42.7741 46.4936 42.4177 46.7766 42.0006 46.9437C41.5835 47.1109 41.1246 47.1546 40.6818 47.0695C40.239 46.9844 39.8322 46.7742 39.5129 46.4655C39.1937 46.1569 38.9762 45.7636 38.8881 45.3354C38.8 44.9072 38.8452 44.4634 39.0179 44.0601C39.1907 43.6567 39.4833 43.312 39.8586 43.0694C40.234 42.8269 40.6753 42.6974 41.1268 42.6974C41.4265 42.6973 41.7233 42.7544 42.0003 42.8652C42.2772 42.9761 42.5288 43.1387 42.7408 43.3436C42.9528 43.5485 43.1209 43.7918 43.2356 44.0596C43.3503 44.3274 43.4094 44.6144 43.4094 44.9042V44.9042Z" stroke="#090089" stroke-width="1.5" stroke-linejoin="round"/>
<path d="M43.4094 52.0432C43.4095 52.4798 43.2757 52.9066 43.0249 53.2696C42.7741 53.6327 42.4177 53.9156 42.0006 54.0828C41.5835 54.2499 41.1246 54.2937 40.6818 54.2086C40.239 54.1234 39.8322 53.9133 39.5129 53.6046C39.1937 53.2959 38.9762 52.9026 38.8881 52.4744C38.8 52.0463 38.8452 51.6024 39.0179 51.1991C39.1907 50.7958 39.4833 50.451 39.8586 50.2084C40.234 49.9659 40.6753 49.8364 41.1268 49.8364C41.4265 49.8364 41.7233 49.8934 42.0003 50.0043C42.2772 50.1152 42.5288 50.2777 42.7408 50.4826C42.9528 50.6876 43.1209 50.9309 43.2356 51.1986C43.3503 51.4664 43.4094 51.7534 43.4094 52.0432Z" fill="#FA5987"/>
<path d="M43.4094 52.0432C43.4095 52.4798 43.2757 52.9066 43.0249 53.2696C42.7741 53.6327 42.4177 53.9157 42.0006 54.0828C41.5835 54.2499 41.1246 54.2937 40.6818 54.2086C40.239 54.1234 39.8322 53.9133 39.5129 53.6046C39.1937 53.2959 38.9762 52.9026 38.8881 52.4744C38.8 52.0463 38.8452 51.6024 39.0179 51.1991C39.1907 50.7958 39.4833 50.451 39.8586 50.2084C40.234 49.9659 40.6753 49.8364 41.1268 49.8364C41.4265 49.8364 41.7233 49.8934 42.0003 50.0043C42.2772 50.1152 42.5288 50.2777 42.7408 50.4826C42.9528 50.6876 43.1209 50.9309 43.2356 51.1986C43.3503 51.4664 43.4094 51.7534 43.4094 52.0432V52.0432Z" stroke="#090089" stroke-width="1.5" stroke-linejoin="round"/>
<path d="M28.2056 40.9712V49.836" stroke="#090089" stroke-width="1.5" stroke-linejoin="round"/>
<path d="M54.1777 40.9712V49.836" stroke="#090089" stroke-width="1.5" stroke-linejoin="round"/>
<path d="M55.1527 63.7577L47.019 67.8469" stroke="#090089" stroke-width="1.5" stroke-linejoin="round"/>
<path d="M27.323 63.434L35.4567 67.5231" stroke="#090089" stroke-width="1.5" stroke-linejoin="round"/>
</svg>
