<svg width="834" height="753" viewBox="0 0 834 753" fill="none" xmlns="http://www.w3.org/2000/svg">
<path fill-rule="evenodd" clip-rule="evenodd" d="M713.036 713.912C712.367 710.513 711.617 707.263 711.094 703.98C709.941 696.675 708.882 689.352 707.807 682.037C707.762 681.715 707.799 681.371 707.801 680.849C708.496 681.187 709.06 681.401 709.564 681.709C715.958 685.497 722.557 688.862 729.513 691.526C732.858 692.81 736.202 694.094 739.542 695.39C740.247 695.667 741.127 695.739 741.367 696.87C741.091 697.179 740.798 697.635 740.391 697.923C738.274 699.371 736.186 700.88 733.992 702.198C729.128 705.098 724.219 707.918 719.309 710.738C717.622 711.702 715.895 712.602 714.176 713.516C713.875 713.651 713.546 713.724 713.036 713.912Z" fill="#FAE670"/>
<path fill-rule="evenodd" clip-rule="evenodd" d="M779.832 702.419C783.84 702.223 787.334 702.122 790.811 701.863C794.394 701.591 797.986 701.258 801.552 700.789C805.024 700.338 808.462 699.67 811.889 699.101C812.425 699.699 811.927 700.132 811.733 700.559C809.541 705.209 807.02 709.69 804.433 714.148C802.656 717.216 801.045 720.381 799.342 723.488C798.839 724.415 798.296 725.315 797.688 726.358C797.142 725.959 796.666 725.713 796.349 725.345C795.23 724.004 794.1 722.659 793.116 721.225C791.743 719.208 790.481 717.09 789.191 715.014C786.783 711.15 784.176 707.419 781.106 704.058C780.774 703.659 780.477 703.235 779.832 702.419Z" fill="#FAE670"/>
<path fill-rule="evenodd" clip-rule="evenodd" d="M776.04 702.189C775.921 702.618 775.915 702.908 775.763 703.083C769.44 710.738 763.11 718.377 756.647 726.173C756.218 725.663 755.793 725.346 755.619 724.927C754.627 722.587 753.593 720.258 752.776 717.854C751.609 714.446 750.643 710.97 749.547 707.537C748.776 705.111 747.905 702.713 747.092 700.297C746.877 699.647 746.681 698.979 746.482 698.323C747.411 697.777 748.117 698.321 748.819 698.534C754.45 700.19 760.195 701.364 766.064 701.82C768.683 702.017 771.312 702.015 773.946 702.103C774.606 702.122 775.272 702.157 776.04 702.189Z" fill="#FA5987"/>
<path fill-rule="evenodd" clip-rule="evenodd" d="M679.387 660.478C679.69 660.752 680.026 661 680.305 661.303C684.428 665.741 689.2 669.368 694.333 672.525C697.3 674.349 700.271 676.161 703.238 677.985C703.506 678.145 703.758 678.349 704.221 678.667C703.002 679.556 701.717 679.529 700.656 680.092C699.575 680.673 698.402 681.094 697.255 681.549C696.195 681.972 695.099 682.319 694.046 682.757C692.898 683.213 691.772 683.714 690.652 684.23C689.528 684.758 688.43 685.32 687.338 685.897C686.246 686.474 685.176 687.097 684.109 687.709C683.112 688.269 682.118 688.855 681.113 689.4C680.037 689.97 679.012 690.673 677.658 691.042C677.54 690.503 677.362 690.096 677.379 689.707C677.435 688.213 677.567 686.72 677.65 685.222C678.055 677.655 678.434 670.09 678.855 662.516C678.907 661.859 678.632 661.099 679.387 660.478Z" fill="#FA5987"/>
<path fill-rule="evenodd" clip-rule="evenodd" d="M832.159 691.463C829.76 693.675 826.958 694.783 824.144 695.747C821.312 696.729 818.363 697.337 815.158 698.199C814.297 699.797 813.176 701.623 812.292 703.558C810.654 707.144 808.602 710.479 806.683 713.899C804.453 717.861 802.327 721.886 800.137 725.875C799.797 726.496 799.43 727.12 798.98 727.662C798.321 728.463 797.489 728.6 796.614 728.057C796.028 727.693 795.439 727.265 795.001 726.737C793.758 725.268 792.493 723.792 791.408 722.2C789.917 720.029 788.58 717.746 787.178 715.504C784.846 711.764 782.302 708.192 779.419 704.856C779.038 704.413 778.588 704.021 778.063 703.488C775.975 705.991 773.974 708.359 771.998 710.761C767.76 715.936 763.555 721.124 759.317 726.299C758.753 726.98 758.144 727.645 757.466 728.222C756.579 728.992 755.644 728.926 754.896 728.069C754.381 727.476 753.959 726.8 753.583 726.102C752.203 723.522 751.209 720.786 750.39 717.985C749.268 714.077 748.203 710.151 747.04 706.254C746.307 703.804 745.449 701.385 744.617 698.963C744.428 698.409 744.129 697.88 743.918 697.421C743.11 697.285 742.789 697.784 742.453 698.15C740.443 700.335 738.083 702.063 735.535 703.544C728.924 707.371 722.302 711.194 715.703 715.025C714.774 715.563 713.9 716.158 712.997 716.731C711.813 717.484 711.312 717.267 711.043 715.827C710.6 713.48 710.199 711.123 709.772 708.769C708.877 703.893 708.153 699.001 707.694 694.038C707.323 690.08 706.522 686.158 705.89 682.221C705.837 681.883 705.686 681.572 705.563 681.183C704.164 681.143 702.916 681.553 701.687 682.086C700.381 682.655 699.082 683.239 697.753 683.698C693.462 685.182 689.415 687.175 685.478 689.451C683.782 690.431 682.091 691.4 680.367 692.318C679.673 692.697 678.925 693.018 678.162 693.205C676.978 693.511 676.003 692.931 675.802 691.72C675.636 690.689 675.642 689.603 675.71 688.552C675.874 685.719 676.14 682.884 676.319 680.043C676.703 674.192 677.049 668.34 677.421 662.484C677.507 661.248 677.656 660.009 677.792 658.637C676.301 656.325 674.729 653.894 673.171 651.455C672.842 650.941 672.52 650.403 672.283 649.845C672.205 649.676 672.324 649.284 672.474 649.184C672.654 649.069 673.072 649.065 673.188 649.196C673.769 649.852 674.331 650.527 674.796 651.256C676.67 654.141 678.676 656.907 680.995 659.438C684.462 663.213 688.325 666.528 692.668 669.184C700.137 673.751 707.673 678.24 715.274 682.586C720.679 685.685 726.386 688.202 732.248 690.326C737.033 692.051 741.811 693.826 746.658 695.381C755.478 698.219 764.526 699.743 773.863 699.681C785.504 699.6 797.088 698.743 808.661 697.294C809.625 697.178 810.57 696.94 811.513 696.741C812.552 696.524 813.576 696.174 814.619 696.048C819.03 695.477 823.234 694.128 827.409 692.616C828.658 692.167 829.928 691.765 831.19 691.385C831.497 691.341 831.836 691.449 832.159 691.463ZM712.966 714.224C713.476 714.036 713.806 713.962 714.101 713.812C715.825 712.893 717.552 712.001 719.248 711.022C724.17 708.19 729.103 705.362 733.967 702.445C736.167 701.121 738.268 699.621 740.383 698.151C740.787 697.874 741.069 697.412 741.362 697.094C741.121 695.959 740.25 695.89 739.532 695.608C736.183 694.306 732.83 693.017 729.477 691.727C722.508 689.04 715.888 685.672 709.478 681.868C708.957 681.566 708.407 681.344 707.711 681.005C707.708 681.529 707.66 681.869 707.717 682.197C708.805 689.548 709.855 696.898 711.012 704.235C711.543 707.547 712.295 710.811 712.966 714.224ZM779.652 702.112C780.31 702.936 780.597 703.359 780.938 703.737C784.016 707.129 786.637 710.87 789.055 714.755C790.36 716.847 791.62 718.962 792.994 721.002C793.978 722.455 795.116 723.797 796.239 725.145C796.554 725.527 797.036 725.763 797.583 726.164C798.178 725.123 798.739 724.21 799.244 723.278C800.942 720.149 802.559 716.966 804.354 713.885C806.947 709.413 809.477 704.905 811.682 700.218C811.877 699.788 812.377 699.353 811.839 698.751C808.399 699.324 804.948 699.995 801.462 700.45C797.882 700.921 794.277 701.256 790.681 701.53C787.182 701.813 783.674 701.914 779.652 702.112ZM775.964 702.187C775.194 702.154 774.525 702.119 773.852 702.096C771.22 702.011 768.566 702.021 765.941 701.811C760.051 701.353 754.296 700.176 748.633 698.507C747.929 698.293 747.216 697.757 746.287 698.294C746.488 698.955 746.673 699.622 746.9 700.28C747.716 702.709 748.579 705.116 749.364 707.56C750.463 711.012 751.433 714.507 752.605 717.933C753.425 720.351 754.463 722.693 755.458 725.046C755.644 725.471 756.07 725.79 756.49 726.298C762.98 718.448 769.329 710.778 775.675 703.081C775.839 702.909 775.845 702.617 775.964 702.187ZM679.49 660.691C678.727 661.327 679.008 662.08 678.974 662.759C678.556 670.364 678.171 677.981 677.764 685.59C677.681 687.095 677.549 688.597 677.492 690.099C677.472 690.501 677.654 690.899 677.772 691.44C679.132 691.07 680.16 690.363 681.24 689.79C682.259 689.246 683.246 688.652 684.247 688.089C685.328 687.478 686.403 686.852 687.487 686.268C688.583 685.687 689.685 685.122 690.813 684.592C691.93 684.057 693.067 683.569 694.219 683.111C695.287 682.674 696.375 682.322 697.439 681.896C698.591 681.438 699.768 681.015 700.852 680.431C701.91 679.85 703.208 679.892 704.43 678.999C703.966 678.679 703.709 678.485 703.444 678.313C700.466 676.479 697.484 674.657 694.507 672.823C689.356 669.649 684.567 666.002 680.429 661.539C680.131 661.215 679.793 660.966 679.49 660.691Z" fill="#090089"/>
<path d="M72.3609 682.569C70.1828 680.87 68.487 678.631 67.4397 676.072C66.3924 673.512 66.0298 670.721 66.3873 667.97C66.8865 662.668 68.2397 657.434 69.3473 652.197C69.9146 649.516 70.8964 646.918 71.4305 644.232C71.5223 642.927 71.4444 641.618 71.1986 640.335C69.8748 640.362 68.559 640.56 67.2838 640.923C61.4341 643.431 55.71 646.24 49.818 648.636C47.2569 649.634 44.5667 650.256 41.8316 650.481C31.9364 651.397 23.955 644.896 23.738 634.972C23.6138 629.342 24.9964 623.635 26.0092 618.017C26.6033 614.719 28.0381 611.566 28.6271 608.267C28.8421 606.61 28.4821 604.932 27.6074 603.515C24.8472 599.203 25.2636 595.11 29.171 591.944C32.5598 589.198 36.832 589.74 40.16 593.296C44.6565 598.105 45.5221 603.915 44.189 610.037C43.2388 614.402 41.5432 618.605 40.2401 622.9C39.5895 625.047 38.9548 627.212 38.5182 629.408C37.6412 633.822 38.8366 634.917 42.9319 633.253C46.861 631.658 50.5835 629.547 54.5309 628.006C58.698 626.377 62.9304 624.606 67.2943 623.859C78.272 621.982 87.1879 629.481 87.1415 640.638C87.1204 645.298 85.8271 649.984 84.8908 654.615C84.0757 658.645 82.8096 662.587 82.0061 666.618C81.4315 669.485 82.9163 670.746 85.6722 669.68C89.0418 668.377 92.2517 666.669 95.6111 665.323C99.9617 663.451 104.408 661.815 108.932 660.42C111.401 659.679 114.004 659.511 116.542 659.928C119.08 660.345 121.485 661.335 123.577 662.825C127.477 665.522 128.436 669.621 126.139 673.615C123.938 677.455 119.736 678.474 115.437 676.785C113.556 676.06 111.482 675.992 109.55 676.59C105.705 678.007 102.191 680.325 98.3658 681.813C93.9897 683.597 89.4762 685.019 84.8712 686.063C82.6529 686.531 80.3578 686.458 78.1801 685.849C76.0024 685.241 74.0063 684.116 72.3609 682.569Z" fill="#FA5987"/>
<path d="M72.3609 682.569C70.1828 680.87 68.487 678.631 67.4397 676.072C66.3924 673.512 66.0298 670.721 66.3873 667.97C66.8865 662.668 68.2397 657.434 69.3473 652.197C69.9146 649.516 70.8964 646.918 71.4305 644.232C71.5223 642.927 71.4444 641.618 71.1986 640.335C69.8748 640.362 68.559 640.56 67.2838 640.923C61.4341 643.431 55.71 646.24 49.818 648.636C47.2569 649.634 44.5667 650.256 41.8316 650.481C31.9364 651.397 23.955 644.896 23.738 634.972C23.6138 629.342 24.9964 623.635 26.0092 618.017C26.6033 614.719 28.0381 611.566 28.6271 608.267C28.8421 606.61 28.4821 604.932 27.6074 603.515C24.8472 599.203 25.2636 595.11 29.171 591.944C32.5598 589.198 36.832 589.739 40.16 593.296C44.6565 598.105 45.5221 603.915 44.189 610.037C43.2388 614.402 41.5432 618.605 40.2401 622.9C39.5895 625.047 38.9548 627.212 38.5182 629.408C37.6412 633.822 38.8366 634.917 42.9319 633.253C46.861 631.658 50.5835 629.547 54.5309 628.006C58.698 626.377 62.9304 624.606 67.2943 623.859C78.272 621.982 87.1879 629.481 87.1415 640.638C87.1204 645.298 85.8271 649.984 84.8908 654.615C84.0757 658.645 82.8096 662.587 82.0061 666.618C81.4315 669.485 82.9163 670.746 85.6722 669.68C89.0418 668.377 92.2517 666.669 95.6111 665.323C99.9617 663.451 104.408 661.815 108.932 660.42C111.401 659.679 114.004 659.511 116.542 659.928C119.08 660.345 121.485 661.335 123.577 662.825C127.477 665.522 128.436 669.621 126.139 673.615C123.938 677.455 119.736 678.474 115.437 676.785C113.556 676.06 111.482 675.992 109.55 676.59C105.705 678.007 102.191 680.325 98.3658 681.813C93.9897 683.597 89.4762 685.019 84.8712 686.063C82.6529 686.531 80.3578 686.458 78.1801 685.849C76.0024 685.241 74.0063 684.116 72.3609 682.569V682.569Z" stroke="#090089" stroke-width="2" stroke-linejoin="round"/>
<path d="M493.059 39.3338C492.633 39.2124 492.273 38.9264 492.057 38.5386C491.842 38.1509 491.789 37.6931 491.911 37.266L494.057 29.7278C494.42 28.4459 494.261 27.0727 493.615 25.9094C492.968 24.7462 491.888 23.888 490.61 23.5231L487.399 22.6091C486.121 22.2469 484.751 22.4078 483.589 23.0564C482.428 23.705 481.57 24.7885 481.204 26.0691L479.058 33.6073C478.93 34.0276 478.643 34.3811 478.258 34.5917C477.874 34.8023 477.422 34.8531 477 34.7331C476.579 34.6132 476.222 34.3321 476.006 33.9504C475.789 33.5688 475.731 33.117 475.844 32.6926L477.99 25.1544C478.601 23.0202 480.031 21.2147 481.966 20.1336C483.902 19.0526 486.185 18.7844 488.316 19.3876L491.527 20.3017C493.656 20.9104 495.457 22.3409 496.533 24.2794C497.61 26.2179 497.874 28.5062 497.27 30.6424L495.124 38.1806C495.002 38.6076 494.716 38.969 494.329 39.1852C493.942 39.4015 493.485 39.4549 493.059 39.3338" fill="#FA5987"/>
<path d="M493.059 39.3338C492.633 39.2124 492.273 38.9264 492.057 38.5386C491.842 38.1509 491.789 37.6931 491.911 37.266L494.057 29.7278C494.42 28.4459 494.261 27.0727 493.615 25.9094C492.968 24.7462 491.888 23.888 490.61 23.5231L487.399 22.6091C486.121 22.2469 484.751 22.4078 483.589 23.0564C482.428 23.705 481.57 24.7885 481.204 26.0691L479.058 33.6073C478.93 34.0276 478.643 34.3811 478.258 34.5917C477.874 34.8023 477.422 34.8531 477 34.7331C476.579 34.6132 476.222 34.3321 476.006 33.9504C475.789 33.5688 475.731 33.117 475.844 32.6926L477.99 25.1544C478.601 23.0202 480.031 21.2147 481.966 20.1336C483.902 19.0526 486.185 18.7844 488.316 19.3876L491.527 20.3017C493.656 20.9104 495.457 22.3409 496.533 24.2794C497.61 26.2179 497.874 28.5062 497.27 30.6424L495.124 38.1806C495.002 38.6076 494.716 38.969 494.329 39.1852C493.942 39.4015 493.485 39.4549 493.059 39.3338V39.3338Z" stroke="#090089" stroke-width="2" stroke-linejoin="round"/>
<path d="M511.054 78.4759C509.093 85.3624 505.14 91.5144 499.694 96.154C494.247 100.794 487.553 103.712 480.456 104.541C473.359 105.37 466.18 104.071 459.825 100.81C453.47 97.5487 448.226 92.4709 444.755 86.2186C441.283 79.9664 439.742 72.8206 440.324 65.6849C440.907 58.5492 443.587 51.744 448.027 46.1299C452.467 40.5159 458.467 36.345 465.267 34.1449C472.068 31.9448 479.364 31.8141 486.234 33.7695C490.795 35.0679 495.055 37.2541 498.771 40.2035C502.486 43.1529 505.585 46.8076 507.89 50.9589C510.195 55.1103 511.66 59.6771 512.203 64.3984C512.746 69.1198 512.355 73.9033 511.054 78.4759" fill="#FA5987"/>
<path d="M480.524 104.566C500.343 102.269 514.543 84.3124 512.242 64.4585C509.942 44.6047 492.01 30.3719 472.192 32.6687C452.373 34.9656 438.172 52.9222 440.473 72.7761C442.774 92.6299 460.706 106.863 480.524 104.566Z" stroke="#090089" stroke-width="2" stroke-linejoin="round"/>
<path d="M487.624 76.2567C487.204 76.1388 486.839 75.8755 486.594 75.5133L478.068 62.9692L464.211 69.1454C463.79 69.3303 463.316 69.354 462.88 69.212C462.444 69.0699 462.075 68.7721 461.843 68.375L454.968 56.375L444.211 60.0948C443.753 60.2517 443.253 60.2249 442.815 60.0198C442.378 59.8147 442.037 59.4475 441.864 58.9952C441.781 58.7738 441.744 58.5379 441.755 58.3017C441.765 58.0654 441.823 57.8337 441.925 57.6203C442.027 57.407 442.171 57.2164 442.349 57.06C442.526 56.9036 442.733 56.7846 442.957 56.7101L455.172 52.4879C455.581 52.3463 456.027 52.3517 456.432 52.503C456.837 52.6543 457.177 52.9422 457.394 53.3174L464.2 65.1931L477.939 59.0689C478.338 58.8922 478.785 58.8606 479.203 58.9798C479.622 59.099 479.986 59.3613 480.231 59.7212L488.686 72.1631L500.726 65.6521C501.107 65.4469 501.548 65.381 501.972 65.4658C502.396 65.5507 502.778 65.7809 503.051 66.117L511.212 76.1393C511.362 76.3208 511.475 76.5309 511.543 76.7571C511.611 76.9833 511.633 77.221 511.607 77.4559C511.582 77.6909 511.509 77.9184 511.394 78.1248C511.279 78.3312 511.124 78.5124 510.938 78.6575C510.552 78.9507 510.069 79.0832 509.589 79.027C509.109 78.9708 508.669 78.7303 508.363 78.3561L501.177 69.5287L489.014 76.1094C488.587 76.3369 488.089 76.3897 487.624 76.2567" fill="#06CA99"/>
<path d="M487.624 76.2567C487.204 76.1388 486.839 75.8755 486.594 75.5133L478.068 62.9692L464.211 69.1454C463.79 69.3303 463.316 69.354 462.88 69.212C462.444 69.0699 462.075 68.7721 461.843 68.375L454.968 56.375L444.211 60.0948C443.753 60.2517 443.253 60.2249 442.815 60.0198C442.378 59.8147 442.037 59.4475 441.864 58.9952C441.781 58.7738 441.744 58.5379 441.755 58.3017C441.765 58.0654 441.823 57.8337 441.925 57.6203C442.027 57.407 442.171 57.2164 442.349 57.06C442.526 56.9036 442.733 56.7846 442.957 56.7101L455.172 52.4879C455.581 52.3463 456.027 52.3517 456.432 52.503C456.837 52.6543 457.177 52.9422 457.394 53.3174L464.2 65.1931L477.939 59.0689C478.338 58.8922 478.785 58.8606 479.203 58.9798C479.622 59.099 479.986 59.3613 480.231 59.7212L488.686 72.1631L500.726 65.6521C501.107 65.4469 501.548 65.381 501.972 65.4658C502.396 65.5507 502.778 65.7809 503.051 66.117L511.212 76.1393C511.362 76.3208 511.475 76.5309 511.543 76.7571C511.611 76.9833 511.633 77.221 511.607 77.4559C511.582 77.6909 511.509 77.9184 511.394 78.1248C511.279 78.3312 511.124 78.5124 510.938 78.6575C510.552 78.9507 510.069 79.0832 509.589 79.027C509.109 78.9708 508.669 78.7303 508.363 78.3561L501.177 69.5287L489.014 76.1094C488.587 76.3369 488.089 76.3897 487.624 76.2567V76.2567Z" stroke="#090089" stroke-miterlimit="10"/>
<path d="M482.868 88.3595C482.477 88.2492 482.137 88.0038 481.91 87.6665L473.95 75.9584L461.016 81.7223C460.623 81.8948 460.181 81.9167 459.774 81.7837C459.366 81.6506 459.022 81.372 458.806 81.0009L452.391 69.8043L442.35 73.2733C441.923 73.4202 441.456 73.3953 441.047 73.2038C440.639 73.0123 440.32 72.6691 440.159 72.2467C440.082 72.04 440.048 71.8199 440.058 71.5995C440.068 71.379 440.122 71.1628 440.217 70.9638C440.313 70.7647 440.447 70.587 440.613 70.4411C440.778 70.2952 440.971 70.1842 441.18 70.1148L452.581 66.1741C452.963 66.042 453.378 66.047 453.757 66.1882C454.135 66.3294 454.452 66.598 454.655 66.9481L461.007 78.0333L473.83 72.3173C474.202 72.1529 474.619 72.1238 475.01 72.2349C475.4 72.3461 475.739 72.5906 475.969 72.9261L483.859 84.5384L495.095 78.4606C495.451 78.2695 495.862 78.2083 496.258 78.2875C496.654 78.3667 497.01 78.5814 497.265 78.8949L504.882 88.2489C505.022 88.4181 505.128 88.6142 505.191 88.8252C505.255 89.0363 505.275 89.2581 505.252 89.4774C505.228 89.6967 505.16 89.909 505.053 90.1016C504.945 90.2943 504.8 90.4633 504.627 90.5987C504.267 90.8731 503.816 90.9972 503.368 90.9447C502.919 90.8923 502.509 90.6675 502.223 90.3176L495.515 82.0809L484.167 88.22C483.768 88.4329 483.303 88.4822 482.868 88.3575" fill="#06CA99"/>
<path d="M482.868 88.3595C482.477 88.2492 482.137 88.0038 481.91 87.6665L473.95 75.9584L461.016 81.7223C460.623 81.8948 460.181 81.9167 459.774 81.7837C459.366 81.6506 459.022 81.372 458.806 81.0009L452.391 69.8043L442.35 73.2733C441.923 73.4202 441.456 73.3953 441.047 73.2038C440.639 73.0123 440.32 72.6691 440.159 72.2467C440.082 72.04 440.048 71.8199 440.058 71.5995C440.068 71.379 440.122 71.1628 440.217 70.9638C440.313 70.7647 440.447 70.587 440.613 70.4411C440.778 70.2952 440.971 70.1842 441.18 70.1148L452.581 66.1741C452.963 66.042 453.378 66.047 453.757 66.1882C454.135 66.3294 454.452 66.598 454.655 66.9481L461.007 78.0333L473.83 72.3173C474.202 72.1529 474.619 72.1238 475.01 72.2349C475.4 72.3461 475.739 72.5906 475.969 72.9261L483.859 84.5384L495.095 78.4606C495.451 78.2695 495.862 78.2083 496.258 78.2875C496.654 78.3667 497.01 78.5814 497.265 78.8949L504.882 88.2489C505.022 88.4181 505.128 88.6142 505.191 88.8252C505.255 89.0363 505.275 89.2581 505.252 89.4774C505.228 89.6967 505.16 89.909 505.053 90.1016C504.945 90.2943 504.8 90.4633 504.627 90.5987C504.267 90.8731 503.816 90.9972 503.368 90.9447C502.919 90.8923 502.509 90.6675 502.223 90.3176L495.515 82.0809L484.167 88.22C483.768 88.4337 483.302 88.4837 482.868 88.3595V88.3595Z" stroke="#090089" stroke-miterlimit="10"/>
<path d="M608.171 65.8823C609.108 54.6771 618.723 48.1797 620.203 47.2457H636.401C637.882 48.1818 647.498 54.6776 648.435 65.8823C649.314 76.3993 642.539 87.8765 628.304 100C614.067 87.8765 607.295 76.4014 608.173 65.8823" fill="#FA4078"/>
<path d="M608.171 65.8823C609.108 54.6771 618.723 48.1797 620.204 47.2457H636.401C637.882 48.1818 647.498 54.6776 648.435 65.8823C649.314 76.3993 642.539 87.8765 628.304 100C614.066 87.8759 607.294 76.3998 608.171 65.8823Z" stroke="#090089" stroke-width="2" stroke-linejoin="round"/>
<path d="M557.075 50.8092C558.013 39.604 567.628 33.1066 569.109 32.1726H585.307C586.787 33.1087 596.403 39.6045 597.34 50.8092C598.219 61.3267 591.445 72.8034 577.209 84.927C562.972 72.8034 556.2 61.3283 557.078 50.8092" fill="#FAE670"/>
<path d="M557.076 50.8092C558.013 39.604 567.628 33.1066 569.109 32.1726H585.307C586.787 33.1087 596.403 39.6045 597.34 50.8092C598.219 61.3267 591.445 72.8034 577.209 84.927C562.97 72.8028 556.198 61.3267 557.076 50.8092Z" stroke="#090089" stroke-width="2" stroke-linejoin="round"/>
<path d="M585.024 25.8452H569.556V32.0857H585.024V25.8452Z" fill="#FAE670"/>
<path d="M585.024 25.8452H569.556V32.0857H585.024V25.8452Z" stroke="#090089" stroke-width="2" stroke-linejoin="round"/>
<path d="M577.29 14.9888V25.8458" stroke="#090089" stroke-width="2" stroke-miterlimit="10"/>
<path d="M636.119 40.9182H620.652V47.1587H636.119V40.9182Z" fill="#FA4078"/>
<path d="M636.119 40.9182H620.652V47.1587H636.119V40.9182Z" stroke="#090089" stroke-width="2" stroke-linejoin="round"/>
<path d="M628.385 30.0618V40.9188" stroke="#090089" stroke-width="2" stroke-miterlimit="10"/>
<path d="M657.411 51.1428C658.348 39.9376 667.964 33.4402 669.445 32.5062H685.64C687.12 33.4423 696.736 39.9381 697.673 51.1428C698.553 61.6603 691.778 73.137 677.542 85.2606C663.305 73.137 656.533 61.6619 657.411 51.1428" fill="#06CA99"/>
<path d="M657.411 51.1428C658.348 39.9376 667.964 33.4402 669.445 32.5062H685.64C687.12 33.4423 696.736 39.9381 697.673 51.1428C698.553 61.6603 691.778 73.137 677.542 85.2606C663.309 73.1364 656.533 61.6603 657.411 51.1428Z" stroke="#090089" stroke-width="2" stroke-miterlimit="10"/>
<path d="M685.359 26.1791H669.893V32.4195H685.359V26.1791Z" fill="#06CA99"/>
<path d="M685.359 26.1791H669.893V32.4195H685.359V26.1791Z" stroke="#090089" stroke-width="2" stroke-miterlimit="10"/>
<path d="M677.625 15.3225V26.1796" stroke="#090089" stroke-width="2" stroke-miterlimit="10"/>
<path d="M560.024 0C597.718 38.4496 659.052 38.4496 696.747 0L698 1.27781C659.615 40.4323 597.155 40.4323 558.771 1.27781L560.024 0Z" fill="#090089"/>
</svg>
