<svg width="133" height="119" viewBox="0 0 133 119" fill="none" xmlns="http://www.w3.org/2000/svg">
<path d="M72.3609 95.569C70.1828 93.8701 68.487 91.6311 67.4397 89.0717C66.3924 86.5124 66.0298 83.7206 66.3873 80.9704C66.8865 75.6683 68.2397 70.4342 69.3473 65.1966C69.9146 62.5157 70.8964 59.9181 71.4305 57.2318C71.5223 55.9274 71.4444 54.6176 71.1986 53.3353C69.8748 53.3621 68.559 53.5597 67.2838 53.9234C61.4341 56.431 55.71 59.2397 49.818 61.6361C47.2569 62.6343 44.5667 63.2557 41.8316 63.4807C31.9364 64.3974 23.955 57.896 23.738 47.9724C23.6138 42.3419 24.9964 36.6352 26.0092 31.0175C26.6033 27.7192 28.0381 24.5656 28.6271 21.2671C28.8421 19.6097 28.4821 17.9322 27.6074 16.5151C24.8472 12.2031 25.2636 8.11013 29.171 4.94356C32.5598 2.19826 36.832 2.7395 40.16 6.2958C44.6565 11.1053 45.5221 16.9151 44.189 23.0374C43.2388 27.4017 41.5432 31.6053 40.2401 35.8999C39.5895 38.0467 38.9548 40.212 38.5182 42.408C37.6412 46.8216 38.8366 47.9166 42.9319 46.2533C46.861 44.658 50.5835 42.5472 54.5309 41.0064C58.698 39.3769 62.9304 37.6056 67.2943 36.8587C78.272 34.9816 87.1879 42.4806 87.1415 53.6379C87.1204 58.2978 85.8271 62.9839 84.8908 67.6149C84.0757 71.6446 82.8096 75.5867 82.0061 79.6181C81.4315 82.4852 82.9163 83.746 85.6722 82.6796C89.0418 81.3771 92.2517 79.6692 95.6111 78.3229C99.9617 76.4514 104.408 74.8147 108.932 73.4199C111.401 72.6795 114.004 72.5113 116.542 72.928C119.08 73.3447 121.485 74.3353 123.577 75.8247C127.477 78.5218 128.436 82.621 126.139 86.6153C123.938 90.4548 119.736 91.474 115.437 89.7849C113.556 89.0601 111.482 88.9915 109.55 89.5902C105.705 91.0071 102.191 93.3246 98.3658 94.8129C93.9897 96.5973 89.4762 98.0188 84.8712 99.0631C82.6529 99.5309 80.3578 99.4575 78.1801 98.8493C76.0024 98.2411 74.0063 97.1159 72.3609 95.569Z" fill="#FA5987"/>
<path d="M72.3609 95.569C70.1828 93.8701 68.487 91.6311 67.4397 89.0717C66.3924 86.5124 66.0298 83.7206 66.3873 80.9704C66.8865 75.6683 68.2397 70.4342 69.3473 65.1966C69.9146 62.5157 70.8964 59.9181 71.4305 57.2318C71.5223 55.9274 71.4444 54.6176 71.1986 53.3353C69.8748 53.3621 68.559 53.5597 67.2838 53.9234C61.4341 56.431 55.71 59.2397 49.818 61.6361C47.2569 62.6343 44.5667 63.2557 41.8316 63.4807C31.9364 64.3974 23.955 57.896 23.738 47.9724C23.6138 42.3419 24.9964 36.6352 26.0092 31.0175C26.6033 27.7192 28.0381 24.5656 28.6271 21.267C28.8421 19.6097 28.4821 17.9322 27.6074 16.5151C24.8472 12.2031 25.2636 8.11013 29.171 4.94356C32.5598 2.19826 36.832 2.7395 40.16 6.2958C44.6565 11.1053 45.5221 16.9151 44.189 23.0374C43.2388 27.4017 41.5432 31.6053 40.2401 35.8999C39.5895 38.0467 38.9548 40.212 38.5182 42.408C37.6412 46.8216 38.8366 47.9166 42.9319 46.2533C46.861 44.658 50.5835 42.5472 54.5309 41.0064C58.698 39.3769 62.9304 37.6056 67.2943 36.8587C78.272 34.9816 87.1879 42.4806 87.1415 53.6379C87.1204 58.2978 85.8271 62.9839 84.8908 67.6149C84.0757 71.6446 82.8096 75.5867 82.0061 79.6181C81.4315 82.4852 82.9163 83.746 85.6722 82.6796C89.0418 81.3771 92.2517 79.6692 95.6111 78.3229C99.9617 76.4514 104.408 74.8147 108.932 73.4199C111.401 72.6795 114.004 72.5113 116.542 72.928C119.08 73.3447 121.485 74.3353 123.577 75.8247C127.477 78.5218 128.436 82.621 126.139 86.6152C123.938 90.4548 119.736 91.474 115.437 89.7849C113.556 89.0601 111.482 88.9915 109.55 89.5902C105.705 91.0071 102.191 93.3246 98.3658 94.8129C93.9897 96.5973 89.4762 98.0188 84.8712 99.0631C82.6529 99.5309 80.3578 99.4575 78.1801 98.8493C76.0024 98.2411 74.0063 97.1159 72.3609 95.569V95.569Z" stroke="#090089" stroke-width="2" stroke-linejoin="round"/>
</svg>
