<svg width="247" height="162" viewBox="0 0 247 162" fill="none" xmlns="http://www.w3.org/2000/svg">
<path fill-rule="evenodd" clip-rule="evenodd" d="M80.8285 108.172C79.8557 103.461 78.773 98.9572 78.0057 94.4087C76.313 84.288 74.7518 74.1446 73.1695 64.011C73.1019 63.5648 73.1503 63.0901 73.1472 62.3684C74.12 62.8432 74.9085 63.146 75.6153 63.5773C84.5749 68.8914 93.8161 73.6218 103.547 77.3869C108.226 79.2019 112.905 81.017 117.578 82.8475C118.563 83.239 119.791 83.3491 120.14 84.9164C119.757 85.3406 119.354 85.9682 118.789 86.3615C115.855 88.341 112.96 90.4052 109.915 92.204C103.167 96.1611 96.3531 100.007 89.5393 103.852C87.1973 105.167 84.8001 106.392 82.4127 107.638C81.9945 107.82 81.5365 107.918 80.8285 108.172Z" fill="#FAE670"/>
<path fill-rule="evenodd" clip-rule="evenodd" d="M173.447 92.2424C179.04 92.0154 183.918 91.9164 188.77 91.597C193.769 91.2605 198.78 90.8407 203.754 90.2317C208.597 89.6454 213.39 88.7597 218.168 88.0097C218.923 88.8449 218.233 89.439 217.967 90.0283C214.959 96.4456 211.492 102.626 207.931 108.773C205.485 113.003 203.272 117.37 200.93 121.655C200.239 122.935 199.491 124.175 198.654 125.613C197.887 125.055 197.22 124.708 196.772 124.194C195.195 122.323 193.602 120.447 192.212 118.45C190.27 115.639 188.484 112.69 186.66 109.798C183.253 104.418 179.569 99.2195 175.244 94.527C174.776 93.971 174.356 93.3797 173.447 92.2424Z" fill="#FAE670"/>
<path fill-rule="evenodd" clip-rule="evenodd" d="M168.318 92.3036C168.157 92.8956 168.152 93.2981 167.942 93.5385C159.204 104.07 150.455 114.58 141.523 125.305C140.917 124.594 140.321 124.15 140.074 123.568C138.661 120.316 137.191 117.078 136.022 113.737C134.354 109.004 132.965 104.178 131.396 99.4098C130.291 96.0397 129.048 92.7079 127.885 89.352C127.577 88.4498 127.297 87.5222 127.01 86.6101C128.301 85.8642 129.293 86.6272 130.275 86.9296C138.156 89.2874 146.189 90.9798 154.388 91.6776C158.047 91.9811 161.717 92.0078 165.395 92.1602C166.315 92.1944 167.246 92.2498 168.318 92.3036Z" fill="#FA5987"/>
<path fill-rule="evenodd" clip-rule="evenodd" d="M33.6501 34.0417C34.0753 34.424 34.5485 34.7708 34.9413 35.1941C40.7476 41.389 47.4508 46.4671 54.6518 50.8991C58.8145 53.4591 62.983 56.0035 67.1457 58.5635C67.5225 58.7876 67.8767 59.0739 68.5256 59.5194C66.8354 60.7361 65.0405 60.6846 63.5657 61.4519C62.0641 62.2446 60.4319 62.8143 58.8351 63.4321C57.3599 64.0059 55.8349 64.4738 54.3696 65.0687C52.7728 65.6864 51.2059 66.3677 49.649 67.0701C48.0864 67.7881 46.5592 68.554 45.0421 69.3411C43.5249 70.1282 42.0376 70.9788 40.5559 71.8139C39.1702 72.5783 37.7889 73.3794 36.3932 74.1225C34.8972 74.8997 33.4753 75.8619 31.5883 76.3571C31.4182 75.6101 31.1651 75.044 31.1837 74.5059C31.2453 72.4366 31.4116 70.3701 31.5099 68.2965C31.9889 57.8187 32.4311 47.3452 32.9312 36.8575C32.9955 35.9492 32.6027 34.8932 33.6501 34.0417Z" fill="#FA5987"/>
<path fill-rule="evenodd" clip-rule="evenodd" d="M246.36 78.1681C243.049 81.1889 239.163 82.6836 235.261 83.9792C231.332 85.3003 227.238 86.1046 222.79 87.2554C221.61 89.4474 220.071 91.9492 218.864 94.606C216.626 99.5267 213.811 104.098 211.182 108.789C208.125 114.222 205.213 119.742 202.214 125.213C201.747 126.064 201.244 126.919 200.624 127.661C199.717 128.757 198.561 128.936 197.338 128.178C196.518 127.67 195.695 127.074 195.079 126.342C193.334 124.304 191.557 122.255 190.03 120.051C187.931 117.042 186.045 113.882 184.069 110.777C180.783 105.599 177.203 100.649 173.154 96.0208C172.619 95.4056 171.988 94.8612 171.253 94.1205C168.377 97.5448 165.621 100.784 162.9 104.071C157.064 111.153 151.275 118.251 145.439 125.333C144.662 126.265 143.822 127.174 142.887 127.96C141.661 129.011 140.36 128.91 139.311 127.722C138.587 126.898 137.992 125.962 137.461 124.997C135.512 121.427 134.098 117.646 132.926 113.778C131.321 108.381 129.795 102.961 128.132 97.5788C127.084 94.1945 125.863 90.8528 124.678 87.5068C124.409 86.7416 123.987 86.009 123.689 85.3738C122.562 85.1774 122.121 85.8615 121.659 86.3621C118.888 89.3498 115.625 91.7025 112.098 93.7138C102.946 98.9111 93.7795 104.103 84.6437 109.306C83.3583 110.036 82.1495 110.847 80.8997 111.625C79.2614 112.65 78.562 112.344 78.1712 110.357C77.5286 107.119 76.9439 103.867 76.3225 100.619C75.0225 93.8923 73.9586 87.145 73.2637 80.3028C72.7021 74.8445 71.5424 69.4335 70.6188 64.0025C70.5413 63.5351 70.3267 63.106 70.1515 62.5681C68.2052 62.4969 66.4739 63.0484 64.7699 63.768C62.9599 64.5371 61.1599 65.3274 59.317 65.9439C53.3659 67.9397 47.7587 70.6399 42.3093 73.7311C39.9618 75.0616 37.6199 76.3765 35.2326 77.6223C34.272 78.1361 33.2349 78.5695 32.1761 78.8194C30.5322 79.2267 29.1697 78.4176 28.8758 76.7471C28.6335 75.3237 28.6285 73.8279 28.7114 72.3815C28.9074 68.4802 29.2447 64.5774 29.4618 60.6661C29.9281 52.6092 30.342 44.5509 30.7926 36.4884C30.8975 34.7863 31.0915 33.0813 31.2639 31.1927C29.1646 27.9905 26.9489 24.6231 24.7544 21.2458C24.2902 20.5331 23.8373 19.7893 23.5003 19.0171C23.3908 18.7842 23.5508 18.2445 23.7584 18.1086C24.0083 17.953 24.5896 17.9523 24.7527 18.1343C25.5681 19.0443 26.3567 19.9798 27.0125 20.9903C29.6525 24.9857 32.4747 28.8184 35.7289 32.3328C40.5952 37.5727 46.006 42.1834 52.078 45.8908C62.5196 52.268 73.0528 58.5378 83.6747 64.6112C91.229 68.9425 99.1958 72.4739 107.375 75.4669C114.049 77.8981 120.717 80.3972 127.475 82.5953C139.777 86.6046 152.38 88.807 165.366 88.8282C181.558 88.8484 197.661 87.7995 213.742 85.9343C215.081 85.7858 216.393 85.4693 217.703 85.205C219.145 84.918 220.565 84.4474 222.015 84.286C228.144 83.5499 233.975 81.7393 239.765 79.7027C241.498 79.099 243.26 78.5587 245.011 78.0496C245.437 77.9926 245.91 78.146 246.36 78.1681ZM80.8279 108.172C81.5359 107.918 81.9939 107.82 82.4022 107.616C84.7895 106.371 87.1812 105.161 89.5287 103.831C96.3425 99.9853 103.172 96.1453 109.905 92.1825C112.95 90.3837 115.854 88.3407 118.779 86.3401C119.338 85.9623 119.726 85.3291 120.129 84.895C119.78 83.3277 118.568 83.2232 117.567 82.8261C112.894 80.9955 108.215 79.1805 103.537 77.3655C93.8112 73.5848 84.5644 68.87 75.6047 63.5559C74.8768 63.1344 74.1095 62.8218 73.1367 62.347C73.1398 63.0687 73.0758 63.5377 73.1589 63.9896C74.7569 74.1288 76.3025 84.2666 77.9952 94.3873C78.7725 98.9569 79.8551 103.461 80.8279 108.172ZM173.446 92.2422C174.371 93.3852 174.775 93.9708 175.255 94.4957C179.574 99.2037 183.263 104.387 186.67 109.767C188.51 112.665 190.286 115.592 192.222 118.419C193.607 120.431 195.206 122.292 196.783 124.163C197.225 124.692 197.898 125.023 198.664 125.582C199.48 124.154 200.249 122.903 200.941 121.624C203.267 117.333 205.48 112.966 207.941 108.742C211.497 102.61 214.964 96.4298 217.977 89.997C218.243 89.4077 218.933 88.8136 218.179 87.9784C213.4 88.7284 208.608 89.6141 203.765 90.2004C198.791 90.8094 193.779 91.2292 188.78 91.5657C183.917 91.9162 179.039 92.0152 173.446 92.2422ZM168.318 92.3034C167.246 92.2496 166.315 92.1942 165.378 92.1544C161.716 92.0077 158.025 91.9909 154.372 91.6718C146.173 90.974 138.155 89.2873 130.259 86.9238C129.277 86.6214 128.279 85.874 126.994 86.6043C127.281 87.5164 127.546 88.4384 127.869 89.3462C129.032 92.7021 130.259 96.0282 131.38 99.4039C132.949 104.172 134.338 108.998 136.006 113.732C137.175 117.072 138.645 120.31 140.057 123.563C140.32 124.15 140.917 124.594 141.507 125.3C150.445 114.559 159.187 104.064 167.926 93.5327C168.152 93.298 168.157 92.8954 168.318 92.3034ZM33.6495 34.0415C32.5964 34.9086 32.9949 35.949 32.9561 36.8841C32.4616 47.3563 32.0138 57.8453 31.5349 68.3231C31.4365 70.3967 31.2702 72.4632 31.2086 74.5325C31.1844 75.0862 31.4431 75.6367 31.6132 76.3837C33.5002 75.8885 34.9222 74.9263 36.4181 74.1491C37.8293 73.4116 39.1951 72.6049 40.5808 71.8405C42.0781 71.0111 43.5654 70.1604 45.067 69.3677C46.5842 68.5806 48.1113 67.8146 49.6739 67.0967C51.2209 66.3731 52.7977 65.713 54.3945 65.0953C55.8754 64.506 57.3848 64.0324 58.86 63.4587C60.4568 62.8409 62.089 62.2712 63.5906 61.4785C65.0555 60.69 66.8603 60.7627 68.5505 59.546C67.9016 59.1005 67.5418 58.8297 67.1706 58.59C63.0079 56.0301 58.8395 53.4857 54.6767 50.9257C47.4757 46.4937 40.7725 41.4156 34.9662 35.2207C34.5479 34.7706 34.0747 34.4238 33.6495 34.0415Z" fill="#090089"/>
</svg>
