<svg width="69" height="127" viewBox="0 0 69 127" fill="none" xmlns="http://www.w3.org/2000/svg">
<path d="M5.22754 120.583C1.95774 120.051 0.365694 117.427 1.41751 114.32C2.57588 110.899 5.01873 108.222 8.4947 106.965C13.704 105.086 19.133 103.756 24.5062 102.331C27.6725 101.49 30.9659 101.092 34.103 100.169C37.1427 99.2773 37.6447 97.6077 35.3236 95.7255C32.5838 93.5026 29.4636 91.6706 26.4767 89.7046C22.8405 87.3159 18.808 85.3211 15.5881 82.5335C7.84251 75.827 9.79159 66.791 19.9593 62.8046C25.0922 60.7923 30.6955 59.8788 36.099 58.5151C38.6413 57.8716 41.2687 57.4948 43.7682 56.722C47.6482 55.5221 48.1754 53.4385 45.0247 51.2935C41.8201 49.1112 38.2009 47.4334 34.965 45.2857C31.2843 42.845 27.3671 40.5069 24.37 37.4415C18.4379 31.3707 20.3481 23.3926 28.6132 19.5525C32.6336 17.6865 37.1382 16.6978 41.4932 15.5785C45.3807 14.5802 49.3742 13.9891 53.3061 13.1308C54.2414 12.9873 55.1248 12.6045 55.8537 12.0268C56.5826 11.4491 57.1272 10.7002 57.4242 9.86707C58.4627 7.23422 61.258 6.1844 64.0853 7.01293C66.722 7.78531 67.9991 10.0631 67.2162 12.7326C66.2851 15.9166 64.2604 18.5743 61.0494 19.9164C56.8194 21.6402 52.4736 23.0887 48.0454 24.2509C44.3328 25.2579 40.4772 25.7379 36.6992 26.5203C35.5719 26.7492 34.4753 27.1102 33.4367 27.5942C31.2921 28.6115 30.8741 30.1153 32.561 31.5593C34.3176 32.9416 36.1834 34.2041 38.1446 35.3375C42.8251 38.2899 47.6679 41.0432 52.1778 44.1909C55.3064 46.3744 57.3725 49.4449 57.5167 53.2868C57.7005 58.1754 55.0665 61.9244 50.4019 63.9892C46.1821 65.8544 41.6033 67.0504 37.1022 68.2413C33.4602 69.2045 29.6645 69.5828 26.0077 70.5005C24.5324 70.8709 23.2452 71.9863 21.8729 72.763C22.6989 74.0398 23.2192 75.6692 24.4107 76.5245C27.488 78.7345 30.8932 80.5621 34.1068 82.6188C37.1222 84.548 40.3515 86.2958 42.9723 88.6136C50.5456 95.3112 48.6706 104.485 38.6611 108.503C33.6312 110.523 28.0855 111.373 22.7582 112.689C20.7682 113.181 18.7286 113.466 16.7235 113.902C14.0818 114.477 11.7864 115.283 10.7995 118.133C10.1069 120.137 7.62786 120.969 5.22924 120.582" fill="#005BFF"/>
<path d="M5.22754 120.583C1.95774 120.051 0.365693 117.427 1.41751 114.32C2.57588 110.899 5.01873 108.222 8.4947 106.965C13.704 105.086 19.1331 103.756 24.5062 102.33C27.6725 101.49 30.9659 101.091 34.103 100.169C37.1427 99.2771 37.6447 97.6076 35.3236 95.7253C32.5838 93.5025 29.4636 91.6705 26.4767 89.7045C22.8405 87.3158 18.808 85.321 15.5881 82.5334C7.84251 75.8269 9.79159 66.7909 19.9593 62.8045C25.0922 60.7922 30.6955 59.8787 36.099 58.515C38.6413 57.8716 41.2687 57.4947 43.7682 56.7219C47.6482 55.522 48.1754 53.4384 45.0247 51.2935C41.8201 49.1112 38.2009 47.4334 34.965 45.2856C31.2843 42.845 27.3671 40.5069 24.37 37.4414C18.4379 31.3707 20.3481 23.3926 28.6132 19.5525C32.6336 17.6865 37.1382 16.6977 41.4932 15.5785C45.3807 14.5801 49.3742 13.9891 53.3061 13.1308C54.2414 12.9873 55.1248 12.6045 55.8537 12.0268C56.5826 11.4491 57.1272 10.7002 57.4242 9.86706C58.4627 7.23421 61.258 6.1844 64.0853 7.01292C66.722 7.7853 67.9991 10.0631 67.2162 12.7326C66.2851 15.9166 64.2604 18.5743 61.0494 19.9164C56.8194 21.6402 52.4736 23.0887 48.0454 24.2508C44.3328 25.2579 40.4772 25.7379 36.6992 26.5202C35.5719 26.7492 34.4753 27.1101 33.4367 27.5942C31.2921 28.6114 30.8741 30.1153 32.561 31.5592C34.3176 32.9415 36.1834 34.2041 38.1446 35.3375C42.8251 38.2899 47.6679 41.0431 52.1778 44.1909C55.3064 46.3743 57.3725 49.4448 57.5167 53.2867C57.7005 58.1753 55.0665 61.9243 50.4019 63.9891C46.1821 65.8543 41.6033 67.0503 37.1022 68.2412C33.4602 69.2044 29.6645 69.5827 26.0077 70.5004C24.5324 70.8708 23.2452 71.9862 21.8729 72.7629C22.6989 74.0397 23.2192 75.6691 24.4107 76.5244C27.488 78.7344 30.8932 80.562 34.1068 82.6187C37.1222 84.5478 40.3515 86.2957 42.9723 88.6135C50.5456 95.3111 48.6706 104.485 38.6611 108.503C33.6312 110.522 28.0855 111.373 22.7582 112.689C20.7682 113.18 18.7286 113.466 16.7235 113.902C14.0818 114.477 11.7864 115.282 10.7995 118.133C10.1052 120.139 7.62548 120.973 5.22754 120.583Z" stroke="#090089" stroke-width="2" stroke-miterlimit="10"/>
</svg>
