<svg width="1005" height="888" viewBox="0 0 1005 888" fill="none" xmlns="http://www.w3.org/2000/svg">
<path fill-rule="evenodd" clip-rule="evenodd" d="M838.828 834.172C837.856 829.461 836.773 824.957 836.006 820.409C834.313 810.288 832.752 800.145 831.169 790.011C831.102 789.565 831.15 789.09 831.147 788.368C832.12 788.843 832.908 789.146 833.615 789.577C842.575 794.891 851.816 799.622 861.547 803.387C866.226 805.202 870.905 807.017 875.578 808.847C876.563 809.239 877.791 809.349 878.14 810.916C877.757 811.341 877.354 811.968 876.789 812.362C873.855 814.341 870.96 816.405 867.915 818.204C861.167 822.161 854.353 826.007 847.539 829.852C845.197 831.167 842.8 832.392 840.413 833.638C839.995 833.82 839.536 833.918 838.828 834.172Z" fill="#FAE670"/>
<path fill-rule="evenodd" clip-rule="evenodd" d="M931.447 818.242C937.04 818.015 941.918 817.916 946.77 817.597C951.769 817.261 956.78 816.841 961.754 816.232C966.597 815.645 971.39 814.76 976.168 814.01C976.923 814.845 976.233 815.439 975.967 816.028C972.959 822.446 969.492 828.626 965.931 834.773C963.485 839.003 961.272 843.37 958.93 847.655C958.239 848.935 957.491 850.175 956.654 851.613C955.887 851.055 955.22 850.708 954.772 850.194C953.195 848.323 951.602 846.447 950.212 844.45C948.27 841.639 946.484 838.69 944.66 835.798C941.253 830.418 937.569 825.219 933.244 820.527C932.776 819.971 932.356 819.38 931.447 818.242Z" fill="#FAE670"/>
<path fill-rule="evenodd" clip-rule="evenodd" d="M926.318 818.304C926.157 818.896 926.152 819.298 925.942 819.539C917.204 830.07 908.455 840.58 899.523 851.305C898.917 850.594 898.321 850.15 898.074 849.568C896.661 846.316 895.191 843.078 894.022 839.737C892.354 835.004 890.965 830.178 889.396 825.41C888.291 822.04 887.048 818.708 885.885 815.352C885.577 814.45 885.297 813.522 885.01 812.61C886.301 811.864 887.293 812.627 888.275 812.93C896.156 815.287 904.189 816.98 912.388 817.678C916.047 817.981 919.717 818.008 923.395 818.16C924.315 818.194 925.246 818.25 926.318 818.304Z" fill="#FA5987"/>
<path fill-rule="evenodd" clip-rule="evenodd" d="M791.65 760.042C792.075 760.424 792.549 760.771 792.941 761.194C798.748 767.389 805.451 772.467 812.652 776.899C816.815 779.459 820.983 782.003 825.146 784.563C825.522 784.788 825.877 785.074 826.526 785.519C824.835 786.736 823.04 786.685 821.566 787.452C820.064 788.245 818.432 788.814 816.835 789.432C815.36 790.006 813.835 790.474 812.37 791.069C810.773 791.686 809.206 792.368 807.649 793.07C806.086 793.788 804.559 794.554 803.042 795.341C801.525 796.128 800.038 796.979 798.556 797.814C797.17 798.578 795.789 799.379 794.393 800.123C792.897 800.9 791.475 801.862 789.588 802.357C789.418 801.61 789.165 801.044 789.184 800.506C789.245 798.437 789.412 796.37 789.51 794.297C789.989 783.819 790.431 773.345 790.931 762.857C790.996 761.949 790.603 760.893 791.65 760.042Z" fill="#FA5987"/>
<path fill-rule="evenodd" clip-rule="evenodd" d="M1004.36 804.168C1001.05 807.189 997.163 808.684 993.261 809.979C989.332 811.3 985.238 812.105 980.79 813.255C979.61 815.447 978.071 817.949 976.864 820.606C974.626 825.527 971.811 830.098 969.182 834.789C966.125 840.222 963.213 845.742 960.214 851.213C959.747 852.064 959.244 852.919 958.624 853.661C957.717 854.757 956.561 854.936 955.338 854.178C954.518 853.67 953.695 853.074 953.079 852.342C951.334 850.304 949.557 848.255 948.03 846.051C945.931 843.042 944.045 839.882 942.069 836.777C938.783 831.599 935.203 826.649 931.154 822.021C930.619 821.406 929.988 820.861 929.253 820.121C926.377 823.545 923.621 826.784 920.9 830.071C915.064 837.153 909.275 844.251 903.439 851.333C902.662 852.265 901.822 853.174 900.887 853.96C899.661 855.011 898.36 854.91 897.311 853.722C896.587 852.898 895.992 851.962 895.461 850.997C893.512 847.427 892.098 843.646 890.926 839.778C889.321 834.381 887.795 828.961 886.132 823.579C885.084 820.194 883.863 816.853 882.678 813.507C882.409 812.742 881.987 812.009 881.689 811.374C880.562 811.177 880.121 811.862 879.659 812.362C876.888 815.35 873.625 817.703 870.098 819.714C860.946 824.911 851.779 830.103 842.644 835.306C841.358 836.036 840.15 836.847 838.9 837.625C837.261 838.65 836.562 838.344 836.171 836.357C835.529 833.119 834.944 829.867 834.322 826.619C833.022 819.892 831.959 813.145 831.264 806.303C830.702 800.844 829.542 795.434 828.619 790.003C828.541 789.535 828.327 789.106 828.152 788.568C826.205 788.497 824.474 789.048 822.77 789.768C820.96 790.537 819.16 791.327 817.317 791.944C811.366 793.94 805.759 796.64 800.309 799.731C797.962 801.062 795.62 802.376 793.233 803.622C792.272 804.136 791.235 804.57 790.176 804.819C788.532 805.227 787.17 804.418 786.876 802.747C786.633 801.324 786.629 799.828 786.711 798.382C786.907 794.48 787.245 790.577 787.462 786.666C787.928 778.609 788.342 770.551 788.793 762.488C788.898 760.786 789.092 759.081 789.264 757.193C787.165 753.99 784.949 750.623 782.754 747.246C782.29 746.533 781.837 745.789 781.5 745.017C781.391 744.784 781.551 744.244 781.758 744.109C782.008 743.953 782.59 743.952 782.753 744.134C783.568 745.044 784.357 745.98 785.012 746.99C787.653 750.986 790.475 754.818 793.729 758.333C798.595 763.573 804.006 768.183 810.078 771.891C820.52 778.268 831.053 784.538 841.675 790.611C849.229 794.942 857.196 798.474 865.375 801.467C872.049 803.898 878.717 806.397 885.475 808.595C897.777 812.605 910.38 814.807 923.366 814.828C939.558 814.848 955.661 813.8 971.742 811.934C973.081 811.786 974.393 811.469 975.703 811.205C977.145 810.918 978.565 810.447 980.015 810.286C986.144 809.55 991.975 807.739 997.765 805.703C999.498 805.099 1001.26 804.559 1003.01 804.05C1003.44 803.993 1003.91 804.146 1004.36 804.168ZM838.828 834.172C839.536 833.918 839.994 833.82 840.402 833.616C842.79 832.371 845.181 831.161 847.529 829.831C854.343 825.985 861.172 822.145 867.905 818.183C870.95 816.384 873.854 814.341 876.779 812.34C877.338 811.962 877.726 811.329 878.129 810.895C877.78 809.328 876.568 809.223 875.567 808.826C870.894 806.996 866.215 805.181 861.537 803.366C851.811 799.585 842.564 794.87 833.605 789.556C832.877 789.134 832.109 788.822 831.137 788.347C831.14 789.069 831.076 789.538 831.159 789.99C832.757 800.129 834.303 810.267 835.995 820.387C836.772 824.957 837.855 829.461 838.828 834.172ZM931.446 818.242C932.371 819.385 932.775 819.971 933.255 820.496C937.574 825.204 941.263 830.387 944.67 835.767C946.51 838.665 948.286 841.592 950.222 844.419C951.607 846.431 953.206 848.292 954.783 850.163C955.225 850.692 955.898 851.023 956.664 851.582C957.48 850.154 958.249 848.903 958.941 847.624C961.267 843.333 963.48 838.966 965.941 834.742C969.497 828.61 972.964 822.43 975.977 815.997C976.243 815.408 976.933 814.814 976.179 813.978C971.4 814.728 966.608 815.614 961.765 816.2C956.791 816.809 951.779 817.229 946.78 817.566C941.917 817.916 937.039 818.015 931.446 818.242ZM926.318 818.303C925.246 818.25 924.315 818.194 923.378 818.154C919.716 818.008 916.025 817.991 912.372 817.672C904.173 816.974 896.155 815.287 888.259 812.924C887.277 812.621 886.279 811.874 884.994 812.604C885.281 813.516 885.546 814.438 885.869 815.346C887.032 818.702 888.259 822.028 889.38 825.404C890.949 830.172 892.338 834.998 894.006 839.732C895.175 843.072 896.645 846.31 898.057 849.563C898.32 850.15 898.917 850.594 899.507 851.3C908.445 840.559 917.187 830.064 925.926 819.533C926.152 819.298 926.157 818.895 926.318 818.303ZM791.65 760.041C790.596 760.909 790.995 761.949 790.956 762.884C790.462 773.356 790.014 783.845 789.535 794.323C789.436 796.397 789.27 798.463 789.209 800.532C789.184 801.086 789.443 801.637 789.613 802.384C791.5 801.888 792.922 800.926 794.418 800.149C795.829 799.412 797.195 798.605 798.581 797.841C800.078 797.011 801.565 796.16 803.067 795.368C804.584 794.581 806.111 793.815 807.674 793.097C809.221 792.373 810.798 791.713 812.395 791.095C813.875 790.506 815.385 790.032 816.86 789.459C818.457 788.841 820.089 788.271 821.591 787.478C823.055 786.69 824.86 786.763 826.55 785.546C825.902 785.1 825.542 784.83 825.171 784.59C821.008 782.03 816.839 779.486 812.677 776.926C805.476 772.494 798.773 767.416 792.966 761.221C792.548 760.771 792.075 760.424 791.65 760.041Z" fill="#090089"/>
<path d="M466.426 305L467.793 319.12L480.2 325.999L467.194 331.663L464.487 345.588L455.081 334.968L441 336.697L448.194 324.469L442.199 311.613L456.05 314.675L466.426 305Z" fill="#FAE670"/>
<path d="M466.426 305L467.793 319.12L480.2 325.999L467.194 331.663L464.487 345.588L455.081 334.968L441 336.697L448.194 324.469L442.199 311.613L456.05 314.675L466.426 305Z" stroke="#090089" stroke-width="3" stroke-linejoin="round"/>
<path d="M834.712 67.7949C835.695 56.2644 845.787 49.5784 847.341 48.6173H864.343C865.897 49.5806 875.991 56.265 876.974 67.7949C877.896 78.6172 870.786 90.4276 855.844 102.903C840.9 90.4276 833.791 78.6194 834.713 67.7949" fill="#FA4078"/>
<path d="M834.712 67.7949C835.695 56.2644 845.787 49.5784 847.341 48.6173H864.343C865.897 49.5806 875.991 56.265 876.974 67.7949C877.896 78.6172 870.786 90.4276 855.844 102.903C840.899 90.4271 833.79 78.6178 834.712 67.7949Z" stroke="#090089" stroke-width="2" stroke-linejoin="round"/>
<path d="M781.079 52.2843C782.063 40.7538 792.156 34.0678 793.71 33.1067H810.712C812.266 34.07 822.36 40.7543 823.343 52.2843C824.265 63.1072 817.155 74.917 802.213 87.3926C787.269 74.917 780.16 63.1088 781.082 52.2843" fill="#FAE670"/>
<path d="M781.079 52.2843C782.063 40.7538 792.156 34.0678 793.71 33.1067H810.712C812.266 34.07 822.36 40.7543 823.343 52.2843C824.265 63.1072 817.155 74.917 802.213 87.3926C787.267 74.9165 780.158 63.1072 781.079 52.2843Z" stroke="#090089" stroke-width="2" stroke-linejoin="round"/>
<path d="M810.415 26.5956H794.18V33.0172H810.415V26.5956Z" fill="#FAE670"/>
<path d="M810.415 26.5956H794.18V33.0172H810.415V26.5956Z" stroke="#090089" stroke-width="2" stroke-linejoin="round"/>
<path d="M802.297 15.424V26.5962" stroke="#090089" stroke-width="2" stroke-miterlimit="10"/>
<path d="M864.048 42.1062H847.812V48.5278H864.048V42.1062Z" fill="#FA4078"/>
<path d="M864.048 42.1062H847.812V48.5278H864.048V42.1062Z" stroke="#090089" stroke-width="2" stroke-linejoin="round"/>
<path d="M855.929 30.9344V42.1067" stroke="#090089" stroke-width="2" stroke-miterlimit="10"/>
<path d="M886.396 52.6276C887.38 41.097 897.473 34.411 899.027 33.45H916.026C917.58 34.4132 927.674 41.0976 928.657 52.6276C929.58 63.4504 922.469 75.2603 907.527 87.7359C892.583 75.2603 885.474 63.4521 886.396 52.6276Z" fill="#06CA99"/>
<path d="M886.396 52.6276C887.38 41.097 897.473 34.411 899.027 33.45H916.026C917.58 34.4132 927.673 41.0976 928.657 52.6276C929.58 63.4504 922.469 75.2603 907.526 87.7359C892.586 75.2597 885.475 63.4504 886.396 52.6276Z" stroke="#090089" stroke-width="2" stroke-miterlimit="10"/>
<path d="M915.732 26.9391H899.497V33.3607H915.732V26.9391Z" fill="#06CA99"/>
<path d="M915.732 26.9391H899.497V33.3607H915.732V26.9391Z" stroke="#090089" stroke-width="2" stroke-miterlimit="10"/>
<path d="M907.614 15.7673V26.9396" stroke="#090089" stroke-width="2" stroke-miterlimit="10"/>
<path d="M784.174 0C823.74 39.5658 888.119 39.5658 927.685 0L929 1.3149C888.709 41.6061 823.149 41.6061 782.859 1.3149L784.174 0Z" fill="#090089"/>
<path d="M72.4611 747.527C70.2803 745.825 68.5796 743.584 67.5259 741.026C66.4722 738.468 66.1017 735.68 66.4507 732.935C66.9339 727.643 68.2704 722.422 69.3616 717.196C69.9204 714.521 70.8936 711.931 71.4193 709.25C71.5072 707.948 71.4254 706.64 71.1762 705.36C69.8538 705.382 68.5399 705.576 67.267 705.935C61.4306 708.421 55.7206 711.209 49.8415 713.584C47.286 714.573 44.6003 715.186 41.8686 715.402C31.9861 716.288 23.9937 709.774 23.7478 699.866C23.6072 694.245 24.9717 688.551 25.967 682.946C26.5508 679.655 27.9749 676.511 28.5537 673.219C28.7636 671.565 28.399 669.889 27.5211 668.472C24.751 664.159 25.155 660.074 29.0492 656.924C32.4264 654.193 36.6959 654.746 40.031 658.306C44.5371 663.121 45.4188 668.924 44.105 675.032C43.1686 679.387 41.487 683.578 40.1978 687.862C39.5542 690.003 38.9265 692.163 38.4968 694.354C37.6336 698.758 38.831 699.855 42.9173 698.206C46.8378 696.625 50.5502 694.529 54.4891 693.002C58.6473 691.387 62.8702 689.631 67.2274 688.899C78.1885 687.057 87.1174 694.57 87.1038 705.708C87.0964 710.361 85.8181 715.035 84.8963 719.656C84.094 723.676 82.8406 727.608 82.0498 731.631C81.4842 734.491 82.9712 735.755 85.7212 734.698C89.0835 733.407 92.2852 731.712 95.6372 730.378C99.9779 728.522 104.415 726.901 108.93 725.522C111.395 724.79 113.995 724.629 116.531 725.053C119.067 725.476 121.474 726.472 123.567 727.965C127.472 730.67 128.442 734.765 126.158 738.746C123.971 742.573 119.776 743.578 115.476 741.879C113.595 741.15 111.524 741.075 109.595 741.667C105.758 743.07 102.255 745.374 98.4375 746.849C94.071 748.617 89.5663 750.023 84.9691 751.052C82.7544 751.513 80.4613 751.433 78.2841 750.819C76.1068 750.206 74.1095 749.076 72.4611 747.527Z" fill="#FA5987"/>
<path d="M72.4611 747.527C70.2803 745.825 68.5796 743.584 67.5259 741.026C66.4722 738.468 66.1017 735.68 66.4507 732.935C66.9339 727.643 68.2704 722.422 69.3616 717.196C69.9204 714.521 70.8936 711.931 71.4193 709.25C71.5072 707.948 71.4254 706.64 71.1762 705.36C69.8538 705.382 68.5399 705.576 67.267 705.935C61.4306 708.421 55.7206 711.209 49.8415 713.584C47.286 714.573 44.6003 715.186 41.8686 715.402C31.9861 716.288 23.9937 709.774 23.7478 699.866C23.6072 694.245 24.9717 688.551 25.967 682.946C26.5508 679.655 27.9749 676.511 28.5537 673.219C28.7636 671.565 28.399 669.889 27.5211 668.472C24.751 664.159 25.155 660.074 29.0492 656.924C32.4264 654.193 36.6959 654.746 40.031 658.306C44.5371 663.121 45.4188 668.924 44.105 675.032C43.1686 679.387 41.487 683.578 40.1978 687.862C39.5542 690.003 38.9265 692.163 38.4968 694.354C37.6336 698.758 38.831 699.855 42.9173 698.206C46.8378 696.625 50.5502 694.529 54.4891 693.002C58.6473 691.387 62.8702 689.631 67.2274 688.899C78.1885 687.057 87.1174 694.57 87.1038 705.708C87.0964 710.361 85.8181 715.035 84.8963 719.656C84.094 723.676 82.8406 727.608 82.0498 731.631C81.4842 734.491 82.9712 735.755 85.7212 734.698C89.0835 733.407 92.2852 731.712 95.6372 730.378C99.9779 728.522 104.415 726.901 108.93 725.522C111.395 724.79 113.995 724.629 116.531 725.053C119.067 725.476 121.474 726.472 123.567 727.965C127.472 730.67 128.442 734.765 126.158 738.746C123.971 742.573 119.776 743.578 115.476 741.879C113.595 741.15 111.524 741.075 109.595 741.667C105.758 743.07 102.255 745.374 98.4375 746.849C94.071 748.617 89.5663 750.023 84.9691 751.052C82.7544 751.513 80.4613 751.433 78.2841 750.819C76.1068 750.206 74.1095 749.076 72.4611 747.527V747.527Z" stroke="#090089" stroke-width="2" stroke-linejoin="round"/>
<path d="M535.489 72.0794C535.026 71.9475 534.635 71.6373 534.401 71.2168C534.166 70.7964 534.109 70.3003 534.24 69.8374L536.566 61.6688C536.959 60.2797 536.786 58.7912 536.083 57.53C535.38 56.2688 534.206 55.3378 532.818 54.9414L529.329 53.9485C527.941 53.555 526.453 53.7283 525.192 54.4305C523.93 55.1327 522.999 56.3064 522.603 57.6941L520.277 65.8627C520.139 66.3182 519.828 66.7011 519.41 66.9291C518.992 67.1571 518.501 67.2118 518.044 67.0815C517.586 66.9512 517.198 66.6463 516.962 66.2324C516.727 65.8186 516.664 65.329 516.787 64.869L519.112 56.7004C519.773 54.3877 521.325 52.4318 523.427 51.2616C525.529 50.0913 528.008 49.8022 530.323 50.4576L533.811 51.4505C536.124 52.1118 538.081 53.6635 539.252 55.7654C540.422 57.8672 540.712 60.3475 540.056 62.6623L537.731 70.831C537.599 71.2937 537.289 71.6852 536.868 71.9193C536.448 72.1534 535.952 72.211 535.489 72.0794Z" fill="#FA5987"/>
<path d="M535.489 72.0794C535.026 71.9475 534.635 71.6373 534.401 71.2168C534.166 70.7964 534.109 70.3003 534.24 69.8374L536.566 61.6688C536.959 60.2797 536.786 58.7912 536.083 57.53C535.38 56.2688 534.206 55.3378 532.818 54.9414L529.329 53.9485C527.941 53.555 526.453 53.7283 525.192 54.4305C523.93 55.1327 522.999 56.3064 522.603 57.6941L520.277 65.8627C520.139 66.3182 519.828 66.7011 519.41 66.9291C518.992 67.1571 518.501 67.2118 518.044 67.0815C517.586 66.9512 517.198 66.6463 516.962 66.2324C516.727 65.8186 516.664 65.329 516.787 64.869L519.112 56.7004C519.773 54.3877 521.325 52.4318 523.427 51.2616C525.529 50.0913 528.008 49.8022 530.323 50.4576L533.811 51.4505C536.124 52.1118 538.081 53.6635 539.252 55.7654C540.422 57.8672 540.712 60.3475 540.056 62.6623L537.731 70.831C537.599 71.2937 537.289 71.6852 536.868 71.9193C536.448 72.1534 535.952 72.211 535.489 72.0794V72.0794Z" stroke="#090089" stroke-width="2" stroke-linejoin="round"/>
<path d="M555.063 114.516C552.938 121.979 548.649 128.643 542.737 133.668C536.824 138.693 529.555 141.851 521.847 142.745C514.14 143.638 506.341 142.225 499.436 138.686C492.531 135.147 486.831 129.639 483.057 122.86C479.282 116.081 477.602 108.335 478.23 100.602C478.857 92.8682 481.764 85.4944 486.583 79.4129C491.401 73.3313 497.915 68.8152 505.3 66.4355C512.685 64.0558 520.609 63.9194 528.072 66.0437C533.027 67.4542 537.656 69.8268 541.694 73.0261C545.732 76.2254 549.1 80.1887 551.606 84.6898C554.113 89.1909 555.708 94.1416 556.301 99.2592C556.894 104.377 556.473 109.561 555.063 114.516Z" fill="#FA5987"/>
<path d="M521.848 142.745C543.37 140.25 558.795 120.781 556.301 99.259C553.807 77.7368 534.337 62.3116 512.815 64.8059C491.293 67.3001 475.868 86.7693 478.362 108.292C480.856 129.814 500.326 145.239 521.848 142.745Z" stroke="#090089" stroke-width="2" stroke-linejoin="round"/>
<path d="M529.612 112.094C529.156 111.966 528.759 111.68 528.493 111.287L519.223 97.6855L504.176 104.37C503.72 104.57 503.205 104.595 502.731 104.441C502.257 104.286 501.856 103.963 501.605 103.533L494.129 90.5219L482.447 94.5458C481.95 94.7155 481.407 94.686 480.931 94.4635C480.456 94.2409 480.085 93.8426 479.897 93.3523C479.807 93.1123 479.767 92.8566 479.778 92.6005C479.789 92.3445 479.852 92.0934 479.963 91.8622C480.073 91.631 480.23 91.4245 480.422 91.2552C480.614 91.0858 480.839 90.9569 481.082 90.8764L494.347 86.309C494.791 86.1559 495.275 86.162 495.715 86.3263C496.156 86.4906 496.525 86.8029 496.761 87.2096L504.162 100.086L519.081 93.4581C519.513 93.2669 519.999 93.233 520.454 93.3625C520.908 93.4919 521.304 93.7765 521.57 94.1668L530.763 107.658L543.835 100.61C544.249 100.387 544.728 100.316 545.189 100.409C545.65 100.501 546.064 100.751 546.361 101.115L555.232 111.984C555.396 112.18 555.519 112.408 555.593 112.654C555.667 112.899 555.691 113.156 555.663 113.411C555.635 113.666 555.557 113.912 555.432 114.136C555.307 114.359 555.139 114.556 554.936 114.713C554.518 115.03 553.993 115.173 553.472 115.112C552.95 115.051 552.473 114.79 552.14 114.384L544.328 104.812L531.122 111.935C530.658 112.182 530.117 112.238 529.612 112.094Z" fill="#06CA99"/>
<path d="M529.612 112.094C529.156 111.966 528.759 111.68 528.493 111.287L519.223 97.6855L504.176 104.37C503.72 104.57 503.205 104.595 502.731 104.441C502.257 104.286 501.856 103.963 501.605 103.533L494.129 90.5219L482.447 94.5458C481.95 94.7155 481.407 94.686 480.931 94.4635C480.456 94.2409 480.085 93.8426 479.897 93.3523C479.807 93.1123 479.767 92.8566 479.778 92.6005C479.789 92.3445 479.852 92.0934 479.963 91.8622C480.073 91.631 480.23 91.4246 480.422 91.2552C480.614 91.0858 480.839 90.957 481.082 90.8764L494.347 86.309C494.791 86.1559 495.275 86.162 495.715 86.3263C496.156 86.4906 496.525 86.8029 496.761 87.2096L504.162 100.086L519.081 93.4581C519.513 93.2669 519.999 93.233 520.454 93.3625C520.908 93.4919 521.304 93.7765 521.57 94.1668L530.763 107.658L543.835 100.61C544.249 100.387 544.728 100.316 545.189 100.409C545.65 100.501 546.064 100.751 546.361 101.115L555.232 111.984C555.396 112.18 555.519 112.408 555.593 112.654C555.667 112.899 555.691 113.156 555.663 113.411C555.635 113.666 555.557 113.912 555.432 114.136C555.307 114.359 555.139 114.556 554.936 114.713C554.518 115.03 553.993 115.173 553.472 115.112C552.95 115.051 552.473 114.79 552.14 114.384L544.328 104.812L531.122 111.935C530.658 112.182 530.117 112.238 529.612 112.094V112.094Z" stroke="#090089" stroke-miterlimit="10"/>
<path d="M524.456 125.208C524.031 125.088 523.662 124.822 523.414 124.456L514.76 111.761L500.716 117.999C500.29 118.185 499.809 118.209 499.367 118.064C498.924 117.92 498.55 117.618 498.316 117.215L491.339 105.075L480.436 108.828C479.972 108.987 479.465 108.959 479.021 108.752C478.577 108.544 478.231 108.172 478.056 107.714C477.972 107.49 477.934 107.251 477.945 107.012C477.956 106.773 478.015 106.539 478.118 106.323C478.221 106.108 478.367 105.915 478.547 105.757C478.726 105.599 478.936 105.479 479.163 105.404L491.543 101.141C491.958 100.998 492.409 101.004 492.82 101.157C493.231 101.31 493.576 101.602 493.796 101.981L500.704 114L514.628 107.814C515.031 107.637 515.484 107.605 515.909 107.726C516.333 107.847 516.702 108.112 516.951 108.476L525.53 121.067L537.729 114.488C538.116 114.281 538.562 114.215 538.992 114.301C539.423 114.387 539.809 114.62 540.087 114.96L548.366 125.104C548.519 125.288 548.634 125.5 548.703 125.729C548.772 125.958 548.795 126.198 548.769 126.436C548.743 126.673 548.67 126.903 548.553 127.112C548.437 127.321 548.279 127.504 548.091 127.651C547.701 127.948 547.211 128.082 546.724 128.025C546.237 127.968 545.791 127.724 545.48 127.344L538.188 118.412L525.867 125.058C525.434 125.288 524.928 125.341 524.456 125.206" fill="#06CA99"/>
<path d="M524.456 125.208C524.031 125.088 523.662 124.822 523.414 124.456L514.76 111.761L500.716 117.999C500.29 118.185 499.809 118.209 499.367 118.064C498.924 117.92 498.55 117.618 498.316 117.215L491.339 105.075L480.436 108.828C479.972 108.987 479.465 108.959 479.021 108.752C478.577 108.544 478.231 108.172 478.056 107.714C477.972 107.49 477.934 107.251 477.945 107.012C477.956 106.773 478.015 106.539 478.118 106.323C478.221 106.108 478.367 105.915 478.547 105.757C478.726 105.599 478.936 105.479 479.163 105.404L491.543 101.141C491.958 100.998 492.409 101.004 492.82 101.157C493.231 101.31 493.576 101.602 493.796 101.981L500.704 114L514.628 107.814C515.031 107.637 515.484 107.605 515.909 107.726C516.333 107.847 516.702 108.112 516.951 108.476L525.53 121.067L537.729 114.488C538.116 114.281 538.562 114.215 538.992 114.301C539.423 114.387 539.809 114.62 540.087 114.96L548.366 125.104C548.519 125.288 548.634 125.5 548.703 125.729C548.772 125.958 548.795 126.198 548.769 126.436C548.743 126.673 548.67 126.903 548.553 127.112C548.437 127.321 548.279 127.504 548.091 127.651C547.701 127.948 547.211 128.082 546.724 128.025C546.237 127.968 545.791 127.724 545.48 127.344L538.188 118.412L525.867 125.058C525.434 125.289 524.928 125.343 524.456 125.208V125.208Z" stroke="#090089" stroke-miterlimit="10"/>
</svg>
