<svg width="128" height="131" viewBox="0 0 128 131" fill="none" xmlns="http://www.w3.org/2000/svg">
<path d="M81.4889 35.0794C81.0261 34.9475 80.6347 34.6373 80.4006 34.2168C80.1665 33.7964 80.1089 33.3003 80.2405 32.8374L82.5657 24.6688C82.9592 23.2797 82.7856 21.7912 82.0829 20.53C81.3802 19.2688 80.2058 18.3378 78.8175 17.9414L75.3292 16.9485C73.9406 16.555 72.4525 16.7283 71.1915 17.4305C69.9305 18.1327 68.9995 19.3064 68.6027 20.6941L66.2774 28.8627C66.1392 29.3182 65.8277 29.7011 65.4098 29.9291C64.992 30.1571 64.5014 30.2118 64.0436 30.0815C63.5858 29.9512 63.1976 29.6463 62.9624 29.2324C62.7273 28.8186 62.6641 28.329 62.7865 27.869L65.1118 19.7004C65.7735 17.3877 67.3253 15.4318 69.4269 14.2616C71.5285 13.0913 74.0085 12.8022 76.3229 13.4576L79.8112 14.4505C82.1244 15.1118 84.0809 16.6635 85.2516 18.7654C86.4223 20.8672 86.7116 23.3475 86.0561 25.6623L83.7309 33.831C83.599 34.2937 83.2887 34.6852 82.8683 34.9193C82.4479 35.1534 81.9517 35.211 81.4889 35.0794Z" fill="#FA5987"/>
<path d="M81.4889 35.0794C81.0261 34.9475 80.6347 34.6373 80.4006 34.2168C80.1665 33.7964 80.1089 33.3003 80.2405 32.8374L82.5657 24.6688C82.9592 23.2797 82.7856 21.7912 82.0829 20.53C81.3802 19.2688 80.2058 18.3378 78.8175 17.9414L75.3292 16.9485C73.9406 16.555 72.4525 16.7283 71.1915 17.4305C69.9305 18.1327 68.9995 19.3064 68.6027 20.6941L66.2774 28.8627C66.1392 29.3182 65.8277 29.7011 65.4098 29.9291C64.992 30.1571 64.5014 30.2118 64.0436 30.0815C63.5858 29.9512 63.1976 29.6463 62.9624 29.2324C62.7273 28.8186 62.6641 28.329 62.7865 27.869L65.1118 19.7004C65.7735 17.3877 67.3253 15.4318 69.4269 14.2616C71.5285 13.0913 74.0085 12.8022 76.3229 13.4576L79.8112 14.4505C82.1244 15.1118 84.0809 16.6635 85.2516 18.7654C86.4223 20.8672 86.7116 23.3475 86.0561 25.6623L83.7309 33.831C83.599 34.2937 83.2887 34.6852 82.8683 34.9193C82.4479 35.1534 81.9517 35.211 81.4889 35.0794V35.0794Z" stroke="#090089" stroke-width="2" stroke-linejoin="round"/>
<path d="M101.063 77.516C98.9384 84.9785 94.6489 91.6435 88.7366 96.6681C82.8243 101.693 75.5548 104.851 67.8474 105.745C60.14 106.638 52.3408 105.225 45.4361 101.686C38.5315 98.1465 32.8314 92.6392 29.0567 85.8602C25.282 79.0813 23.6022 71.3353 24.2299 63.6018C24.8575 55.8682 27.7642 48.4944 32.5826 42.4129C37.401 36.3313 43.9145 31.8152 51.2996 29.4355C58.6846 27.0558 66.6095 26.9194 74.072 29.0437C79.027 30.4542 83.6557 32.8268 87.6937 36.0261C91.7317 39.2254 95.1001 43.1887 97.6064 47.6898C100.113 52.1909 101.708 57.1416 102.301 62.2592C102.894 67.3767 102.473 72.561 101.063 77.516Z" fill="#FA5987"/>
<path d="M67.8477 105.745C89.3699 103.25 104.795 83.7812 102.301 62.259C99.8066 40.7368 80.3374 25.3116 58.8152 27.8059C37.293 30.3001 21.8678 49.7693 24.362 71.2916C26.8563 92.8138 46.3255 108.239 67.8477 105.745Z" stroke="#090089" stroke-width="2" stroke-linejoin="round"/>
<path d="M75.6123 75.0939C75.1556 74.9659 74.7591 74.6802 74.4931 74.2875L65.2234 60.6855L50.1763 67.3695C49.7196 67.5696 49.2053 67.595 48.7312 67.4407C48.257 67.2865 47.8561 66.9634 47.6045 66.5329L40.1285 53.5219L28.4469 57.5458C27.95 57.7155 27.4067 57.686 26.9311 57.4635C26.4556 57.2409 26.0848 56.8426 25.8969 56.3523C25.807 56.1123 25.7666 55.8566 25.7779 55.6005C25.7892 55.3445 25.8521 55.0934 25.9627 54.8622C26.0734 54.631 26.2296 54.4245 26.4219 54.2552C26.6143 54.0858 26.8388 53.9569 27.0822 53.8764L40.3471 49.309C40.7914 49.1559 41.2751 49.162 41.7155 49.3263C42.1558 49.4906 42.5253 49.8029 42.7607 50.2096L50.1621 63.0859L65.0808 56.4581C65.5132 56.2669 65.9989 56.233 66.4537 56.3625C66.9084 56.4919 67.3035 56.7765 67.5704 57.1668L76.7626 70.6579L89.8351 63.6097C90.2494 63.3875 90.728 63.3164 91.1889 63.4087C91.6499 63.5009 92.0643 63.7507 92.3612 64.1152L101.232 74.9837C101.396 75.1805 101.519 75.4083 101.593 75.6535C101.667 75.8987 101.691 76.1563 101.663 76.4109C101.635 76.6656 101.557 76.9121 101.432 77.1357C101.307 77.3594 101.139 77.5556 100.936 77.7128C100.518 78.0303 99.9933 78.1735 99.4718 78.1122C98.9503 78.051 98.4728 77.79 98.1396 77.3842L90.3283 67.8116L77.122 74.9352C76.6583 75.1816 76.1171 75.2384 75.6123 75.0939Z" fill="#06CA99"/>
<path d="M75.6123 75.0939C75.1556 74.9659 74.7591 74.6802 74.4931 74.2875L65.2234 60.6855L50.1763 67.3695C49.7196 67.5696 49.2053 67.595 48.7312 67.4407C48.257 67.2865 47.8561 66.9634 47.6045 66.5329L40.1285 53.5219L28.4469 57.5458C27.95 57.7155 27.4067 57.686 26.9311 57.4635C26.4556 57.2409 26.0848 56.8426 25.8969 56.3523C25.807 56.1123 25.7666 55.8566 25.7779 55.6005C25.7892 55.3445 25.8521 55.0934 25.9627 54.8622C26.0734 54.631 26.2296 54.4246 26.4219 54.2552C26.6143 54.0858 26.8388 53.957 27.0822 53.8764L40.3471 49.309C40.7914 49.1559 41.2751 49.162 41.7155 49.3263C42.1558 49.4906 42.5253 49.8029 42.7607 50.2096L50.1621 63.0859L65.0808 56.4581C65.5132 56.2669 65.9989 56.233 66.4537 56.3625C66.9084 56.4919 67.3035 56.7765 67.5704 57.1668L76.7626 70.6579L89.8351 63.6097C90.2494 63.3875 90.728 63.3164 91.1889 63.4087C91.6499 63.5009 92.0643 63.7507 92.3612 64.1152L101.232 74.9837C101.396 75.1805 101.519 75.4083 101.593 75.6535C101.667 75.8987 101.691 76.1563 101.663 76.4109C101.635 76.6656 101.557 76.9121 101.432 77.1357C101.307 77.3594 101.139 77.5556 100.936 77.7128C100.518 78.0303 99.9933 78.1735 99.4718 78.1122C98.9503 78.051 98.4728 77.79 98.1396 77.3842L90.3283 67.8116L77.122 74.9352C76.6583 75.1816 76.1171 75.2384 75.6123 75.0939V75.0939Z" stroke="#090089" stroke-miterlimit="10"/>
<path d="M70.4557 88.208C70.0307 88.0883 69.6617 87.822 69.4142 87.4563L60.7604 74.7608L46.7165 80.9986C46.2899 81.1854 45.8095 81.2087 45.3668 81.0643C44.9241 80.9198 44.5499 80.6176 44.3156 80.2152L37.3391 68.0752L26.436 71.8279C25.9722 71.9868 25.4648 71.9595 25.0207 71.7516C24.5767 71.5438 24.2307 71.1716 24.0556 70.7136C23.972 70.4896 23.9343 70.251 23.945 70.0121C23.9557 69.7732 24.0145 69.5389 24.1179 69.3232C24.2212 69.1075 24.3671 68.915 24.5466 68.757C24.7261 68.599 24.9357 68.4788 25.1628 68.4037L37.5429 64.1409C37.9577 63.998 38.4092 64.0037 38.8203 64.157C39.2313 64.3103 39.5763 64.6016 39.7962 64.9812L46.7037 77.0004L60.6277 70.8144C61.0313 70.6365 61.4844 70.6052 61.9086 70.726C62.3329 70.8467 62.7015 71.1119 62.951 71.4757L71.5299 84.0673L83.7287 77.488C84.1155 77.2811 84.5622 77.2151 84.9924 77.3013C85.4225 77.3874 85.8094 77.6204 86.0867 77.9603L94.366 88.104C94.5191 88.2875 94.6337 88.5001 94.7029 88.7289C94.7721 88.9577 94.7945 89.1981 94.7688 89.4358C94.7431 89.6734 94.6698 89.9035 94.5533 90.1122C94.4368 90.3209 94.2794 90.504 94.0906 90.6507C93.7006 90.9478 93.2105 91.0819 92.7236 91.0248C92.2366 90.9676 91.7909 90.7236 91.4803 90.3443L84.188 81.4122L71.8669 88.0578C71.4337 88.2883 70.9279 88.3414 70.4563 88.2059" fill="#06CA99"/>
<path d="M70.4557 88.208C70.0307 88.0883 69.6617 87.822 69.4142 87.4563L60.7604 74.7608L46.7165 80.9986C46.2899 81.1854 45.8095 81.2087 45.3668 81.0643C44.9241 80.9198 44.5499 80.6176 44.3156 80.2152L37.3391 68.0752L26.436 71.8279C25.9722 71.9868 25.4648 71.9595 25.0207 71.7516C24.5767 71.5438 24.2307 71.1716 24.0556 70.7136C23.972 70.4896 23.9343 70.251 23.945 70.0121C23.9557 69.7732 24.0145 69.5389 24.1179 69.3232C24.2212 69.1075 24.3671 68.915 24.5466 68.757C24.7261 68.599 24.9357 68.4788 25.1628 68.4037L37.5429 64.1409C37.9577 63.998 38.4092 64.0037 38.8203 64.157C39.2313 64.3103 39.5763 64.6016 39.7962 64.9812L46.7037 77.0004L60.6277 70.8144C61.0313 70.6365 61.4844 70.6052 61.9086 70.726C62.3329 70.8467 62.7015 71.1119 62.951 71.4757L71.5299 84.0673L83.7287 77.488C84.1155 77.2811 84.5622 77.2151 84.9924 77.3013C85.4225 77.3874 85.8094 77.6204 86.0867 77.9603L94.366 88.104C94.5191 88.2875 94.6337 88.5001 94.7029 88.7289C94.7721 88.9577 94.7945 89.1981 94.7688 89.4358C94.7431 89.6734 94.6698 89.9035 94.5533 90.1122C94.4368 90.3209 94.2794 90.504 94.0906 90.6507C93.7006 90.9478 93.2105 91.0819 92.7236 91.0248C92.2366 90.9676 91.7909 90.7236 91.4803 90.3443L84.188 81.4122L71.8669 88.0578C71.4338 88.2891 70.9278 88.343 70.4557 88.208V88.208Z" stroke="#090089" stroke-miterlimit="10"/>
</svg>
